<svg xmlns="http://www.w3.org/2000/svg" width="30.76246" height="24.99997" viewBox="0 0 30.76246 24.99997"><defs><style>.cls-1{fill:#fff;}</style></defs><title>twitter</title><g id="Layer_2" data-name="Layer 2"><g id="Layer_1-2" data-name="Layer 1"><path class="cls-1" d="M30.76246,2.95943a12.61779,12.61779,0,0,1-3.62491.9938,6.32983,6.32983,0,0,0,2.775-3.49171A12.63639,12.63639,0,0,1,25.90487,1.9931,6.3171,6.3171,0,0,0,15.15011,7.74942,17.91754,17.91754,0,0,1,2.14154,1.15522a6.31825,6.31825,0,0,0,1.95321,8.4261A6.28573,6.28573,0,0,1,1.2361,8.7919c-.00045.02637-.00055.05274-.00055.07933a6.315,6.315,0,0,0,5.06272,6.18852,6.32654,6.32654,0,0,1-2.85019.10813A6.31766,6.31766,0,0,0,9.34374,19.551a12.66352,12.66352,0,0,1-7.83821,2.70166A12.83736,12.83736,0,0,1,0,22.16452,17.864,17.864,0,0,0,9.67461,25C21.28335,25,27.63141,15.383,27.63141,7.043q0-.41042-.01823-.81645a12.828,12.828,0,0,0,3.14928-3.26709Z"/></g></g></svg>