<?xml version="1.0" standalone="no"?>
<!DOCTYPE svg PUBLIC "-//W3C//DTD SVG 20010904//EN"
 "http://www.w3.org/TR/2001/REC-SVG-20010904/DTD/svg10.dtd">
<svg version="1.0" xmlns="http://www.w3.org/2000/svg"
 width="2405.000000pt" height="2405.000000pt" viewBox="0 0 2405.000000 2405.000000"
 preserveAspectRatio="xMidYMid meet">
<metadata>
Created by potrace 1.11, written by Peter Selinger 2001-2013
</metadata>
<g transform="translate(0.000000,2405.000000) scale(0.100000,-0.100000)"
fill="#000000" stroke="none">
<path d="M17215 14515 c-577 -81 -1062 -315 -1444 -695 -373 -371 -621 -857
-706 -1380 -38 -240 -38 -599 0 -837 64 -400 232 -795 475 -1118 90 -120 284
-323 395 -412 355 -287 781 -467 1248 -528 158 -20 540 -20 707 0 479 59 885
222 1229 494 106 83 344 330 450 465 71 91 82 109 70 121 -19 18 -971 696
-986 702 -6 3 -29 -15 -50 -39 -231 -262 -434 -410 -659 -481 -202 -64 -463
-73 -656 -23 -461 118 -787 521 -859 1061 -18 137 -6 385 24 515 110 471 418
809 835 916 132 34 336 43 476 20 251 -41 447 -146 669 -356 45 -42 102 -103
127 -134 26 -32 51 -54 58 -51 7 2 235 177 507 387 l494 383 -16 25 c-34 53
-142 179 -233 274 -362 375 -784 590 -1345 682 -140 23 -669 29 -810 9z"/>
<path d="M6668 14505 c-151 -19 -341 -60 -467 -101 -139 -45 -362 -157 -481
-241 -406 -291 -619 -748 -594 -1278 20 -420 204 -746 554 -978 271 -179 547
-278 1270 -456 354 -87 459 -120 593 -188 111 -55 170 -112 191 -184 50 -166
-27 -302 -205 -366 -127 -46 -210 -57 -384 -49 -517 22 -1000 192 -1391 492
-101 77 -110 82 -125 66 -9 -9 -177 -210 -374 -446 l-359 -430 60 -53 c79 -71
268 -208 381 -277 387 -235 845 -387 1363 -452 170 -22 568 -29 730 -14 548
50 957 217 1256 515 164 164 270 332 339 538 62 188 70 245 69 517 0 233 -1
250 -27 343 -102 380 -324 627 -752 837 -204 100 -481 194 -795 270 -91 22
-248 60 -350 85 -504 121 -671 220 -687 405 -18 198 171 339 453 340 412 1
863 -146 1274 -414 l96 -63 329 468 c182 257 330 474 330 481 0 17 -143 124
-277 207 -350 219 -727 348 -1209 416 -159 23 -665 29 -811 10z"/>
<path d="M21618 14505 c-774 -94 -1324 -503 -1488 -1107 -38 -140 -50 -248
-51 -433 -1 -146 3 -199 20 -283 85 -408 325 -694 766 -907 205 -100 497 -193
940 -300 290 -70 440 -110 530 -142 92 -34 234 -105 274 -138 79 -67 109 -179
76 -291 -25 -87 -93 -151 -206 -191 -124 -45 -216 -57 -382 -50 -525 23 -991
189 -1397 496 -80 60 -108 76 -117 68 -6 -7 -174 -208 -373 -447 l-363 -434
49 -44 c76 -70 260 -204 375 -275 516 -318 1155 -487 1837 -487 756 1 1331
235 1666 680 127 169 225 397 260 609 22 129 22 439 0 552 -80 421 -322 707
-789 930 -191 92 -499 194 -796 265 -561 133 -671 165 -813 236 -172 86 -235
202 -192 352 41 141 217 235 442 236 412 1 856 -144 1272 -413 80 -51 95 -58
107 -46 18 19 646 910 652 925 9 24 -216 183 -412 292 -337 187 -777 314
-1220 352 -163 13 -536 11 -667 -5z"/>
<path d="M11367 14388 c-201 -471 -2007 -4751 -2007 -4758 0 -7 250 -10 703
-10 l702 0 170 428 171 427 925 3 924 2 175 -430 175 -430 718 0 c394 0 717 3
717 7 0 4 -460 1096 -1022 2425 l-1022 2418 -647 0 -647 0 -35 -82z m933
-2188 c139 -355 255 -653 258 -662 4 -17 -26 -18 -523 -18 -445 0 -526 2 -523
14 10 44 524 1324 529 1318 4 -4 120 -297 259 -652z"/>
<path d="M2 12898 l4 -1543 22 -124 c85 -467 221 -778 462 -1057 173 -199 439
-380 697 -474 545 -198 1242 -224 1849 -70 500 127 869 388 1120 792 144 232
238 506 300 878 17 97 19 223 21 1623 l4 1517 -686 0 -686 0 1 -1462 c1 -1595
4 -1528 -55 -1683 -93 -248 -229 -396 -446 -485 -122 -51 -207 -65 -379 -64
-184 1 -265 19 -405 88 -218 108 -352 288 -433 585 l-27 96 -3 1463 -3 1462
-680 0 -680 0 3 -1542z"/>
</g>
</svg>
