<?xml version="1.0" standalone="no"?>
<!DOCTYPE svg PUBLIC "-//W3C//DTD SVG 20010904//EN"
 "http://www.w3.org/TR/2001/REC-SVG-20010904/DTD/svg10.dtd">
<svg version="1.0" xmlns="http://www.w3.org/2000/svg"
 width="400.000000pt" height="400.000000pt" viewBox="0 0 400.000000 400.000000"
 preserveAspectRatio="xMidYMid meet">
<metadata>
Created by potrace 1.11, written by Peter Selinger 2001-2013
</metadata>
<g transform="translate(0.000000,400.000000) scale(0.100000,-0.100000)"
fill="#000000" stroke="none">
<path d="M967 3988 c4 -7 -18 -12 -39 -10 -3 1 -12 -5 -18 -13 -7 -8 -19 -15
-26 -15 -8 0 -14 -7 -14 -16 0 -8 -4 -12 -10 -9 -5 3 -10 -1 -10 -9 0 -9 -4
-16 -10 -16 -5 0 -10 -9 -10 -20 0 -11 -5 -20 -11 -20 -6 0 -9 -7 -5 -15 3 -8
2 -15 -3 -15 -9 0 -4 -112 7 -119 4 -3 8 -13 10 -21 2 -8 10 -22 18 -31 8 -9
11 -19 7 -24 -5 -4 -3 -5 3 -2 7 4 15 0 18 -9 3 -8 10 -12 16 -9 6 3 13 0 16
-8 6 -17 59 -30 119 -31 22 -1 40 -5 41 -11 2 -24 27 -75 36 -75 5 0 6 -4 3
-10 -3 -5 -1 -10 4 -10 6 0 11 -3 10 -7 -2 -16 14 -53 23 -53 5 0 7 -4 3 -9
-3 -5 1 -16 9 -24 8 -8 12 -17 9 -21 -3 -3 2 -8 11 -12 14 -5 14 -9 4 -23 -7
-9 -8 -13 -3 -8 5 4 15 -7 22 -25 12 -29 12 -34 -3 -45 -10 -7 -14 -13 -8 -13
5 0 0 -7 -10 -15 -11 -8 -17 -15 -13 -15 4 0 2 -10 -5 -22 -7 -13 -11 -27 -10
-31 1 -5 -3 -5 -10 -1 -16 10 -344 12 -381 2 -15 -4 -25 -3 -22 1 2 5 -15 8
-40 7 -25 0 -44 2 -42 5 1 3 -6 14 -16 24 -10 9 -16 24 -13 31 3 8 -1 14 -10
14 -9 0 -18 9 -21 20 -3 11 -9 17 -14 14 -5 -3 -12 1 -15 10 -3 8 -12 17 -20
20 -10 4 -13 2 -8 -7 4 -6 -1 -5 -12 5 -24 21 -164 22 -164 2 0 -8 -6 -11 -15
-8 -8 4 -15 1 -15 -4 0 -6 -9 -14 -20 -17 -11 -4 -18 -11 -15 -16 4 -5 -2 -9
-11 -9 -10 0 -14 -3 -11 -7 4 -3 0 -14 -9 -24 -9 -10 -17 -29 -18 -43 0 -14
-3 -26 -6 -26 -3 0 -5 -20 -5 -44 0 -24 4 -42 9 -38 5 3 7 -2 3 -11 -3 -9 1
-23 9 -32 9 -8 12 -15 8 -15 -4 0 1 -7 12 -16 10 -8 12 -13 4 -9 -8 4 -6 -1 5
-9 11 -9 28 -23 38 -31 9 -8 17 -11 17 -7 0 4 4 1 9 -7 5 -8 22 -15 38 -16 16
-1 34 -5 41 -9 7 -4 19 -2 27 4 9 8 15 8 15 2 0 -12 61 7 72 23 4 6 8 6 8 1 0
-5 14 5 30 23 17 17 36 31 43 31 8 0 7 3 -3 10 -12 8 -12 10 3 16 10 4 16 13
13 20 -3 7 3 15 12 18 9 2 126 4 259 4 l242 0 13 -29 c7 -16 16 -29 20 -29 5
0 8 -6 8 -12 0 -21 89 -76 116 -73 13 1 24 -1 24 -5 0 -4 20 -4 45 0 25 4 45
5 45 3 0 -3 7 3 16 11 8 9 19 14 24 11 4 -3 10 1 13 9 6 15 18 15 49 1 10 -4
15 -12 11 -18 -3 -5 -1 -7 5 -3 6 3 17 -1 25 -9 9 -8 20 -15 26 -15 6 0 11 -5
11 -11 0 -5 4 -8 9 -5 5 3 11 -1 15 -9 3 -8 12 -15 19 -15 8 0 27 -12 42 -27
16 -16 25 -21 20 -13 -6 11 -3 10 12 -3 11 -9 23 -14 28 -10 4 5 5 2 1 -5 -4
-7 0 -15 11 -19 10 -4 24 -14 31 -22 11 -13 12 -13 6 -1 -7 13 -6 13 12 0 10
-8 23 -21 27 -28 5 -7 12 -10 16 -7 5 2 14 -2 21 -10 7 -8 18 -15 25 -15 8 0
15 -4 17 -8 7 -17 64 -48 86 -46 41 3 43 4 36 16 -5 7 -2 9 9 5 9 -3 18 0 21
9 3 8 11 14 17 14 7 0 18 8 26 18 9 10 12 11 7 2 -4 -8 3 -5 14 7 12 12 30 24
42 28 11 3 20 10 20 15 0 5 9 12 20 15 11 3 26 13 34 20 8 8 19 16 26 17 7 2
24 13 38 26 14 12 31 22 38 22 8 0 14 5 14 11 0 5 4 8 9 5 5 -3 11 1 15 9 3 8
12 15 20 15 9 0 20 9 26 19 6 13 18 18 30 16 11 -2 18 0 15 4 -3 5 3 12 12 16
10 3 19 1 21 -4 2 -6 10 -11 18 -11 8 0 14 -5 14 -11 0 -5 4 -7 10 -4 6 3 10
3 10 -2 0 -4 12 -9 28 -9 15 -1 37 -4 49 -7 13 -3 25 -2 28 3 3 5 12 7 20 3 9
-3 15 1 15 8 0 11 3 11 10 -1 6 -9 10 -10 10 -3 0 6 9 14 20 18 19 6 77 59 81
73 1 4 6 16 11 28 9 20 16 21 260 20 l250 -1 25 -45 c23 -41 57 -87 38 -50 -4
8 2 5 14 -8 12 -12 26 -20 32 -17 5 4 9 1 9 -4 0 -6 7 -11 16 -11 9 0 12 -5 8
-12 -6 -10 -4 -10 7 -2 8 6 23 8 34 4 11 -4 34 -4 52 0 18 4 34 5 37 2 4 -3 6
0 6 6 0 7 3 11 8 10 4 -1 17 3 30 10 12 7 28 10 35 6 9 -6 9 -5 0 7 -10 12 -8
17 8 27 10 7 19 20 19 30 0 13 2 14 9 3 6 -9 11 4 17 40 9 63 7 119 -6 135 -6
6 -7 14 -4 17 4 3 -5 17 -20 30 -14 13 -23 27 -19 31 4 4 -3 9 -15 13 -12 3
-22 9 -22 13 0 8 -39 23 -54 21 -4 -1 -14 4 -22 10 -8 6 -14 8 -14 3 0 -5 -19
-8 -42 -8 -24 1 -52 -3 -63 -9 -11 -6 -23 -10 -27 -9 -5 1 -8 -3 -8 -9 0 -6
-7 -8 -16 -5 -9 3 -12 2 -9 -5 4 -5 -3 -18 -14 -28 -12 -10 -21 -23 -21 -30 0
-6 -5 -11 -11 -11 -5 0 -8 -4 -5 -8 2 -4 1 -14 -4 -22 -8 -13 -52 -15 -260
-16 -244 -1 -256 1 -251 29 1 4 -6 10 -14 13 -8 3 -13 10 -10 14 3 5 -2 15
-10 24 -10 9 -11 17 -5 21 6 4 8 11 5 16 -4 5 -1 9 5 9 7 0 10 7 6 15 -3 10 1
15 11 15 9 0 13 3 10 6 -3 4 -1 16 5 28 7 11 12 25 13 29 0 4 7 12 15 17 8 5
12 10 7 10 -4 0 0 15 10 33 9 17 17 34 18 37 0 3 8 16 17 30 9 14 19 35 23 48
7 25 4 24 66 27 25 1 52 6 60 11 8 5 16 9 19 10 17 3 59 28 55 34 -2 3 5 13
16 20 10 8 19 20 19 27 0 7 4 13 8 13 10 0 11 6 17 93 2 39 0 67 -5 67 -6 0
-10 9 -10 19 0 11 -5 23 -10 26 -6 4 -8 11 -4 16 3 5 0 8 -8 7 -7 -2 -12 4
-10 12 2 8 1 12 -3 8 -4 -4 -16 2 -28 13 -11 10 -27 19 -34 19 -7 0 -13 5 -13
11 0 5 -4 7 -10 4 -5 -3 -19 -1 -30 5 -15 8 -20 8 -20 -2 0 -8 -3 -9 -8 -3 -9
13 -52 15 -52 3 0 -5 -4 -7 -9 -3 -5 3 -12 1 -16 -5 -4 -6 -11 -8 -16 -5 -5 4
-9 1 -9 -4 0 -6 -7 -11 -15 -11 -9 0 -18 -7 -22 -16 -3 -9 -12 -13 -21 -9 -9
3 -13 3 -10 -1 4 -3 -4 -24 -18 -45 -13 -21 -21 -39 -18 -39 4 0 2 -6 -3 -12
-13 -19 -8 -118 6 -128 7 -4 12 -11 11 -16 -2 -11 32 -64 42 -64 3 0 1 -11 -5
-25 -7 -14 -16 -25 -20 -25 -5 0 -6 -4 -2 -10 3 -5 -3 -18 -15 -30 -11 -11
-17 -20 -14 -20 4 0 0 -8 -7 -17 -12 -15 -12 -16 1 -8 8 4 5 -3 -8 -17 -12
-13 -19 -28 -15 -31 3 -4 1 -7 -6 -7 -7 0 -10 -4 -6 -9 3 -5 1 -12 -5 -16 -6
-4 -8 -10 -5 -15 3 -4 -2 -11 -11 -14 -8 -3 -12 -10 -9 -16 3 -5 1 -10 -5 -10
-6 0 -9 -4 -5 -9 3 -5 -1 -16 -9 -24 -8 -8 -13 -17 -10 -20 3 -3 -2 -4 -13 -2
-10 2 -37 4 -60 4 -36 1 -43 4 -43 22 0 11 -4 17 -10 14 -5 -3 -10 -2 -10 3 0
5 -8 27 -17 48 -9 22 -16 43 -15 47 1 4 -5 10 -13 13 -8 4 -15 11 -15 16 0 6
-11 33 -25 60 -14 27 -22 54 -19 59 3 5 0 8 -6 7 -19 -5 -21 34 -2 49 9 7 13
13 9 13 -4 0 2 10 13 23 13 13 20 31 17 45 -2 12 -1 24 3 27 6 4 6 70 0 85 -1
3 -2 9 -1 14 1 5 -8 19 -20 32 -12 13 -19 24 -14 24 4 0 -3 9 -16 20 -13 11
-29 24 -35 29 -25 21 -99 39 -122 30 -13 -5 -21 -5 -18 0 3 4 -6 6 -19 3 -14
-2 -25 -8 -25 -13 0 -5 -5 -9 -12 -9 -6 0 -20 -8 -30 -17 -18 -16 -19 -16 -12
3 6 18 6 18 -9 -1 -8 -11 -13 -24 -9 -29 3 -5 -3 -6 -14 -2 -10 4 -15 4 -11 0
3 -4 -3 -19 -14 -35 -10 -15 -19 -31 -18 -36 1 -4 0 -10 -1 -13 -7 -15 -6
-110 1 -110 5 0 8 -3 8 -7 -4 -25 2 -53 11 -48 6 3 10 -1 10 -9 0 -9 5 -16 11
-16 5 0 7 -4 4 -10 -3 -5 1 -10 9 -10 9 0 16 -4 16 -10 0 -5 7 -10 15 -10 8 0
15 -4 15 -10 0 -5 3 -9 8 -8 4 1 16 -2 27 -8 11 -5 41 -9 68 -9 36 1 47 -3 47
-15 0 -8 9 -26 20 -40 11 -14 20 -33 20 -42 0 -10 5 -18 11 -18 5 0 8 -4 4 -9
-3 -6 3 -14 12 -20 10 -6 14 -11 9 -11 -5 0 -2 -8 5 -17 12 -15 12 -16 -1 -8
-11 6 -10 3 3 -12 9 -11 17 -25 17 -31 0 -7 5 -12 10 -12 6 0 10 -9 10 -20 0
-11 5 -20 10 -20 6 0 10 -6 10 -14 0 -8 6 -17 13 -19 7 -3 4 -6 -6 -6 -10 -1
-15 -5 -12 -11 3 -5 2 -10 -4 -10 -8 0 -27 -40 -22 -48 1 -1 -5 -9 -12 -17 -9
-9 -14 -34 -13 -72 1 -61 -14 -93 -45 -93 -9 0 -20 -7 -23 -16 -3 -8 -10 -13
-15 -9 -6 3 -15 -4 -21 -15 -6 -11 -15 -18 -21 -15 -5 4 -9 1 -9 -5 0 -6 -4
-8 -10 -5 -5 3 -10 1 -10 -5 0 -6 -4 -9 -8 -6 -5 3 -14 -4 -22 -14 -8 -10 -17
-17 -22 -14 -4 3 -11 -2 -14 -10 -3 -9 -10 -13 -15 -10 -5 3 -12 -2 -15 -10
-3 -9 -10 -13 -15 -10 -5 3 -9 0 -9 -5 0 -6 -7 -11 -15 -11 -8 0 -15 -4 -15
-10 0 -5 -7 -10 -15 -10 -7 0 -18 -7 -23 -15 -4 -9 -18 -17 -29 -18 -12 0 -19
-5 -16 -10 3 -4 -4 -11 -16 -14 -12 -3 -21 -9 -21 -14 0 -15 -22 -10 -37 9 -9
10 -12 11 -7 2 4 -8 -3 -5 -14 7 -12 12 -30 24 -42 28 -11 3 -20 11 -20 16 0
5 -7 9 -15 9 -8 0 -15 5 -15 10 0 6 -7 10 -15 10 -8 0 -15 4 -15 9 0 5 -13 14
-30 21 -16 7 -30 16 -30 20 0 4 -9 10 -21 13 -13 4 -18 10 -13 18 4 8 3 10 -5
5 -6 -4 -29 7 -53 26 -23 18 -38 26 -33 18 5 -8 -5 -4 -22 10 -17 14 -29 28
-26 32 2 4 -3 5 -11 2 -20 -8 -33 23 -31 76 2 45 -22 130 -37 130 -4 0 -8 9
-8 20 0 11 5 20 11 20 5 0 7 5 4 10 -3 6 -1 10 4 10 6 0 11 4 11 10 0 18 34
90 43 90 4 0 5 5 2 10 -3 6 -1 10 5 10 7 0 10 7 6 15 -3 8 -1 15 4 15 6 0 10
7 10 15 0 8 5 15 11 15 5 0 8 4 5 9 -3 5 2 12 11 15 15 6 15 8 3 16 -8 6 -10
10 -4 10 6 0 17 13 23 28 10 24 18 29 49 29 60 1 100 7 95 16 -2 4 3 7 11 7 9
0 16 4 16 9 0 5 9 12 19 16 11 3 23 15 26 26 4 10 10 17 14 15 4 -3 14 17 22
45 9 27 12 49 7 49 -5 0 -6 6 -1 13 10 16 10 39 1 53 -5 6 -9 23 -10 37 -1 14
-5 24 -8 22 -3 -2 -12 10 -19 26 -7 16 -17 27 -22 23 -5 -3 -9 0 -9 5 0 6 -6
11 -14 11 -8 0 -16 7 -20 15 -3 8 -12 12 -21 9 -9 -4 -17 1 -21 11 -5 13 -9
14 -15 3 -5 -7 -9 -8 -9 -2 0 11 -44 10 -74 -2 -15 -6 -17 -4 -11 7 6 10 3 9
-11 -2 -10 -9 -29 -20 -41 -23 -11 -4 -24 -13 -27 -21 -3 -9 -12 -12 -23 -9
-13 4 -14 3 -5 -3 10 -7 8 -14 -8 -28 -11 -10 -20 -24 -20 -32 0 -7 -4 -13 -8
-13 -16 0 -12 -148 4 -161 7 -6 11 -15 8 -20 -3 -5 -1 -9 3 -9 13 0 44 -58 33
-62 -5 -1 -11 -13 -13 -26 -2 -13 -11 -32 -21 -43 -18 -22 -40 -69 -38 -81 1
-5 -3 -8 -9 -8 -5 0 -7 -4 -4 -10 3 -5 2 -10 -3 -10 -9 0 -25 -37 -23 -52 1
-5 -3 -8 -7 -8 -4 0 -13 -15 -20 -32 -11 -32 -13 -33 -64 -29 -53 3 -82 16
-73 32 3 4 -5 18 -17 30 -13 12 -16 18 -8 14 13 -8 13 -7 0 9 -8 10 -15 25
-17 34 -1 9 -7 18 -13 20 -5 2 -8 8 -4 13 3 5 0 9 -6 9 -6 0 -8 5 -5 10 3 6 3
10 -2 10 -8 0 -33 47 -33 63 0 6 -8 16 -17 24 -11 9 -12 11 -3 7 11 -5 10 -1
-3 13 -18 20 -18 23 -2 47 10 14 21 26 26 26 5 0 8 3 7 8 -1 4 3 16 9 27 6 11
9 50 8 87 -2 51 -8 75 -26 100 -31 43 -45 58 -58 58 -6 0 -11 5 -11 10 0 6 -7
10 -15 10 -8 0 -15 4 -15 8 0 5 -13 8 -30 7 -16 -1 -27 1 -25 5 2 3 -14 6 -35
6 -21 -1 -36 -4 -33 -8z m63 -109 c0 -6 9 -8 20 -4 11 4 19 3 18 -2 -2 -4 0
-8 4 -8 23 0 56 -89 37 -101 -5 -3 -7 -9 -4 -14 8 -13 -43 -60 -68 -61 -12 -1
-31 -2 -42 -3 -11 -1 -34 13 -51 31 -41 43 -42 91 -2 135 15 17 28 29 28 25 0
-3 10 -2 23 3 30 12 37 12 37 -1z m708 2 c1 -1 3 0 5 1 8 5 47 -25 47 -37 0
-8 6 -15 14 -15 9 0 13 -12 11 -45 -4 -63 -43 -102 -103 -99 -42 1 -82 28 -82
54 0 5 -4 10 -8 10 -13 0 -12 43 1 59 10 12 9 13 -2 6 -11 -6 -10 -2 2 16 27
37 80 60 115 50z m608 -12 c6 -5 14 -6 17 -2 4 3 7 -5 7 -18 0 -19 2 -21 10
-9 8 13 10 12 11 -5 1 -11 1 -23 0 -27 0 -5 3 -8 7 -8 7 0 8 -34 2 -50 -1 -3
-2 -9 -1 -13 1 -5 -3 -6 -9 -2 -5 3 -10 -1 -10 -9 0 -9 -6 -16 -14 -16 -8 0
-16 -6 -19 -13 -7 -18 -86 -15 -98 4 -5 8 -9 10 -9 4 0 -5 -9 3 -19 19 -11 17
-18 33 -15 38 3 4 1 8 -5 8 -16 0 0 49 29 87 13 17 20 19 30 10 9 -9 11 -9 6
0 -12 21 53 23 80 2z m674 13 c0 -4 9 -8 21 -9 28 -2 49 -21 49 -44 0 -11 4
-19 9 -19 10 0 8 -34 -5 -65 -13 -35 -49 -61 -80 -59 -16 1 -40 2 -53 3 -13 0
-22 4 -19 7 3 3 -5 17 -18 31 -15 17 -22 33 -18 45 3 11 0 18 -8 18 -11 0 -11
2 0 9 8 4 12 11 10 14 -7 12 44 68 58 63 8 -3 14 -2 14 2 0 4 9 8 20 9 11 1
20 -2 20 -5z m-2539 -681 c13 -2 46 -37 54 -56 13 -33 14 -45 3 -75 -17 -51
-87 -80 -133 -56 -11 5 -23 9 -27 8 -5 -1 -8 4 -8 12 0 8 -7 16 -15 20 -9 3
-12 12 -8 22 3 9 0 19 -6 24 -10 5 -10 10 1 21 7 8 14 21 16 29 9 38 66 62
123 51z m899 -2 c0 -5 3 -8 8 -7 15 3 42 -15 42 -28 0 -8 5 -14 10 -14 6 0 10
-20 10 -45 0 -25 -5 -45 -11 -45 -5 0 -8 -4 -5 -9 8 -12 -44 -45 -67 -44 -11
1 -15 -3 -11 -10 5 -8 3 -8 -7 1 -7 6 -20 12 -29 12 -9 0 -27 12 -41 26 -33
36 -34 102 0 138 13 14 28 23 32 20 5 -3 9 -1 9 4 0 5 14 9 30 10 17 0 30 -4
30 -9z m1298 -6 c8 -7 17 -11 21 -9 10 7 43 -52 36 -64 -3 -6 0 -10 7 -10 9 0
10 -3 2 -8 -6 -4 -10 -15 -8 -24 1 -10 -2 -18 -7 -18 -5 0 -8 -3 -6 -7 1 -5
-2 -10 -8 -12 -5 -2 -15 -10 -20 -18 -12 -16 -85 -26 -85 -11 0 5 -4 7 -8 4
-18 -11 -58 39 -53 67 0 4 -3 7 -8 7 -15 0 -4 39 21 76 17 25 26 30 36 22 7
-6 12 -7 11 -2 -1 5 -1 12 0 15 2 11 56 5 69 -8z m902 5 c0 -4 9 -8 21 -8 15
0 19 -5 15 -16 -3 -8 -2 -13 3 -10 11 7 24 -21 26 -59 2 -34 -22 -78 -38 -68
-6 3 -7 1 -3 -6 13 -20 -69 -37 -91 -19 -7 6 -13 7 -13 4 0 -4 -7 -1 -15 8 -8
8 -15 19 -15 24 0 6 -4 12 -9 14 -19 6 -21 61 -4 89 9 15 20 26 25 23 4 -3 8
2 8 11 0 9 4 14 8 11 4 -2 14 -1 22 4 18 11 60 9 60 -2z"/>
<path d="M1529 3553 c-13 -16 -12 -17 4 -4 9 7 17 15 17 17 0 8 -8 3 -21 -13z"/>
<path d="M1107 2424 c-2 -2 -19 -5 -39 -8 -20 -2 -45 -9 -56 -15 -11 -6 -22
-7 -26 -4 -3 3 -6 1 -6 -5 0 -7 -7 -12 -15 -12 -8 0 -15 -5 -15 -11 0 -6 -7
-9 -15 -5 -8 3 -14 0 -12 -7 1 -7 -4 -11 -11 -9 -8 1 -11 -2 -7 -8 3 -5 3 -10
-2 -10 -10 0 -64 -96 -57 -102 2 -3 0 -17 -5 -31 -7 -18 -7 -27 2 -31 9 -3 8
-5 -1 -5 -8 -1 -10 -6 -6 -13 4 -6 9 -28 10 -47 1 -20 7 -37 13 -39 6 -2 11
-10 11 -18 0 -8 5 -14 11 -14 5 0 7 -4 4 -10 -3 -5 -1 -10 6 -10 6 0 20 -10
30 -22 11 -11 19 -17 19 -12 0 5 4 3 8 -4 5 -7 19 -15 32 -17 13 -2 26 -8 29
-12 6 -8 24 -14 53 -16 10 -1 18 -4 18 -7 0 -3 14 -7 32 -8 18 -2 35 -6 38
-10 3 -4 16 -8 30 -10 14 -1 31 -3 38 -4 6 -1 12 -5 12 -10 0 -4 7 -8 15 -8
24 0 35 -32 19 -60 -7 -14 -13 -21 -14 -16 0 5 -6 4 -12 -2 -17 -13 -124 -8
-142 8 -9 6 -20 9 -25 6 -5 -4 -13 -1 -16 5 -4 5 -13 8 -21 5 -8 -3 -14 -1
-14 4 0 6 -5 10 -10 10 -10 0 -26 11 -53 36 -17 17 -39 6 -67 -31 -14 -19 -30
-33 -37 -30 -7 2 -10 -2 -7 -10 3 -8 -3 -22 -15 -31 -11 -10 -18 -21 -15 -26
3 -4 0 -8 -6 -8 -6 0 6 -15 26 -34 21 -19 42 -33 46 -30 4 3 8 1 8 -4 0 -9 32
-24 58 -26 7 -1 16 -6 20 -11 6 -9 18 -14 47 -19 6 -1 16 -6 24 -10 10 -7 12
-6 6 4 -6 10 -4 11 6 4 20 -12 36 -15 114 -15 81 -1 125 4 143 14 6 5 17 5 22
2 6 -3 10 -1 10 4 0 6 3 10 8 9 13 -3 62 25 62 35 0 6 3 8 6 4 18 -18 93 110
86 146 -1 4 2 7 7 7 6 0 6 12 1 30 -5 17 -5 30 0 30 11 0 -10 71 -27 91 -7 8
-13 21 -13 28 0 7 -4 10 -9 7 -5 -3 -11 4 -14 15 -3 12 -10 18 -16 14 -6 -3
-11 -1 -11 5 0 6 -4 8 -10 5 -5 -3 -10 -2 -10 4 0 6 -11 13 -25 17 -14 3 -25
10 -25 16 0 5 -4 6 -10 3 -5 -3 -19 -1 -31 5 -11 7 -30 13 -42 16 -50 9 -66
13 -108 25 -24 7 -53 22 -64 33 -22 23 -26 53 -7 49 7 -2 12 3 12 10 0 9 16
13 55 13 30 0 55 -3 55 -7 0 -4 8 -8 18 -8 38 1 136 -47 127 -62 -4 -5 5 -4
19 2 14 7 23 15 21 19 -2 4 5 16 15 28 11 12 20 25 20 29 0 4 14 23 30 42 24
27 28 37 19 52 -5 11 -13 17 -18 15 -4 -3 -13 3 -21 14 -7 10 -20 16 -28 12
-11 -4 -13 -2 -7 8 6 10 4 12 -8 7 -10 -3 -17 -2 -17 3 0 6 -8 10 -18 10 -10
0 -22 3 -26 7 -14 14 -217 38 -229 27z"/>
<path d="M1966 2421 c-3 -5 -23 -7 -44 -5 -37 4 -39 3 -61 -49 -13 -28 -23
-58 -22 -64 1 -7 -3 -13 -9 -13 -5 0 -10 -6 -10 -14 0 -7 -7 -26 -14 -42 -8
-15 -13 -31 -10 -36 3 -4 0 -8 -5 -8 -6 0 -11 -9 -11 -20 0 -11 -5 -20 -12
-20 -6 0 -8 -3 -5 -6 3 -4 1 -16 -5 -28 -7 -11 -13 -27 -14 -35 -2 -8 -9 -18
-16 -22 -7 -5 -10 -9 -5 -9 4 0 -2 -18 -13 -40 -11 -22 -18 -40 -15 -40 3 0 0
-10 -7 -22 -7 -13 -11 -26 -10 -30 1 -5 -3 -8 -9 -8 -6 0 -8 -7 -5 -16 3 -8 2
-12 -4 -9 -6 3 -11 -1 -11 -9 -2 -21 -3 -26 -19 -61 -7 -16 -13 -33 -12 -37 1
-5 -2 -8 -8 -8 -6 0 -9 -3 -8 -7 1 -5 -3 -18 -10 -29 -6 -12 -8 -24 -5 -28 3
-3 1 -6 -6 -6 -7 0 -9 -5 -6 -10 3 -6 -1 -17 -9 -26 -9 -9 -14 -20 -11 -25 4
-5 2 -9 -3 -9 -5 0 -9 -7 -9 -15 0 -8 4 -12 9 -9 4 3 8 0 8 -7 0 -9 3 -9 14 0
11 9 15 9 19 -1 4 -10 6 -10 6 1 1 11 4 11 16 1 12 -10 15 -10 15 0 0 10 3 10
15 0 12 -10 15 -10 15 0 0 10 3 10 15 0 12 -10 15 -10 15 0 0 10 3 10 15 0 12
-10 15 -10 15 0 0 8 4 9 13 3 6 -5 18 -8 25 -7 6 1 17 2 23 3 5 0 7 6 4 11 -3
6 -1 10 5 10 6 0 8 5 5 10 -3 6 -2 10 2 10 5 0 15 20 22 45 7 25 17 45 23 45
5 0 7 3 5 8 -8 11 257 9 265 -3 5 -6 8 -5 8 2 0 7 7 10 15 7 8 -4 15 -14 15
-24 0 -11 4 -21 9 -25 5 -3 12 -19 16 -36 10 -42 41 -70 69 -59 13 4 29 4 39
-1 11 -7 17 -6 17 0 0 7 8 7 26 1 18 -7 23 -7 18 1 -4 8 0 8 15 0 12 -7 21 -8
21 -2 0 6 12 6 31 1 18 -5 29 -7 25 -3 -3 3 -1 12 5 20 9 9 8 13 0 13 -6 0
-11 7 -11 15 0 8 -4 23 -9 33 -13 24 -45 96 -47 105 -1 4 -3 10 -4 15 -1 4 -2
10 -1 15 0 4 -3 7 -9 7 -5 0 -10 9 -10 20 0 11 -5 20 -11 20 -6 0 -9 7 -5 15
3 8 1 15 -5 15 -6 0 -7 5 -4 10 3 6 1 10 -4 10 -6 0 -11 6 -11 14 0 8 -13 44
-30 81 -16 37 -30 73 -30 81 0 8 -5 14 -11 14 -6 0 -9 7 -5 15 3 8 1 15 -4 15
-6 0 -10 6 -10 13 0 6 -13 38 -28 69 -15 31 -25 55 -21 52 4 -2 -4 17 -16 44
-13 26 -29 61 -36 79 -9 21 -19 30 -31 28 -10 -2 -20 1 -24 6 -3 6 -11 6 -17
1 -14 -10 -47 -10 -64 1 -6 4 -14 3 -17 -2z m39 -322 c-4 -5 -1 -9 4 -9 6 0
11 -5 11 -11 0 -5 -6 -7 -12 -3 -8 5 -8 1 1 -10 13 -16 61 -123 61 -137 0 -7
-148 -4 -156 3 -3 3 2 13 11 22 12 12 13 16 3 16 -8 0 -9 3 -2 8 9 6 22 31 25
50 0 4 5 13 11 20 6 7 8 15 5 19 -4 3 1 12 11 20 10 9 11 11 2 7 -13 -7 -13
-5 -1 9 13 17 36 14 26 -4z"/>
<path d="M2840 2419 c0 -3 -11 -5 -25 -4 -13 2 -29 -3 -35 -10 -6 -7 -20 -11
-30 -8 -12 3 -20 0 -20 -6 0 -7 -5 -9 -10 -6 -6 3 -12 0 -15 -7 -3 -8 -15 -14
-26 -15 -12 -1 -27 -10 -34 -20 -7 -10 -19 -18 -27 -18 -7 0 -13 -5 -13 -10 0
-10 -9 -22 -42 -60 -7 -7 -13 -18 -13 -24 0 -5 -10 -17 -22 -25 -12 -9 -17
-16 -10 -16 10 0 9 -6 -1 -27 -20 -39 -30 -82 -30 -123 1 -19 -4 -38 -11 -42
-8 -6 -8 -8 1 -8 8 0 11 -11 9 -30 -2 -16 0 -30 5 -30 4 0 6 -9 4 -20 -2 -11
0 -20 4 -20 5 0 9 -12 9 -27 0 -15 5 -29 11 -31 6 -2 11 -12 11 -23 0 -10 3
-19 8 -19 4 0 16 -12 26 -27 12 -16 14 -23 5 -18 -8 5 5 -10 29 -33 23 -23 47
-42 52 -42 6 0 10 -4 10 -9 0 -10 87 -54 108 -54 6 0 12 -3 12 -7 0 -13 158
-18 220 -8 59 11 110 28 110 38 0 6 3 9 8 8 13 -4 53 23 47 32 -3 6 1 7 9 4 9
-3 16 -1 16 6 0 6 4 8 10 5 6 -4 7 1 3 11 -4 11 -3 15 5 10 6 -4 16 3 23 16 7
13 16 26 22 29 18 12 -1 37 -52 71 -28 18 -51 36 -51 41 0 4 -5 5 -10 2 -6 -3
-13 0 -16 8 -8 22 -39 15 -76 -18 -19 -16 -40 -31 -48 -33 -8 -2 -18 -9 -22
-15 -4 -7 -8 -7 -8 -2 0 6 -5 3 -10 -5 -7 -11 -10 -11 -10 -2 0 9 -5 10 -19 2
-12 -6 -22 -6 -26 -1 -3 6 -14 8 -25 6 -11 -2 -22 1 -25 6 -4 5 -10 7 -15 4
-11 -7 -90 70 -90 89 0 9 -4 16 -8 16 -8 0 -10 12 -12 80 -3 107 56 190 145
206 54 10 99 3 125 -18 10 -9 21 -14 24 -11 3 3 8 -2 12 -11 3 -9 10 -16 16
-16 5 0 17 -7 25 -16 13 -13 17 -13 24 -2 5 7 9 9 9 4 0 -5 9 1 20 14 11 13
20 19 20 15 0 -5 6 -1 13 10 9 11 19 15 27 10 8 -5 11 -4 7 2 -4 6 2 18 13 28
11 10 20 15 20 11 0 -4 6 -1 14 6 10 10 11 20 4 41 -6 15 -12 26 -15 24 -2 -3
-20 11 -39 30 -39 39 -127 83 -173 86 -17 1 -31 5 -31 8 0 3 -34 5 -75 5 -41
-1 -75 -4 -75 -7z"/>
<path d="M3557 2424 c-4 -5 -13 -9 -20 -10 -48 -10 -61 -15 -67 -25 -4 -6 -9
-9 -11 -8 -9 7 -67 -35 -62 -45 4 -5 -1 -7 -11 -3 -9 4 -15 3 -12 -2 3 -5 -4
-20 -15 -35 -11 -14 -18 -26 -15 -26 3 0 -1 -15 -8 -32 -16 -40 -14 -142 4
-163 7 -9 8 -15 2 -15 -10 0 68 -87 78 -88 24 0 30 -4 24 -14 -4 -6 -3 -8 3
-5 5 3 21 0 36 -8 14 -7 28 -11 31 -8 3 3 13 0 22 -8 10 -8 19 -13 21 -11 1 1
4 2 6 1 1 0 16 -3 32 -5 17 -3 31 -9 33 -15 2 -5 12 -4 24 2 15 8 19 8 14 0
-6 -10 13 -16 37 -12 4 0 7 -4 7 -10 0 -5 4 -8 9 -5 11 7 31 -16 35 -40 3 -17
-15 -45 -29 -44 -29 1 -35 -1 -29 -12 5 -7 3 -8 -7 -2 -8 4 -30 9 -49 10 -32
2 -71 9 -77 14 -2 2 -6 3 -10 4 -5 1 -18 7 -30 14 -13 7 -23 9 -23 5 0 -4 -4
-3 -8 2 -10 15 -59 45 -73 45 -14 0 -63 -50 -87 -89 -9 -15 -21 -29 -27 -30
-18 -2 -10 -44 10 -55 11 -6 24 -17 28 -24 5 -7 12 -10 18 -7 5 4 9 1 9 -4 0
-6 7 -11 15 -11 8 0 15 -5 15 -11 0 -5 3 -8 8 -6 4 3 18 0 32 -6 28 -11 47
-16 73 -19 9 -1 17 -5 17 -8 0 -7 22 -9 120 -10 107 -1 140 2 140 13 0 6 3 7
7 4 3 -4 17 0 30 8 13 9 23 11 23 5 0 -25 98 74 128 129 25 48 27 55 12 46 -5
-3 -10 -1 -10 4 0 6 4 11 9 11 13 0 4 119 -10 136 -6 8 -9 14 -6 14 3 0 -5 11
-19 25 -14 14 -22 30 -18 37 4 7 3 8 -4 4 -7 -4 -29 6 -49 21 -20 15 -34 23
-30 16 4 -6 -11 -3 -32 8 -22 10 -49 19 -60 19 -11 0 -23 5 -26 10 -9 15 -27
12 -20 -2 4 -7 1 -6 -7 3 -7 9 -21 15 -32 13 -10 -1 -26 1 -35 6 -24 13 -55
23 -63 22 -5 -1 -8 1 -9 6 0 4 -2 17 -5 28 -13 71 114 67 259 -8 37 -19 39
-19 52 -2 8 11 15 25 15 32 0 7 5 10 10 7 6 -3 10 -1 10 5 0 6 4 9 9 6 5 -4 7
3 4 14 -3 11 -1 20 5 20 5 0 17 11 26 25 13 19 14 29 5 49 -7 14 -15 23 -20
21 -4 -3 -14 1 -22 9 -8 8 -17 12 -21 9 -3 -4 -6 -1 -6 6 0 7 -4 10 -9 7 -5
-4 -11 -2 -13 4 -1 5 -12 11 -23 13 -11 1 -26 6 -32 10 -7 5 -13 6 -13 2 0 -3
-14 2 -31 11 -19 9 -28 11 -24 4 5 -9 1 -10 -16 -5 -38 13 -113 13 -128 1 -12
-9 -13 -8 -6 4 7 13 6 13 -7 2 -11 -9 -17 -9 -20 -2 -2 6 -7 8 -11 4z"/>
<path d="M0 2105 c1 -183 5 -307 11 -310 5 -4 7 -11 4 -16 -4 -5 -1 -9 4 -9 6
0 11 -5 11 -11 0 -18 54 -89 68 -89 6 0 12 -4 12 -8 0 -10 60 -45 60 -35 0 4
4 2 8 -4 4 -7 19 -15 32 -17 14 -2 25 -5 25 -6 0 -12 163 -16 230 -5 28 5 53
8 58 7 4 -1 7 3 7 8 0 6 12 10 26 10 14 0 23 4 19 10 -3 6 0 10 8 10 16 0 97
74 97 89 0 6 8 15 18 20 9 6 13 11 8 11 -4 0 -2 10 6 23 8 12 13 32 12 45 -1
12 2 22 6 22 4 0 7 18 8 41 1 22 4 45 8 50 3 5 1 9 -5 9 -7 0 -7 8 -2 23 5 14
5 30 0 40 -6 9 -6 17 -2 17 9 0 9 98 0 107 -3 3 -2 16 3 29 6 15 6 24 0 24 -6
0 -6 9 -1 23 5 14 5 30 0 40 -6 9 -6 17 -2 17 9 0 9 98 0 107 -3 3 -3 11 0 19
4 11 -17 13 -113 11 l-118 -2 -1 -255 c-1 -263 -4 -282 -44 -321 -9 -8 -32
-21 -50 -27 -42 -15 -44 -15 -35 -1 4 8 1 8 -12 2 -11 -5 -23 -9 -29 -8 -36 6
-87 47 -93 75 -2 8 -9 18 -15 22 -8 5 -7 8 3 8 9 0 11 3 4 8 -7 5 -10 85 -10
237 1 127 0 237 -2 246 -3 14 -20 17 -113 18 l-110 0 1 -304z"/>
<path d="M1953 1424 c-18 -9 -33 -20 -33 -25 0 -5 -7 -9 -15 -9 -8 0 -15 -4
-15 -10 0 -5 -6 -10 -14 -10 -8 0 -16 -7 -20 -15 -3 -8 -12 -15 -21 -15 -8 0
-15 -5 -15 -11 0 -5 -4 -8 -9 -5 -5 3 -14 -1 -21 -9 -7 -8 -17 -15 -22 -15 -9
0 -23 -10 -58 -42 -10 -9 -20 -14 -23 -12 -2 2 -15 -6 -29 -19 -14 -13 -30
-21 -36 -19 -7 2 -12 -1 -12 -7 0 -6 -16 -19 -35 -28 -19 -9 -35 -20 -35 -25
0 -4 -7 -8 -15 -8 -8 0 -15 -4 -15 -9 0 -13 -33 -7 -38 7 -2 7 -8 10 -13 6 -5
-3 -9 0 -9 6 0 6 -4 8 -10 5 -5 -3 -10 -2 -10 4 0 10 -9 12 -75 12 -65 1 -125
-20 -125 -43 0 -6 -3 -8 -6 -5 -7 6 -53 -40 -55 -55 -1 -5 -2 -13 -3 -18 0 -6
-6 -14 -13 -18 -18 -12 -502 -7 -514 5 -5 5 -11 19 -12 31 0 12 -3 19 -5 17
-3 -2 -13 7 -24 20 -11 14 -26 25 -34 25 -8 0 -13 4 -10 9 6 9 -18 19 -64 28
-13 2 -29 8 -35 13 -7 6 -15 6 -22 -1 -5 -5 -21 -11 -34 -13 -13 -1 -33 -6
-44 -11 -29 -13 -84 -65 -90 -87 -4 -10 -10 -16 -14 -14 -4 3 -7 -8 -6 -25 1
-16 -2 -32 -6 -35 -5 -2 -4 -16 1 -30 6 -16 6 -23 0 -19 -5 3 -2 -15 7 -41 17
-50 86 -127 118 -132 11 -2 27 -4 35 -6 9 -1 21 -5 28 -10 7 -4 12 -2 12 5 0
10 3 10 12 1 8 -8 17 -8 30 -1 10 5 23 7 28 4 6 -3 10 -2 10 4 0 5 9 13 20 16
22 7 90 65 77 65 -5 0 1 12 12 26 11 15 18 31 15 36 -3 5 15 8 46 5 28 -2 53
0 55 3 5 8 73 5 81 -3 4 -3 17 -2 29 3 14 5 37 5 54 0 16 -4 32 -6 34 -4 5 5
71 7 163 5 36 -1 42 -4 54 -36 8 -19 17 -35 21 -35 4 0 9 -9 12 -20 3 -11 1
-20 -3 -20 -8 0 -34 -59 -31 -72 0 -5 -4 -8 -9 -8 -6 0 -10 -7 -10 -15 0 -8
-4 -15 -10 -15 -5 0 -10 -5 -10 -11 0 -5 6 -7 13 -4 6 4 3 -1 -7 -9 -11 -9
-16 -16 -10 -16 5 0 5 -3 -1 -8 -5 -4 -19 -25 -30 -47 -11 -22 -24 -43 -30
-47 -5 -4 -6 -8 -2 -8 4 0 2 -10 -5 -22 -7 -13 -12 -25 -11 -28 1 -3 -25 -6
-57 -7 -34 -1 -68 -8 -82 -17 -14 -9 -28 -14 -31 -11 -4 3 -5 2 -3 -1 2 -3
-12 -21 -32 -40 -19 -19 -31 -34 -27 -34 5 0 4 -5 -3 -12 -7 -7 -12 -20 -12
-30 0 -10 -4 -18 -8 -18 -4 0 -8 -9 -8 -20 0 -11 3 -20 6 -20 3 0 6 -15 7 -34
1 -19 8 -47 16 -62 19 -36 63 -84 77 -84 5 0 10 -4 10 -8 0 -8 32 -14 82 -16
14 -1 24 -4 21 -8 -7 -13 11 -8 31 7 14 10 23 12 32 4 9 -7 15 -5 23 8 6 10
11 15 11 10 0 -4 19 12 43 35 24 24 41 48 39 54 -2 6 3 18 10 25 14 15 18 112
5 125 -4 4 -7 16 -7 26 0 10 -5 18 -12 18 -6 0 -8 3 -5 6 3 4 -5 15 -18 26
l-24 19 42 82 c23 45 47 85 52 89 6 4 6 8 1 8 -5 0 -3 6 3 13 6 8 8 17 4 20
-3 4 -2 7 4 7 6 0 20 22 32 49 22 52 36 68 45 52 5 -8 65 -5 75 4 5 6 31 -22
31 -34 0 -6 4 -11 10 -11 5 0 7 -7 4 -15 -4 -8 -1 -15 6 -15 6 0 8 -4 5 -10
-3 -5 -1 -10 5 -10 7 0 10 -7 6 -15 -3 -8 0 -18 7 -22 16 -11 37 -49 37 -68 0
-8 4 -15 8 -15 4 0 16 -20 26 -45 11 -25 24 -45 29 -45 6 0 2 -7 -9 -16 -10
-8 -12 -13 -4 -9 8 4 3 -5 -12 -18 -15 -14 -24 -28 -21 -31 3 -3 0 -13 -7 -21
-7 -9 -14 -35 -14 -58 -1 -23 -6 -49 -11 -56 -5 -10 -4 -12 3 -7 8 5 12 0 12
-13 0 -12 5 -21 11 -21 5 0 7 -4 4 -10 -3 -5 -1 -10 5 -10 6 0 9 -3 6 -8 -2
-4 2 -16 10 -27 8 -10 14 -16 14 -12 0 5 6 2 14 -5 8 -7 11 -17 8 -22 -3 -5 0
-6 6 -2 6 3 15 -2 21 -11 6 -10 11 -14 11 -9 0 5 7 3 15 -4 11 -9 15 -9 15 -1
0 7 17 3 42 -10 27 -14 38 -16 31 -7 -10 12 -7 14 17 12 17 -1 30 3 30 8 0 6
7 8 15 4 8 -3 15 -1 15 5 0 6 5 7 10 4 6 -3 10 -1 10 6 0 7 3 10 6 6 8 -8 33
16 27 26 -2 4 0 7 5 7 12 0 45 50 45 67 0 7 4 13 9 13 5 0 6 9 3 20 -4 12 -2
20 5 20 7 0 8 6 2 17 -5 10 -8 28 -7 41 1 13 -2 25 -7 28 -4 3 -6 10 -3 15 4
5 1 9 -4 9 -6 0 -11 5 -11 11 0 17 -63 74 -98 88 -40 17 -104 20 -114 6 -5 -6
-8 -3 -8 8 0 9 -5 17 -11 17 -5 0 -8 4 -5 9 3 5 -1 14 -9 21 -8 7 -12 16 -9
21 3 5 0 9 -6 9 -6 0 -8 5 -5 10 3 6 1 10 -5 10 -6 0 -8 5 -5 10 3 6 1 10 -5
10 -6 0 -8 5 -5 10 3 6 1 10 -4 10 -6 0 -11 9 -11 20 0 11 -4 20 -10 20 -5 0
-10 9 -10 20 0 11 -4 20 -8 20 -5 0 -15 18 -22 40 -7 22 -17 40 -21 40 -4 0
-6 8 -4 18 2 9 4 21 4 25 1 5 5 6 10 3 7 -5 17 8 26 34 1 3 7 18 14 34 6 16
10 35 7 43 -3 7 -1 13 5 13 6 0 7 6 2 13 -21 34 -5 84 23 73 8 -3 13 0 11 7
-1 7 4 11 11 9 6 -1 12 5 12 13 0 9 6 12 17 8 11 -4 14 -3 9 5 -4 7 -1 12 8
12 9 0 25 9 35 19 11 11 22 17 25 14 3 -3 8 2 12 11 3 9 9 14 14 11 4 -2 16 5
28 15 12 11 25 20 30 20 5 0 17 9 27 20 10 11 22 17 26 14 5 -3 9 -1 9 5 0 5
8 12 19 16 10 3 30 16 43 28 13 12 37 28 53 35 26 12 31 11 42 -4 7 -10 13
-14 13 -10 0 4 16 -5 35 -20 19 -14 35 -22 35 -18 0 5 5 1 11 -8 5 -10 17 -18
24 -18 8 0 15 -4 15 -10 0 -5 7 -10 16 -10 8 0 12 -4 9 -10 -3 -5 3 -10 14
-10 12 0 21 -4 21 -10 0 -5 7 -10 15 -10 8 0 15 -4 15 -10 0 -5 7 -10 15 -10
8 0 15 -4 15 -10 0 -5 7 -10 15 -10 8 0 15 -4 15 -10 0 -5 7 -10 15 -10 8 0
15 -5 15 -11 0 -5 5 -7 10 -4 6 3 10 1 10 -4 0 -6 7 -11 15 -11 9 0 18 -7 21
-15 4 -8 11 -15 18 -15 15 0 46 -37 38 -45 -10 -10 -10 -105 0 -105 4 0 8 -8
8 -18 0 -11 8 -27 19 -36 16 -14 17 -21 7 -41 -6 -14 -14 -25 -18 -25 -5 0 -8
-6 -8 -12 0 -7 -16 -44 -35 -81 -19 -38 -35 -75 -35 -83 0 -8 -4 -12 -10 -9
-5 3 -11 1 -11 -4 -4 -31 -30 -81 -42 -81 -5 0 -7 -6 -4 -14 5 -11 0 -13 -24
-6 -16 5 -32 9 -34 9 -3 1 -21 -5 -40 -13 -19 -8 -35 -13 -35 -10 0 3 -10 -4
-22 -16 -12 -11 -26 -20 -32 -20 -5 0 -7 -3 -4 -6 3 -3 -5 -17 -18 -31 -14
-15 -22 -33 -20 -40 3 -7 0 -13 -5 -13 -6 0 -9 -9 -6 -20 3 -10 0 -21 -7 -24
-8 -3 -7 -7 3 -14 8 -6 9 -12 3 -16 -11 -6 -4 -54 9 -62 5 -3 9 -14 9 -25 0
-11 4 -17 10 -14 6 3 10 1 10 -5 0 -14 57 -69 74 -72 6 0 16 -2 21 -2 6 -1 21
-8 34 -15 13 -7 26 -9 30 -5 3 5 20 10 36 11 56 5 64 7 70 21 3 7 9 10 15 7 5
-3 10 -1 10 5 0 6 5 8 10 5 9 -6 14 8 11 28 -1 7 15 11 32 8 5 -1 6 3 2 9 -4
6 -1 17 5 25 7 8 9 15 5 15 -4 0 -2 7 5 15 13 15 22 85 11 85 -4 0 -8 9 -9 20
-1 11 -2 27 -3 35 -1 8 -14 29 -29 47 l-27 32 40 80 c23 45 40 84 39 89 -1 4
3 7 9 7 5 0 7 5 4 10 -3 6 -1 10 4 10 6 0 11 6 11 14 0 7 11 30 25 50 14 21
20 34 13 30 -10 -6 -11 -5 -1 8 7 8 11 17 8 19 -2 3 7 5 20 5 14 0 25 -3 25
-7 0 -4 15 -4 33 1 22 4 37 3 45 -6 9 -10 9 -14 -1 -17 -7 -3 -4 -6 6 -6 10
-1 16 -5 12 -10 -3 -5 -1 -12 5 -16 6 -4 8 -11 5 -16 -4 -5 -3 -9 2 -9 4 0 13
-11 20 -25 8 -19 8 -23 0 -18 -7 3 0 -5 16 -20 28 -27 37 -53 15 -42 -7 4 -4
-2 7 -12 11 -10 19 -26 17 -37 -2 -10 0 -16 5 -13 15 10 40 -58 31 -82 -5 -14
-12 -19 -20 -15 -8 5 -9 2 -5 -9 3 -10 3 -17 -2 -17 -15 0 -33 -77 -27 -116 9
-64 18 -94 27 -94 5 0 9 -7 9 -15 0 -8 7 -15 16 -15 8 0 12 -4 9 -10 -3 -5 1
-10 9 -10 9 0 16 -4 16 -9 0 -5 14 -16 30 -25 17 -8 28 -10 25 -5 -4 5 -1 9 4
9 6 0 11 -4 11 -9 0 -8 88 -7 125 3 11 2 24 5 28 5 5 1 5 6 2 11 -6 9 8 14 28
11 4 0 7 3 7 8 0 6 11 22 25 37 14 15 25 35 25 45 0 10 4 20 9 23 8 5 7 40 -1
124 -1 6 -5 12 -10 12 -5 0 -6 5 -3 10 3 6 1 10 -4 10 -6 0 -11 5 -11 10 0 13
-72 81 -79 75 -2 -3 -13 2 -23 12 -12 10 -18 12 -18 4 0 -7 -5 -9 -12 -5 -19
12 -70 15 -63 4 3 -5 0 -7 -9 -4 -18 7 -28 32 -19 47 3 7 3 9 -2 5 -8 -8 -57
76 -58 100 0 6 -4 12 -9 12 -4 0 -8 9 -8 20 0 11 -4 20 -9 20 -5 0 -13 10 -16
23 -4 12 -14 33 -23 47 -19 30 -28 75 -12 65 5 -3 10 1 10 9 0 9 7 16 15 16 9
0 12 6 9 15 -4 8 -2 15 4 15 5 0 9 8 8 17 -1 13 7 18 29 19 17 0 35 2 40 5 13
7 73 4 81 -4 3 -3 17 -2 30 3 15 6 26 6 30 -1 3 -6 11 -6 17 -1 13 9 74 9 83
-1 3 -3 17 -2 29 3 13 5 36 6 52 1 15 -4 42 -4 58 -1 43 9 53 3 77 -44 24 -48
58 -86 76 -86 6 0 12 -5 12 -11 0 -5 4 -8 9 -5 5 3 25 -1 45 -9 21 -9 36 -11
36 -5 0 12 22 9 32 -5 5 -6 8 -5 8 2 0 7 7 10 15 7 8 -4 15 -1 15 6 0 6 4 9 9
5 5 -3 12 -1 16 5 3 5 21 17 40 26 19 9 33 21 32 27 -1 7 4 11 11 9 8 -1 11 2
6 9 -3 6 -2 14 4 18 7 4 13 16 15 26 1 11 5 25 8 30 10 16 2 94 -10 109 -6 7
-8 16 -5 19 4 3 -7 18 -22 33 -16 14 -20 20 -9 13 20 -14 20 -13 1 9 -11 12
-25 22 -33 22 -8 0 -11 5 -8 10 3 6 -2 10 -13 10 -10 0 -22 3 -26 7 -9 9 -33
13 -81 13 -73 -1 -95 -5 -95 -17 0 -7 -6 -13 -13 -13 -15 0 -61 -52 -80 -90
l-12 -24 -253 0 c-205 0 -255 3 -262 14 -5 8 -6 18 -4 22 3 4 0 8 -5 8 -6 0
-11 4 -11 10 0 13 -32 50 -43 50 -5 0 -15 6 -23 14 -20 21 -111 38 -133 26
-10 -5 -21 -7 -24 -4 -3 3 -16 0 -29 -7 -12 -7 -27 -14 -33 -14 -5 -1 -9 -6
-8 -13 2 -6 -5 -11 -15 -9 -19 3 -103 56 -114 72 -4 5 -8 7 -8 3 0 -5 -8 -1
-17 8 -10 9 -58 42 -108 74 -49 32 -95 63 -101 69 -7 5 -15 7 -18 4 -3 -4 -6
-1 -6 5 0 7 -5 12 -10 12 -6 0 -20 9 -32 20 -12 11 -28 20 -35 20 -8 0 -12 4
-9 8 3 5 0 9 -7 10 -7 0 -21 3 -32 6 -11 3 -35 -1 -52 -10z m-1523 -368 c0 24
51 11 84 -22 28 -28 32 -39 30 -73 -4 -64 -59 -103 -131 -92 -13 2 -57 45 -71
70 -8 14 -9 20 -2 16 7 -4 9 2 6 19 -3 14 0 26 5 26 5 0 8 3 8 8 -3 19 2 33
11 27 6 -3 10 1 10 10 0 9 4 14 9 10 5 -3 13 0 17 6 4 8 9 7 15 -2 5 -8 9 -9
9 -3z m960 5 c3 -3 14 -11 25 -18 11 -6 19 -16 18 -22 -2 -6 2 -11 7 -11 5 0
10 -20 10 -45 0 -28 -5 -45 -12 -45 -6 0 -8 -3 -5 -7 8 -7 -34 -39 -45 -35 -5
1 -8 -2 -8 -7 0 -11 -74 -2 -78 10 -2 5 -10 9 -18 9 -9 0 -12 5 -9 10 3 6 2
10 -2 10 -5 0 -14 14 -20 30 -6 17 -7 30 -2 30 4 0 6 6 3 14 -3 9 8 30 27 49
26 27 40 34 68 34 20 -1 38 -3 41 -6z m1295 -7 c26 -11 46 -30 38 -38 -4 -3
-2 -6 3 -6 6 0 11 -18 12 -40 2 -23 -2 -40 -8 -40 -5 0 -9 -3 -8 -7 3 -15 -14
-43 -22 -38 -5 3 -11 1 -15 -5 -4 -6 -11 -8 -16 -5 -5 4 -9 2 -9 -4 0 -5 -12
-7 -27 -4 -16 3 -34 6 -40 6 -7 0 -11 2 -9 5 3 2 -9 17 -24 34 -24 25 -28 34
-19 50 6 11 7 18 2 15 -5 -4 -10 0 -10 8 0 8 4 12 9 9 4 -3 8 2 8 11 0 47 75
75 135 49z m918 -4 c39 -32 53 -86 33 -132 -18 -40 -112 -71 -123 -41 -5 11
-7 12 -14 2 -9 -15 -55 56 -52 81 4 43 11 59 36 82 31 29 90 33 120 8z m-2593
-674 c0 -7 3 -6 9 2 6 10 15 6 37 -17 57 -61 29 -159 -48 -167 -18 -2 -39 -6
-45 -9 -7 -2 -13 3 -13 11 0 9 -6 14 -13 11 -20 -8 -49 43 -48 83 2 54 42 98
84 91 4 0 7 3 7 9 0 5 7 7 15 4 8 -4 15 -11 15 -18z m1970 14 c0 13 1 13 10 0
5 -8 10 -11 10 -7 0 5 6 5 13 0 6 -4 15 -8 18 -8 8 0 35 -29 37 -40 1 -5 5
-18 8 -27 7 -23 -15 -100 -26 -93 -6 4 -10 1 -10 -5 0 -6 -4 -8 -10 -5 -5 3
-10 1 -10 -4 0 -17 -65 -13 -99 6 -26 16 -37 34 -47 81 -1 6 2 12 7 12 6 0 8
4 5 9 -7 11 19 63 27 54 4 -3 7 -2 7 4 0 6 7 14 16 17 10 4 13 1 9 -7 -3 -6 0
-4 7 5 9 13 14 14 20 5 6 -9 8 -8 8 3z m-1218 -34 c15 -16 25 -32 23 -37 -3
-4 -1 -10 4 -13 10 -7 3 -44 -12 -63 -5 -7 -6 -13 -1 -13 4 0 -1 -6 -11 -14
-11 -8 -23 -12 -27 -10 -5 3 -8 0 -8 -5 0 -6 -18 -11 -39 -11 -31 0 -46 7 -71
32 -20 20 -30 38 -27 50 3 10 0 18 -6 18 -9 0 -9 2 -1 8 6 4 10 15 8 25 -1 9
4 17 12 17 8 0 13 4 12 9 -5 18 37 39 76 37 31 -1 47 -8 68 -30z m548 24 c0
-5 3 -9 8 -8 4 2 18 -5 32 -15 13 -9 19 -17 12 -17 -10 0 -10 -4 1 -15 9 -8
14 -23 12 -32 -2 -10 -4 -25 -4 -34 -1 -20 -50 -71 -62 -63 -5 3 -9 1 -9 -4 0
-16 -66 3 -98 28 -23 18 -28 28 -20 37 7 9 7 13 -1 13 -6 0 -11 9 -11 20 0 11
5 20 11 20 6 0 8 9 4 21 -5 15 -4 19 4 15 6 -4 11 0 11 10 0 10 3 15 6 11 4
-3 12 0 19 6 15 16 85 21 85 7z"/>
</g>
</svg>
