<svg xmlns="http://www.w3.org/2000/svg" xmlns:xlink="http://www.w3.org/1999/xlink" width="1279.77209" height="670" viewBox="0 0 1279.77209 670"><defs><style>.cls-1{fill:none;}.cls-2{fill:#d8d8d8;}.cls-3{fill:url(#linear-gradient);}</style><linearGradient id="linear-gradient" x1="159" y1="335" x2="1107.96289" y2="335" gradientUnits="userSpaceOnUse"><stop offset="0" stop-color="#fff" stop-opacity="0"/><stop offset="0.06404" stop-color="#fff"/><stop offset="0.93103" stop-color="#fff"/><stop offset="1" stop-color="#fff" stop-opacity="0"/></linearGradient></defs><title>bg</title><g id="Layer_2" data-name="Layer 2"><g id="Layer_1-2" data-name="Layer 1"><circle class="cls-1" cx="176" cy="367.09265" r="3.90735"/><circle class="cls-1" cx="197" cy="237" r="3.90723"/><circle class="cls-1" cx="197" cy="404" r="3.90723"/><circle class="cls-1" cx="73.80457" cy="568.48132" r="3.90747"/><circle class="cls-1" cx="157.38428" cy="324.85681" r="3.90735"/><circle class="cls-1" cx="197" cy="176.60657" r="3.90735"/><path class="cls-1" d="M24.09277,634.59277A3.90723,3.90723,0,1,0,29.533,631H26.467A3.9126,3.9126,0,0,0,24.09277,634.59277Z"/><circle class="cls-1" cx="203.5" cy="332" r="3.90723"/><circle class="cls-1" cx="41" cy="608.90735" r="3.90735"/><circle class="cls-1" cx="181.90735" cy="486.05188" r="3.90747"/><circle class="cls-1" cx="11" cy="588.66956" r="3.90735"/><circle class="cls-1" cx="230" cy="455.05188" r="3.90735"/><circle class="cls-1" cx="206.90735" cy="63" r="3.90735"/><circle class="cls-1" cx="231.40735" cy="176.60657" r="3.90747"/><path class="cls-1" d="M51.09277,634.59277A3.90723,3.90723,0,1,0,56.533,631H53.467A3.9126,3.9126,0,0,0,51.09277,634.59277Z"/><circle class="cls-1" cx="206.90735" cy="42" r="3.90735"/><circle class="cls-1" cx="157.38428" cy="486.05188" r="3.90735"/><circle class="cls-1" cx="206.66699" cy="486.05188" r="3.90735"/><path class="cls-1" d="M0,311.3031v3.2926a3.86573,3.86573,0,0,0,.37646-1.64648A3.8643,3.8643,0,0,0,0,311.3031Z"/><circle class="cls-1" cx="11" cy="565.57385" r="3.90735"/><circle class="cls-1" cx="206.90735" cy="151.59265" r="3.90747"/><circle class="cls-1" cx="169.82275" cy="198.62048" r="3.90735"/><circle class="cls-1" cx="206.90735" cy="84.21448" r="3.90747"/><circle class="cls-1" cx="80.42786" cy="332.66992" r="3.90735"/><circle class="cls-1" cx="86.5094" cy="161.19958" r="3.90747"/><circle class="cls-1" cx="179.42859" cy="648" r="3.90735"/><circle class="cls-1" cx="55.90735" cy="144" r="3.90735"/><circle class="cls-1" cx="45.80554" cy="401.30237" r="3.90747"/><circle class="cls-1" cx="103.89465" cy="138.1543" r="3.90735"/><circle class="cls-1" cx="101" cy="186.80554" r="3.90735"/><path class="cls-1" d="M4.37646,312.94922a7.84775,7.84775,0,0,1-1.09839,4.00061l6.99292,6.99255,18.58789-18.58789-18.72-18.72046L0,296.77295v9.11139A7.90934,7.90934,0,0,1,4.37646,312.94922Z"/><circle class="cls-1" cx="97" cy="314.94934" r="3.90735"/><circle class="cls-1" cx="61.81482" cy="120.35291" r="3.90747"/><circle class="cls-1" cx="231.40735" cy="84.21448" r="3.90747"/><circle class="cls-1" cx="65" cy="455.05188" r="3.90735"/><circle class="cls-1" cx="28.94128" cy="457.05188" r="3.90747"/><circle class="cls-1" cx="11" cy="399.30237" r="3.90735"/><polygon class="cls-1" points="0 130.884 0 168 43 211 0 254 0 291.116 80.116 211 0 130.884"/><circle class="cls-1" cx="29.94128" cy="518.50061" r="3.90747"/><circle class="cls-1" cx="206.90735" cy="119.14319" r="3.90747"/><circle class="cls-1" cx="209" cy="625.54773" r="3.90735"/><circle class="cls-1" cx="231.40735" cy="403.85681" r="3.90747"/><circle class="cls-1" cx="149" cy="63" r="3.90723"/><circle class="cls-1" cx="230" cy="550.04089" r="3.90735"/><circle class="cls-1" cx="230.19006" cy="486.05188" r="3.90747"/><circle class="cls-1" cx="206.90735" cy="20" r="3.90735"/><circle class="cls-1" cx="230" cy="648" r="3.90723"/><circle class="cls-1" cx="231.40735" cy="206.73181" r="3.90747"/><circle class="cls-1" cx="179.42859" cy="602.75916" r="3.90747"/><path class="cls-1" d="M175.521,580.125a3.90747,3.90747,0,1,0,7.81494,0,3.87072,3.87072,0,0,0-.93555-2.50684l-.46484-.46484a3.87072,3.87072,0,0,0-2.50684-.93555A3.912,3.912,0,0,0,175.521,580.125Z"/><path class="cls-1" d="M82.92871,0h4V26.17139l56.043,56.043h56.29456a7.9076,7.9076,0,1,1-.00006,4H141.31445L82.92871,27.82861ZM64.8335,0h4V26.17139l74.44189,74.44189h25.99078a7.90735,7.90735,0,1,1,.00006,4H141.61816L64.8335,27.82861ZM48,0h4V26.17139l90.97168,90.97168h56.29456a7.9076,7.9076,0,1,1-.00006,4H141.31445l-.58545-.58594L48,27.82861ZM31,0h4V26.17139L142.97168,134.14307h26.29456a7.9076,7.9076,0,1,1-.00006,4H141.31445l-.58545-.58594L31,27.82861ZM85,146H63.54871a7.90723,7.90723,0,1,1,0-4H81V118.62939L23.31927,61.0401a7.9029,7.9029,0,1,1,2.99738-2.66016L85,116.97021Zm54.94141,8L15,28.82715V0h4V27.17285L141.60059,150h57.56067a7.9134,7.9134,0,1,1,.21631,4Zm14.76025,72.77893,3.73438,3.73438-10.56757,10.56763L144.134,237.3465ZM140.19293,241.2876l3.73444,3.73438L133.35974,255.5896l-3.73437-3.73437Zm-14.49261,14.49261,3.73444,3.73444-10.56763,10.56757-3.73437-3.73437ZM111.1756,270.305l3.73438,3.73438L104.34235,284.607l-3.73437-3.73444ZM63,447.41077V346.37158l10.3139-10.27234a7.91379,7.91379,0,1,1,2.60089,3.05444L67,348.03271v99.37805a7.90723,7.90723,0,1,1-4,0Zm32,3.76062V359.34882l-10,9.82013v25.384a7.91347,7.91347,0,1,1-4,.22711V367.49121L95,353.743V322.5907a7.90723,7.90723,0,1,1,4,0V452.82861L36.95813,514.87a7.92,7.92,0,1,1-2.68158-2.97473ZM11,573.48145a7.90236,7.90236,0,0,1-2-15.54871V501.17725l12.72113-12.46686A7.95,7.95,0,1,1,24.239,491.8432L13,502.85791v55.07483a7.90236,7.90236,0,0,1-2,15.54871ZM55,642.5a7.90236,7.90236,0,0,1-2-15.54871V553.79l82-81.62109V296.8479l-9,9.00415V465.8291L43,548.72119v52.545a7.90723,7.90723,0,1,1-4,0V547.063l83-82.89209V304.1958l52-52.02393V237.89465l-61,61.16589v159.769L30,541.65234v85.299a7.90723,7.90723,0,1,1-4,0V539.99316l83-82.82275V297.40723l86-86.23389V184.24792a7.90723,7.90723,0,1,1,4,0v28.57874l-21,21.05713v19.94434l-39,39.01794v180.985L57,555.45215v71.49915A7.90236,7.90236,0,0,1,55,642.5ZM199,362.94434V396.359a7.90723,7.90723,0,1,1-4,0V364.55566l-19-19.75V319.91357l19-18.75v-9.94934a7.90723,7.90723,0,1,1,4,0v11.62219l-19,18.75v21.60791ZM174,417.814v-43.0802a7.90723,7.90723,0,1,1,4,0V416.186l20,20.5v10.72473a7.90723,7.90723,0,1,1-4,0V438.314Zm25-173.173v16.18762l-35.485,35.4845a7.90847,7.90847,0,1,1-2.87311-2.78314L195,259.17139V244.641a7.90723,7.90723,0,1,1,4,0ZM165.2915,455.05176A7.90723,7.90723,0,1,1,155,447.51367V332.395a7.90584,7.90584,0,1,1,4,.202V447.31171A7.92039,7.92039,0,0,1,165.2915,455.05176ZM81.71191,612.11182a7.90748,7.90748,0,1,1-9.90723-7.64105V576.1225a7.90735,7.90735,0,1,1,4-.00006v28.34839A7.9144,7.9144,0,0,1,81.71191,612.11182ZM67,670H63V659.17432L90,632.02V551.17139l60.78955-60.76685a7.93911,7.93911,0,1,1,2.98352,2.67377L94,552.82861v80.8418l-27,27.1543Zm23,0H86v-9.81543l22-22.5V557.17041l67.146-67.03967a7.91429,7.91429,0,1,1,2.8642,2.79315L112,558.82959v80.48584l-22,22.5Zm40-24.68945-16,16.5V670h-4v-9.81055l16-16.5V564.1709l73.99683-73.8905a7.88411,7.88411,0,1,1,2.92377,2.73267L130,565.8291Zm102-209.272v11.37219a7.90723,7.90723,0,1,1-4,0v-9.70618L212,421.833V373.73376a7.90723,7.90723,0,1,1,4,0V420.167ZM209,655.90723a7.85677,7.85677,0,0,1-3.14093-.6543L199,662.11279V670h-4v-9.54443l7.69873-7.69873A7.871,7.871,0,0,1,201.359,650H187.0697a7.87547,7.87547,0,0,1-11.07123,5.11346L169,662.11279V670h-4v-9.54443l7.94373-7.94373A7.90061,7.90061,0,1,1,187.0697,646H201.359A7.90325,7.90325,0,1,1,209,655.90723Zm0-22.45215a7.90236,7.90236,0,0,1-2-15.54871V605H187.00769a7.91112,7.91112,0,1,1,.12408-4H211v16.90637a7.90236,7.90236,0,0,1-2,15.54871Zm28.90723-8.52832A7.9144,7.9144,0,0,1,232,632.56775V640.359a7.89542,7.89542,0,0,1,0,15.282V670h-4V655.641a7.89542,7.89542,0,0,1,0-15.282v-7.79126a7.897,7.897,0,0,1,.18994-15.33142V557.731a7.90439,7.90439,0,1,1,4-.0979v59.70123A7.91691,7.91691,0,0,1,237.90723,624.92676ZM230,530.4082a7.85458,7.85458,0,0,1-4.60193-1.49011L211,543.52734v28.76428a7.90723,7.90723,0,1,1-4,0v-16.4635l-20.59094,20.59094a7.94558,7.94558,0,1,1-2.71472-2.94153L207,550.17188V541.8877l15.83392-16.06592A7.90111,7.90111,0,1,1,230,530.4082Zm.18994-36.44873a7.84541,7.84541,0,0,1-3.42468-.7912L164,555.85034v51.321l11.51428,11.51471a7.94771,7.94771,0,1,1-2.85718,2.79913L160,608.82861V559.845L148,571.8291v79.4707l-10,10.5V670h-4v-9.7998l10-10.5V570.1709l79.70862-79.60254a7.9014,7.9014,0,1,1,6.48132,3.39111Zm9.125-257.10254a7.91428,7.91428,0,0,1-5.90771,7.64105V396.21539a7.90735,7.90735,0,1,1-4,.00006V244.49792a7.89574,7.89574,0,0,1,0-15.28247V214.37292a7.9076,7.9076,0,1,1,4,.00006v14.84241A7.91453,7.91453,0,0,1,239.31494,236.85693ZM223.5,119.14307a7.9144,7.9144,0,0,1,5.90723-7.641V91.85583a7.9076,7.9076,0,1,1,4,.00006V111.502a7.89565,7.89565,0,0,1,0,15.28259v17.16663a7.90735,7.90735,0,1,1-4,.00006V126.78455A7.91459,7.91459,0,0,1,223.5,119.14307ZM215,190.90088l9.89056-9.82507a7.96089,7.96089,0,1,1,3.03772,2.621L219,192.56592v126.2627l-8.8728,8.87238a7.9164,7.9164,0,1,1-2.95758-2.69885L215,317.17139ZM206.90723,55.09277A7.90723,7.90723,0,1,1,199.26624,65H156.641a7.90723,7.90723,0,1,1,0-4h42.62524A7.9144,7.9144,0,0,1,206.90723,55.09277Zm0-27.18555A7.9144,7.9144,0,0,1,199.26624,22H134.56885l-7.062-7H104V26.11768L120.07422,42h49.192a7.90723,7.90723,0,1,1,0,4H118.43164L100,27.78857V0h4V11h25.15332l7.062,7h63.0509a7.90347,7.90347,0,1,1,7.641,9.90723Z"/><circle class="cls-1" cx="231.40735" cy="151.59265" r="3.90747"/><circle class="cls-1" cx="209" cy="579.93298" r="3.90735"/><path class="cls-2" d="M199,151.59277A7.9143,7.9143,0,0,1,199.16125,150H141.60059L19,27.17285V0H15V28.82715L139.94141,154h59.43616A7.87241,7.87241,0,0,1,199,151.59277Z"/><path class="cls-2" d="M199.37756,154A7.89567,7.89567,0,1,0,199,151.59277,7.9196,7.9196,0,0,0,199.37756,154Zm7.52966-6.31494A3.90747,3.90747,0,1,1,203,151.59277,3.91206,3.91206,0,0,1,206.90723,147.68506Z"/><circle class="cls-2" cx="214" cy="366.09265" r="3.90735"/><path class="cls-2" d="M216,372v1.73376a7.90723,7.90723,0,1,0-4,0V372Zm-5.90723-5.90723A3.90723,3.90723,0,1,1,214,370,3.912,3.912,0,0,1,210.09277,366.09277Z"/><path class="cls-2" d="M228,450v-2.58923a7.90723,7.90723,0,1,0,4,0V450Zm5.90723,5.05176A3.90723,3.90723,0,1,1,230,451.14453,3.912,3.912,0,0,1,233.90723,455.05176Z"/><circle class="cls-2" cx="230" cy="522.50061" r="3.90735"/><path class="cls-2" d="M230,514.59326a7.88994,7.88994,0,0,0-7.16608,11.22852l1.127-1.14355,2.84863,2.80762-1.4115,1.43225A7.903,7.903,0,1,0,230,514.59326Zm0,4a3.90747,3.90747,0,1,1-3.90723,3.90723A3.91185,3.91185,0,0,1,230,518.59326Z"/><path class="cls-2" d="M232.18994,556.6665v.96655a7.90993,7.90993,0,1,0-4,.0979V556.6665Zm-6.09717-6.62549A3.90723,3.90723,0,1,1,230,553.94824,3.912,3.912,0,0,1,226.09277,550.041Z"/><circle class="cls-2" cx="230" cy="624.92664" r="3.90735"/><path class="cls-2" d="M232.18994,619.6665h-4v-2.43018A7.897,7.897,0,0,0,228,632.56775V630.834h4v1.73376a7.89767,7.89767,0,0,0,.18994-15.23346Zm-6.09717,5.26025A3.90723,3.90723,0,1,1,230,628.834,3.912,3.912,0,0,1,226.09277,624.92676Z"/><path class="cls-2" d="M228,642.09277V640.359a7.89542,7.89542,0,0,0,0,15.282v-1.73376h4V655.641a7.89542,7.89542,0,0,0,0-15.282v1.73376ZM233.90723,648A3.90723,3.90723,0,1,1,230,644.09277,3.91185,3.91185,0,0,1,233.90723,648Z"/><path class="cls-2" d="M207,574v-1.70837a7.90723,7.90723,0,1,0,4,0V574Zm5.90723,5.93311A3.90723,3.90723,0,1,1,209,576.02539,3.91185,3.91185,0,0,1,212.90723,579.93311Z"/><path class="cls-2" d="M182.40039,577.61816a3.87072,3.87072,0,0,1,.93555,2.50684,3.90747,3.90747,0,1,1-3.90723-3.90723,3.87072,3.87072,0,0,1,2.50684.93555l-.9585-.9585,2.71729-2.71729a7.90136,7.90136,0,1,0,2.71472,2.94153l-2.60388,2.60388Z"/><path class="cls-2" d="M185,601h2.13177a7.90358,7.90358,0,1,0-.12408,4H185Zm-5.57129,5.6665a3.90747,3.90747,0,1,1,3.90723-3.90723A3.912,3.912,0,0,1,179.42871,606.6665Z"/><circle class="cls-2" cx="179.42859" cy="625.54773" r="3.90747"/><path class="cls-2" d="M174.13379,622.96191l-1.47668-1.47668a7.91872,7.91872,0,1,0,2.85718-2.79913l1.44763,1.44769Zm5.29492-1.32178a3.90747,3.90747,0,1,1-3.90771,3.90771A3.912,3.912,0,0,1,179.42871,621.64014Z"/><path class="cls-2" d="M211,617.90637V621h-4v-3.09363a7.90723,7.90723,0,1,0,4,0Zm-2,11.54871a3.90747,3.90747,0,1,1,3.90723-3.90723A3.91185,3.91185,0,0,1,209,629.45508Z"/><path class="cls-2" d="M185.33594,646h1.73376a7.90153,7.90153,0,1,0-14.126,6.51184l1.47961-1.47961,2.82813,2.82813-1.253,1.25311A7.87547,7.87547,0,0,0,187.0697,650h-1.73376Zm-5.90723,5.90723A3.90723,3.90723,0,1,1,183.33594,648,3.912,3.912,0,0,1,179.42871,651.90723Z"/><circle class="cls-2" cx="209" cy="648" r="3.90723"/><path class="cls-2" d="M209,640.09277A7.9144,7.9144,0,0,0,201.359,646h1.73376v4H201.359a7.871,7.871,0,0,0,1.33972,2.75684l1.72461-1.72461,2.82813,2.82813-1.3924,1.39258A7.90576,7.90576,0,1,0,209,640.09277ZM205.09277,648A3.90723,3.90723,0,1,1,209,651.90723,3.91185,3.91185,0,0,1,205.09277,648Z"/><path class="cls-2" d="M205.53955,326.63232l1.63007-1.63019a7.93329,7.93329,0,1,0,2.95758,2.69885l-1.75952,1.75946ZM203.5,335.90723A3.90723,3.90723,0,1,1,207.40723,332,3.91185,3.91185,0,0,1,203.5,335.90723Z"/><circle class="cls-2" cx="133.74036" cy="168" r="3.90735"/><path class="cls-2" d="M131.41406,163.58594l-2.82812,2.82813-1.92169-1.92169a7.89679,7.89679,0,1,0,2.63-3.02625Zm2.32617.50684A3.90723,3.90723,0,1,1,129.833,168,3.912,3.912,0,0,1,133.74023,164.09277Z"/><path class="cls-2" d="M167.9873,203.65381l-1.92218,1.92218a7.96238,7.96238,0,1,0-2.91882-2.73743l2.01288-2.01288Zm1.83545-8.94092a3.90747,3.90747,0,1,1-3.90723,3.90771A3.912,3.912,0,0,1,169.82275,194.71289Z"/><path class="cls-2" d="M159,329v3.597a7.90877,7.90877,0,1,0-4-.202V329Zm-5.52295-4.14307a3.90723,3.90723,0,1,1,3.90723,3.90723A3.912,3.912,0,0,1,153.47705,324.85693Z"/><path class="cls-2" d="M178,373v1.73376a7.90723,7.90723,0,1,0-4,0V373Zm-5.90723-5.90723A3.90723,3.90723,0,1,1,176,371,3.912,3.912,0,0,1,172.09277,367.09277Z"/><circle class="cls-2" cx="157.38428" cy="455.05188" r="3.90735"/><path class="cls-2" d="M159,451h-4v-3.48633a7.90584,7.90584,0,1,0,4-.202Zm-1.61572.14453a3.90747,3.90747,0,1,1-3.90723,3.90723A3.91185,3.91185,0,0,1,157.38428,451.14453Z"/><path class="cls-2" d="M155.57129,491.28076l-1.79822,1.79755a7.914,7.914,0,1,0-2.98352-2.67377l1.95361-1.95288Zm1.813-9.13623a3.90747,3.90747,0,1,1-3.90723,3.90723A3.91185,3.91185,0,0,1,157.38428,482.14453Z"/><path class="cls-2" d="M75.80469,574.6665v1.45593a7.9076,7.9076,0,1,0-4,.00006v-1.456ZM69.897,568.48145a3.90747,3.90747,0,1,1,3.90771,3.90723A3.91206,3.91206,0,0,1,69.897,568.48145Z"/><circle class="cls-2" cx="73.80457" cy="612.11182" r="3.90735"/><path class="cls-2" d="M75.80469,607.6665h-4v-3.19574a7.90735,7.90735,0,1,0,4,.00006Zm-2,.53809a3.90723,3.90723,0,1,1-3.90771,3.90723A3.91185,3.91185,0,0,1,73.80469,608.20459Z"/><path class="cls-2" d="M179.27,491.666l-1.25983,1.25787a7.95021,7.95021,0,1,0-2.8642-2.79315l1.29785-1.29578Zm2.63721-9.52148A3.90747,3.90747,0,1,1,178,486.05176,3.912,3.912,0,0,1,181.90723,482.14453Z"/><path class="cls-2" d="M204.27,491.66553l-1.34943,1.34753a7.95927,7.95927,0,1,0-2.92377-2.73267l1.447-1.44495Zm2.397-9.521a3.90747,3.90747,0,1,1-3.90723,3.90723A3.91185,3.91185,0,0,1,206.667,482.14453Z"/><path class="cls-2" d="M230.18994,478.14453a7.89739,7.89739,0,0,0-6.48132,12.42383l1.73523-1.73291,2.82617,2.83008-1.50476,1.50275a7.90323,7.90323,0,1,0,3.42468-15.02374Zm0,11.81494a3.90747,3.90747,0,1,1,3.90771-3.90771A3.912,3.912,0,0,1,230.18994,489.95947Z"/><path class="cls-2" d="M199,181v3.24792a7.90723,7.90723,0,1,0-4,0V181Zm-5.90723-4.39355A3.90723,3.90723,0,1,1,197,180.51416,3.91185,3.91185,0,0,1,193.09277,176.60645Z"/><path class="cls-2" d="M197,229.09277a7.90208,7.90208,0,0,0-2,15.54822V241h4v3.641a7.90208,7.90208,0,0,0-2-15.54822Zm0,11.81445A3.90723,3.90723,0,1,1,200.90723,237,3.91185,3.91185,0,0,1,197,240.90723Z"/><circle class="cls-2" cx="197" cy="283.57324" r="3.90723"/><path class="cls-2" d="M195,289h4v2.21423a7.90723,7.90723,0,1,0-4,0Zm2-1.51953a3.90723,3.90723,0,1,1,3.90723-3.90723A3.91185,3.91185,0,0,1,197,287.48047Z"/><path class="cls-2" d="M195,400v-3.641a7.90723,7.90723,0,1,0,4,0V400Zm5.90723,4A3.90723,3.90723,0,1,1,197,400.09277,3.91185,3.91185,0,0,1,200.90723,404Z"/><circle class="cls-2" cx="196" cy="455.05188" r="3.90735"/><path class="cls-2" d="M198,450h-4v-2.58923a7.90723,7.90723,0,1,0,4,0Zm-2,1.14453a3.90747,3.90747,0,1,1-3.90723,3.90723A3.91185,3.91185,0,0,1,196,451.14453Z"/><circle class="cls-2" cx="156.76855" cy="300.41602" r="3.90723"/><path class="cls-2" d="M161.41406,298.41406l-2.82812-2.82812,2.056-2.056a7.95312,7.95312,0,1,0,2.87311,2.78314Zm-.73828,2.002a3.90723,3.90723,0,1,1-3.90723-3.90723A3.91185,3.91185,0,0,1,160.67578,300.416Z"/><path class="cls-2" d="M9,393v-1.33875a7.90723,7.90723,0,1,0,4,0V393Zm5.90723,6.30225A3.90723,3.90723,0,1,1,11,395.395,3.912,3.912,0,0,1,14.90723,399.30225Z"/><path class="cls-2" d="M13,557.93274V560H9v-2.06726a7.90723,7.90723,0,1,0,4,0Zm-2,11.54871a3.90747,3.90747,0,1,1,3.90723-3.90771A3.912,3.912,0,0,1,11,569.48145Z"/><path class="cls-2" d="M13,596v.31091a7.90723,7.90723,0,1,0-4,0V596Zm-5.90723-7.33057A3.90723,3.90723,0,1,1,11,592.57715,3.91185,3.91185,0,0,1,7.09277,588.66943Z"/><path class="cls-2" d="M27,451v-1.60443a7.90653,7.90653,0,1,0,4,.03027V451Zm5.84863,6.05176a3.90747,3.90747,0,1,1-3.90723-3.90723A3.912,3.912,0,0,1,32.84863,457.05176Z"/><circle class="cls-2" cx="28.94128" cy="485.50061" r="3.90747"/><path class="cls-2" d="M24.917,491.17871l-.678.66449a7.908,7.908,0,1,0-2.51782-3.13281l.39606-.38812Zm4.02441-9.58545a3.90747,3.90747,0,1,1-3.90771,3.90723A3.91185,3.91185,0,0,1,28.94141,481.59326Z"/><path class="cls-2" d="M65,462.95947a7.90236,7.90236,0,0,0,2-15.54871V450H63v-2.58923a7.90236,7.90236,0,0,0,2,15.54871Zm0-11.81494a3.90747,3.90747,0,1,1-3.90723,3.90723A3.91185,3.91185,0,0,1,65,451.14453Z"/><path class="cls-2" d="M32.45947,513.7124l1.81708-1.81714A7.93214,7.93214,0,1,0,36.95813,514.87l-1.67053,1.67053Zm-2.51807,8.6958a3.90747,3.90747,0,1,1,3.90723-3.90771A3.91206,3.91206,0,0,1,29.94141,522.4082Z"/><path class="cls-2" d="M29.533,631a3.90723,3.90723,0,1,1-3.06592,0H26v-4.04871a7.90723,7.90723,0,1,0,4,0V631Z"/><path class="cls-2" d="M57,626.95129V631h-.467a3.90723,3.90723,0,1,1-3.06592,0H53v-4.04871a7.90723,7.90723,0,1,0,4,0Z"/><path class="cls-2" d="M39,603v-1.73376a7.90723,7.90723,0,1,0,4,0V603Zm5.90723,5.90723A3.90723,3.90723,0,1,1,41,605,3.912,3.912,0,0,1,44.90723,608.90723Z"/><path class="cls-2" d="M44,395v-1.38892a7.90443,7.90443,0,1,0,4,.10022V395Zm5.71289,6.30225a3.90747,3.90747,0,1,1-3.90723-3.90723A3.912,3.912,0,0,1,49.71289,401.30225Z"/><path class="cls-2" d="M77.93994,337.13672l-2.02515,2.017a7.9546,7.9546,0,1,0-2.60089-3.05444l1.80377-1.79651Zm2.48779-8.374a3.90723,3.90723,0,1,1-3.90723,3.90723A3.912,3.912,0,0,1,80.42773,328.7627Z"/><path class="cls-2" d="M79.52051,402.30225A3.90748,3.90748,0,1,0,85,398.73114V401H81v-1.73474A3.88564,3.88564,0,0,0,79.52051,402.30225Z"/><path class="cls-2" d="M85,398.73114a3.92527,3.92527,0,1,1-4,.53412v-4.48517a7.90214,7.90214,0,1,0,4-.22711Z"/><path class="cls-2" d="M99,320v2.5907a7.90723,7.90723,0,1,0-4,0V320Zm-5.90723-5.05078A3.90723,3.90723,0,1,1,97,318.85693,3.91185,3.91185,0,0,1,93.09277,314.94922Z"/><path class="cls-2" d="M108.41406,140.58594l2.01459,2.01459a7.96381,7.96381,0,1,0-3.02637,2.62988l-1.81635-1.81635ZM99.9873,138.1543a3.90747,3.90747,0,1,1,3.90723,3.90723A3.91185,3.91185,0,0,1,99.9873,138.1543Z"/><path class="cls-2" d="M85.23682,165.832l-2.37573,2.37585a7.92589,7.92589,0,1,0-2.967-2.68945l2.51465-2.51453Zm1.27246-8.54a3.90747,3.90747,0,1,1-3.90723,3.90771A3.91206,3.91206,0,0,1,86.50928,157.292Z"/><path class="cls-2" d="M105.94482,188.28369l2.09814,2.09808a7.90131,7.90131,0,1,0-2.65771,2.99866l-2.26855-2.26862Zm-8.85205-1.478A3.90723,3.90723,0,1,1,101,190.71289,3.912,3.912,0,0,1,97.09277,186.80566Z"/><path class="cls-2" d="M60,142h3.54871a7.90723,7.90723,0,1,0,0,4H60Zm-4.09277,5.90723A3.90723,3.90723,0,1,1,59.81494,144,3.91185,3.91185,0,0,1,55.90723,147.90723Z"/><path class="cls-2" d="M0,319.32819v.68634q.227-.11389.44519-.24115Z"/><path class="cls-2" d="M3.27808,316.94983a7.84775,7.84775,0,0,0,1.09839-4.00061A7.90934,7.90934,0,0,0,0,305.88434v5.41876a3.8643,3.8643,0,0,1,.37646,1.64612A3.86573,3.86573,0,0,1,0,314.5957V316.5l1.41406-1.41406Z"/><circle class="cls-2" cx="19.73926" cy="53.9989" r="3.90735"/><path class="cls-2" d="M25.29492,57.35986l1.02173,1.02008a7.95144,7.95144,0,1,0-2.99738,2.66016l-.85052-.84918ZM15.832,53.999a3.90723,3.90723,0,1,1,3.90723,3.90723A3.912,3.912,0,0,1,15.832,53.999Z"/><path class="cls-2" d="M57.27393,118.53271,55.01312,116.34a7.92982,7.92982,0,1,0,2.83875-2.81915l2.20721,2.14075Zm8.44824,1.82031a3.90747,3.90747,0,1,1-3.90723-3.90771A3.91185,3.91185,0,0,1,65.72217,120.353Z"/><circle class="cls-2" cx="27.09265" cy="126.26038" r="3.90747"/><path class="cls-2" d="M25.49756,121.91943l-2.82812,2.82813L20.245,122.32312a7.9444,7.9444,0,1,0,2.80823-2.848Zm1.59521.43359a3.90747,3.90747,0,1,1-3.90771,3.90723A3.91185,3.91185,0,0,1,27.09277,122.353Z"/><path class="cls-2" d="M201,121.14307h-1.73383a7.90735,7.90735,0,1,0,.00006-4H201Zm5.90723-5.90723A3.90747,3.90747,0,1,1,203,119.14307,3.912,3.912,0,0,1,206.90723,115.23584Z"/><path class="cls-2" d="M201,86.21436h-1.73383a7.90735,7.90735,0,1,0,.00006-4H201Zm5.90723-5.90723A3.90747,3.90747,0,1,1,203,84.21436,3.912,3.912,0,0,1,206.90723,80.30713Z"/><path class="cls-2" d="M200,65h-.73376a7.90723,7.90723,0,1,0,0-4H200Zm6.90723-5.90723A3.90723,3.90723,0,1,1,203,63,3.912,3.912,0,0,1,206.90723,59.09277Z"/><path class="cls-2" d="M211,40h3.54871a7.90723,7.90723,0,1,0,0,4H211Zm-4.09277,5.90723A3.90723,3.90723,0,1,1,210.81494,42,3.91185,3.91185,0,0,1,206.90723,45.90723Z"/><path class="cls-2" d="M206.90723,12.09277A7.9144,7.9144,0,0,0,199.26624,18H203v2a3.90747,3.90747,0,1,1,3.90723,3.90723A3.91185,3.91185,0,0,1,203,20v2h-3.73376a7.90347,7.90347,0,1,0,7.641-9.90723Z"/><path class="cls-2" d="M155,61h1.641a7.90723,7.90723,0,1,0,0,4H155Zm-6,5.90723A3.90723,3.90723,0,1,1,152.90723,63,3.91185,3.91185,0,0,1,149,66.90723Z"/><path class="cls-2" d="M233.40723,90.12207V91.8559a7.90735,7.90735,0,1,0-4-.00006V90.12207ZM227.5,84.21436a3.90747,3.90747,0,1,1,3.90723,3.90771A3.91185,3.91185,0,0,1,227.5,84.21436Z"/><circle class="cls-2" cx="231.40735" cy="119.14319" r="3.90747"/><path class="cls-2" d="M233.40723,125.05078v1.73383a7.89565,7.89565,0,0,0,0-15.28259v1.73383h-4v-1.73376a7.89574,7.89574,0,0,0,0,15.28247v-1.73376Zm1.90771-5.90771a3.90747,3.90747,0,1,1-3.90771-3.90723A3.91206,3.91206,0,0,1,235.31494,119.14307Z"/><path class="cls-2" d="M229.40723,145.68506v-1.73376a7.9076,7.9076,0,1,0,4-.00006v1.73383Zm5.90771,5.90771a3.90747,3.90747,0,1,1-3.90771-3.90771A3.912,3.912,0,0,1,235.31494,151.59277Z"/><path class="cls-2" d="M229.24512,182.38867l-1.31683,1.30811a7.90317,7.90317,0,1,0-3.03772-2.621l1.53522-1.525Zm2.16211-9.68945A3.90747,3.90747,0,1,1,227.5,176.60645,3.912,3.912,0,0,1,231.40723,172.69922Z"/><circle class="cls-2" cx="231.40735" cy="236.85681" r="3.90747"/><path class="cls-2" d="M229.40723,230.94922v-1.73376a7.89574,7.89574,0,0,0,0,15.28247v-1.73376h4V244.498a7.89565,7.89565,0,0,0,0-15.28259v1.73383ZM227.5,236.85693a3.90747,3.90747,0,1,1,3.90723,3.90723A3.912,3.912,0,0,1,227.5,236.85693Z"/><path class="cls-2" d="M233.40723,212.63916V214.373a7.90735,7.90735,0,1,0-4-.00006v-1.73376ZM227.5,206.73193a3.90747,3.90747,0,1,1,3.90723,3.90723A3.912,3.912,0,0,1,227.5,206.73193Z"/><path class="cls-2" d="M229.40723,398.94922v-2.73376a7.9076,7.9076,0,1,0,4-.00006v2.73383Zm5.90771,4.90771a3.90747,3.90747,0,1,1-3.90771-3.90771A3.912,3.912,0,0,1,235.31494,403.85693Z"/><circle class="cls-2" cx="176.90735" cy="136.14319" r="3.90747"/><path class="cls-2" d="M171,138.14307h-1.73383a7.90735,7.90735,0,1,0,.00006-4H171Zm5.90723-5.90723A3.90747,3.90747,0,1,1,173,136.14307,3.912,3.912,0,0,1,176.90723,132.23584Z"/><circle class="cls-2" cx="176.90735" cy="102.61316" r="3.90747"/><path class="cls-2" d="M171,104.61328h-1.73376a7.9076,7.9076,0,1,0-.00006-4H171Zm5.90723-5.90771A3.90747,3.90747,0,1,1,173,102.61328,3.91206,3.91206,0,0,1,176.90723,98.70557Z"/><circle class="cls-2" cx="176.90735" cy="44" r="3.90735"/><path class="cls-2" d="M171,46h-1.73376a7.90723,7.90723,0,1,0,0-4H171Zm5.90723-5.90723A3.90723,3.90723,0,1,1,173,44,3.912,3.912,0,0,1,176.90723,40.09277Z"/><polygon class="cls-2" points="141.314 138.143 169.266 138.143 171 138.143 171 134.143 169.266 134.143 142.972 134.143 35 26.171 35 0 31 0 31 27.829 140.729 137.557 141.314 138.143"/><polygon class="cls-2" points="141.314 121.143 199.266 121.143 201 121.143 201 117.143 199.266 117.143 142.972 117.143 52 26.171 52 0 48 0 48 27.829 140.729 120.557 141.314 121.143"/><polygon class="cls-2" points="169.266 104.613 171 104.613 171 100.613 169.266 100.613 143.275 100.613 68.833 26.171 68.833 0 64.833 0 64.833 27.829 141.618 104.613 169.266 104.613"/><polygon class="cls-2" points="199.266 86.214 201 86.214 201 82.214 199.266 82.214 142.972 82.214 86.929 26.171 86.929 0 82.929 0 82.929 27.829 141.314 86.214 199.266 86.214"/><polygon class="cls-2" points="229.407 145.685 233.407 145.685 233.407 143.951 233.407 126.785 233.407 125.051 229.407 125.051 229.407 126.785 229.407 143.951 229.407 145.685"/><polygon class="cls-2" points="233.407 113.236 233.407 111.502 233.407 91.856 233.407 90.122 229.407 90.122 229.407 91.856 229.407 111.502 229.407 113.236 233.407 113.236"/><polygon class="cls-2" points="25.295 57.36 22.469 60.191 23.319 61.04 81 118.629 81 142 63.549 142 60 142 60 146 63.549 146 85 146 85 116.97 26.317 58.38 25.295 57.36"/><polygon class="cls-2" points="119.861 154.861 118.447 156.275 126.664 164.492 128.586 166.414 131.414 163.586 129.294 161.466 110.429 142.601 108.414 140.586 105.586 143.414 107.402 145.23 115.619 153.447 117.033 152.033 119.861 154.861"/><polygon class="cls-2" points="8.725 285.22 11.553 282.392 12.967 283.806 18.659 278.114 17.116 276.558 19.957 273.741 21.489 275.284 26.009 270.763 24.513 269.272 27.336 266.439 28.838 267.935 33.772 263.001 32.331 261.554 35.164 258.73 36.601 260.172 45.806 250.967 44.392 249.553 47.22 246.725 48.634 248.139 53.452 243.321 52.038 241.906 54.866 239.078 56.281 240.492 60.815 235.958 59.401 234.543 62.229 231.715 63.643 233.13 67.945 228.828 66.53 227.414 69.358 224.586 70.773 226 85.773 211 0 125.227 0 130.884 80.116 211 0 291.116 0 296.773 10.139 286.634 8.725 285.22"/><polygon class="cls-2" points="66.53 227.414 67.945 228.828 83.437 244.321 113.694 214.063 75.35 175.719 82.861 168.208 85.237 165.832 82.409 163.004 79.894 165.518 69.693 175.719 108.037 214.063 83.437 238.664 70.773 226 69.358 224.586 66.53 227.414"/><polygon class="cls-2" points="59.401 234.543 60.815 235.958 83.378 258.521 129.781 212.119 108.043 190.382 105.945 188.284 103.117 191.112 105.385 193.38 124.124 212.119 83.378 252.864 63.643 233.13 62.229 231.715 59.401 234.543"/><polygon class="cls-2" points="52.038 241.906 53.452 243.321 83.146 273.016 146.829 209.333 106.109 168.614 118.447 156.275 119.861 154.861 117.033 152.033 115.619 153.447 100.452 168.614 141.171 209.333 83.146 267.358 56.281 240.492 54.866 239.078 52.038 241.906"/><polygon class="cls-2" points="44.392 249.553 45.806 250.967 83.24 288.402 166.065 205.576 167.987 203.654 165.159 200.826 163.146 202.839 83.24 282.745 48.634 248.139 47.22 246.725 44.392 249.553"/><polygon class="cls-2" points="10.271 329.6 34.516 305.354 12.967 283.806 11.553 282.392 8.725 285.22 10.139 286.634 28.859 305.354 10.271 323.942 3.278 316.95 1.414 315.086 0 316.5 0 319.328 0.445 319.773 10.271 329.6"/><polygon class="cls-2" points="32.331 261.554 33.772 263.001 58.832 288.142 78.94 308.236 44 343.249 44 393.611 44 395 48 395 48 393.711 48 344.903 84.596 308.232 61.662 285.315 36.601 260.172 35.164 258.73 32.331 261.554"/><polygon class="cls-2" points="24.513 269.272 26.009 270.763 47.448 292.126 62.692 307.481 27 342.077 27 449.396 27 451 31 451 31 449.426 31 343.771 68.382 307.536 50.279 289.301 28.838 267.935 27.336 266.439 24.513 269.272"/><polygon class="cls-2" points="17.116 276.558 18.659 278.114 39.948 299.583 46.06 305.721 9 342.906 9 391.661 9 393 13 393 13 391.661 13 344.56 51.705 305.722 21.489 275.284 19.957 273.741 17.116 276.558"/><polygon class="cls-2" points="0 168 0 254 43 211 0 168"/><polygon class="cls-2" points="41.259 103 55.013 116.34 57.274 118.533 60.059 115.662 57.852 113.521 42.88 99 27.833 99 0 70.982 0 76.658 26.167 103 41.259 103"/><polygon class="cls-2" points="22.669 124.748 25.498 121.919 23.053 119.475 0 96.422 0 102.078 20.245 122.323 22.669 124.748"/><rect class="cls-2" x="100.28654" y="274.81537" width="14.94486" height="5.28123" transform="translate(-164.62913 157.46207) rotate(-45)"/><rect class="cls-2" x="114.81132" y="260.29061" width="14.94484" height="5.28125" transform="translate(-150.10438 163.47843) rotate(-45)"/><rect class="cls-2" x="129.30392" y="245.79799" width="14.94486" height="5.28123" transform="translate(-135.6124 169.48369) rotate(-45.00047)"/><rect class="cls-2" x="143.81263" y="231.28929" width="14.94484" height="5.28125" transform="translate(-121.10307 175.49117) rotate(-45)"/><polygon class="cls-2" points="104 0 100 0 100 27.789 118.432 46 169.266 46 171 46 171 42 169.266 42 120.074 42 104 26.118 104 15 104 11 104 0"/><polygon class="cls-2" points="155 61 155 65 156.641 65 199.266 65 200 65 200 61 199.266 61 156.641 61 155 61"/><polygon class="cls-2" points="203 20 203 18 199.266 18 136.215 18 129.153 11 104 11 104 15 127.507 15 134.569 22 199.266 22 203 22 203 20"/><polygon class="cls-2" points="238 26.171 224.171 40 214.549 40 211 40 211 44 214.549 44 225.829 44 242 27.829 242 0 238 0 238 26.171"/><polygon class="cls-2" points="178 233 178 233.884 199 212.827 199 184.248 199 181 195 181 195 184.248 195 211.173 109 297.407 109 457.17 26 539.993 26 626.951 26 631 26.467 631 29.533 631 30 631 30 626.951 30 541.652 113 458.83 113 299.061 174 237.895 174 233 178 233"/><polygon class="cls-2" points="139 292 139 292.846 178 253.828 178 233.884 178 233 174 233 174 237.895 174 252.172 122 304.196 122 464.171 39 547.063 39 601.266 39 603 43 603 43 601.266 43 548.721 126 465.829 126 305.852 135 296.848 135 292 139 292"/><polygon class="cls-2" points="53.467 631 56.533 631 57 631 57 626.951 57 555.452 139 473.831 139 292.846 139 292 135 292 135 296.848 135 472.169 53 553.79 53 626.951 53 631 53.467 631"/><polygon class="cls-2" points="32.459 513.712 35.288 516.541 36.958 514.87 99 452.829 99 322.591 99 320 95 320 95 322.591 95 353.743 95.5 353.251 98.303 356.105 95 359.349 95 451.171 34.277 511.895 32.459 513.712"/><polygon class="cls-2" points="67 450 67 447.411 67 348.033 75.915 339.154 77.94 337.137 75.118 334.303 73.314 336.099 63 346.372 63 447.411 63 450 67 450"/><polygon class="cls-2" points="95.5 353.251 95 353.743 81 367.491 81 394.78 81 399.265 81 401 85 401 85 398.731 85 394.553 85 369.169 95 359.349 98.303 356.105 95.5 353.251"/><polygon class="cls-2" points="195 241 195 244.641 195 259.171 160.642 293.53 158.586 295.586 161.414 298.414 163.515 296.313 199 260.829 199 244.641 199 241 195 241"/><polygon class="cls-2" points="159 329 155 329 155 332.395 155 447.514 155 451 159 451 159 447.312 159 332.597 159 329"/><polygon class="cls-2" points="199 302.836 199 291.214 199 289 195 289 195 291.214 195 301.164 176 319.914 176 344.806 195 364.556 195 396.359 195 400 199 400 199 396.359 199 362.944 180 343.194 180 321.586 199 302.836"/><polygon class="cls-2" points="194 450 198 450 198 447.411 198 436.686 178 416.186 178 374.734 178 373 174 373 174 374.734 174 417.814 194 438.314 194 447.411 194 450"/><polygon class="cls-2" points="205.54 326.632 208.368 329.46 210.127 327.701 219 318.829 219 192.566 227.928 183.697 229.245 182.389 226.426 179.551 224.891 181.076 215 190.901 215 317.171 207.17 325.002 205.54 326.632"/><polygon class="cls-2" points="229.407 242.764 229.407 244.498 229.407 396.215 229.407 398.949 233.407 398.949 233.407 396.215 233.407 244.498 233.407 242.764 229.407 242.764"/><polygon class="cls-2" points="233.407 212.639 229.407 212.639 229.407 214.373 229.407 229.215 229.407 230.949 233.407 230.949 233.407 229.215 233.407 214.373 233.407 212.639"/><polygon class="cls-2" points="216 372 212 372 212 373.734 212 421.833 228 437.705 228 447.411 228 450 232 450 232 447.411 232 436.039 216 420.167 216 373.734 216 372"/><polygon class="cls-2" points="94 552.829 153.773 493.078 155.571 491.281 152.743 488.452 150.79 490.405 90 551.171 90 632.02 63 659.174 63 670 67 670 67 660.825 94 633.67 94 552.829"/><polygon class="cls-2" points="112 558.83 178.01 492.924 179.27 491.666 176.444 488.835 175.146 490.131 108 557.17 108 637.685 86 660.185 86 670 90 670 90 661.815 112 639.315 112 558.83"/><polygon class="cls-2" points="204.27 491.666 201.444 488.835 199.997 490.28 126 564.171 126 643.689 110 660.189 110 670 114 670 114 661.811 130 645.311 130 565.829 202.921 493.013 204.27 491.666"/><polygon class="cls-2" points="225.444 488.835 223.709 490.568 144 570.171 144 649.7 134 660.2 134 670 138 670 138 661.8 148 651.3 148 571.829 160 559.845 160 555 164 555 164 555.85 226.765 493.168 228.27 491.666 225.444 488.835"/><polygon class="cls-2" points="75.805 574.667 71.805 574.667 71.805 576.122 71.805 604.471 71.805 607.667 75.805 607.667 75.805 604.471 75.805 576.122 75.805 574.667"/><circle class="cls-2" cx="41.53796" cy="656" r="3.90735"/><path class="cls-2" d="M37.09277,654v4H33.89661a7.90723,7.90723,0,1,0,0-4Zm4.44531-1.90723A3.90723,3.90723,0,1,1,37.63037,656,3.91185,3.91185,0,0,1,41.53809,652.09277Z"/><polygon class="cls-2" points="37.093 658 37.093 654 33.897 654 0 654 0 658 33.897 658 37.093 658"/><polygon class="cls-2" points="13 560 13 557.933 13 502.858 24.239 491.843 24.917 491.179 22.117 488.322 21.721 488.71 9 501.177 9 557.933 9 560 13 560"/><polygon class="cls-2" points="13 596.311 13 596 9 596 9 596.311 9 624.171 0 633.172 0 638.828 13 625.829 13 596.311"/><polygon class="cls-2" points="223.961 524.678 222.834 525.822 207 541.888 207 550.172 207.586 549.586 210.414 552.414 207 555.828 207 572.292 207 574 211 574 211 572.292 211 543.527 225.398 528.918 226.81 527.486 223.961 524.678"/><polygon class="cls-2" points="207.586 549.586 207 550.172 183.694 573.478 180.977 576.195 181.936 577.153 182.4 577.618 183.805 579.023 186.409 576.419 207 555.828 210.414 552.414 207.586 549.586"/><polygon class="cls-2" points="160 555 160 559.845 160 608.829 172.657 621.485 174.134 622.962 176.962 620.134 175.514 618.686 164 607.171 164 555.85 164 555 160 555"/><polygon class="cls-2" points="211 621 211 617.906 211 601 187.132 601 185 601 185 605 187.008 605 207 605 207 617.906 207 621 211 621"/><polygon class="cls-2" points="203.093 646 201.359 646 187.07 646 185.336 646 185.336 650 187.07 650 201.359 650 203.093 650 203.093 646"/><polygon class="cls-2" points="232.19 556.667 228.19 556.667 228.19 557.731 228.19 617.236 228.19 619.667 232.19 619.667 232.19 617.334 232.19 557.633 232.19 556.667"/><polygon class="cls-2" points="228 630.834 228 632.568 228 640.359 228 642.093 232 642.093 232 640.359 232 632.568 232 630.834 228 630.834"/><polygon class="cls-2" points="174.423 651.032 172.944 652.512 165 660.456 165 670 169 670 169 662.113 175.998 655.113 177.251 653.86 174.423 651.032"/><polygon class="cls-2" points="204.423 651.032 202.699 652.757 195 660.456 195 670 199 670 199 662.113 205.859 655.253 207.251 653.86 204.423 651.032"/><polygon class="cls-2" points="228 653.907 228 655.641 228 670 232 670 232 655.641 232 653.907 228 653.907"/><polygon class="cls-1" points="1279.772 538.832 1279.772 501.716 1237.056 459 1279.772 416.284 1279.772 379.168 1199.939 459 1279.772 538.832"/><circle class="cls-1" cx="1193.54614" cy="508.80042" r="3.90759"/><circle class="cls-1" cx="1048.64844" cy="463.26819" r="3.90735"/><circle class="cls-1" cx="1049.86548" cy="183.94812" r="3.90759"/><path class="cls-1" d="M1275.67969,357.05078a7.84924,7.84924,0,0,1,1.09814-4.00049l-6.99268-6.99268-18.58887,18.58789,18.72046,18.72046,9.85535-9.85535v-9.538A7.91148,7.91148,0,0,1,1275.67969,357.05078Z"/><circle class="cls-1" cx="1179.05566" cy="483.19446" r="3.90735"/><path class="cls-1" d="M1279.7721,357.87854v-1.6557a3.75445,3.75445,0,0,0,0,1.6557Z"/><circle class="cls-1" cx="1050.05566" cy="22" r="3.90723"/><circle class="cls-1" cx="1050.05566" cy="119.95911" r="3.90735"/><path class="cls-1" d="M1104.53516,89.875a3.90771,3.90771,0,1,0-7.81543,0,3.87059,3.87059,0,0,0,.93335,2.50421l.46973.4696a3.87015,3.87015,0,0,0,2.50415.93341A3.91206,3.91206,0,0,0,1104.53516,89.875Z"/><circle class="cls-1" cx="1071.05566" cy="44.45227" r="3.90735"/><circle class="cls-1" cx="1071.05566" cy="90.06702" r="3.90735"/><circle class="cls-1" cx="1269.05566" cy="81.33044" r="3.90735"/><circle class="cls-1" cx="1050.05566" cy="214.94812" r="3.90735"/><circle class="cls-1" cx="1239.05566" cy="61.09265" r="3.90735"/><circle class="cls-1" cx="1122.67163" cy="183.94812" r="3.90759"/><path class="cls-1" d="M1255.96289,35.40723A3.90723,3.90723,0,1,0,1250.52271,39h3.06592A3.91251,3.91251,0,0,0,1255.96289,35.40723Z"/><circle class="cls-1" cx="1083.05566" cy="493.39343" r="3.90735"/><circle class="cls-1" cx="1083.05566" cy="266" r="3.90723"/><circle class="cls-1" cx="1104.05566" cy="302.90735" r="3.90735"/><circle class="cls-1" cx="1083.05566" cy="433" r="3.90723"/><circle class="cls-1" cx="1098.14844" cy="183.94812" r="3.90735"/><circle class="cls-1" cx="1206.25122" cy="101.51868" r="3.90759"/><path class="cls-1" d="M1228.96289,35.40723A3.90723,3.90723,0,1,0,1223.52271,39h3.06592A3.91251,3.91251,0,0,0,1228.96289,35.40723Z"/><circle class="cls-1" cx="1250.1145" cy="151.49939" r="3.90759"/><circle class="cls-1" cx="1100.6272" cy="67.24084" r="3.90759"/><circle class="cls-1" cx="1100.6272" cy="22" r="3.90747"/><circle class="cls-1" cx="1199.62793" cy="337.33008" r="3.90723"/><circle class="cls-1" cx="1215.05566" cy="214.94812" r="3.90735"/><circle class="cls-1" cx="1073.38867" cy="183.94812" r="3.90735"/><circle class="cls-1" cx="1269.05566" cy="104.42615" r="3.90735"/><circle class="cls-1" cx="1176.16113" cy="531.8457" r="3.90723"/><circle class="cls-1" cx="1183.05566" cy="355.05066" r="3.90735"/><circle class="cls-1" cx="1131.05566" cy="607" r="3.90723"/><circle class="cls-1" cx="1218.24121" cy="549.64709" r="3.90735"/><circle class="cls-1" cx="1073.14844" cy="628" r="3.90723"/><circle class="cls-1" cx="1073.14844" cy="607" r="3.90723"/><circle class="cls-1" cx="1076.55566" cy="338" r="3.90723"/><circle class="cls-1" cx="1073.14844" cy="518.40735" r="3.90735"/><circle class="cls-1" cx="1048.64844" cy="518.40735" r="3.90735"/><circle class="cls-1" cx="1048.64844" cy="493.39343" r="3.90735"/><circle class="cls-1" cx="1073.14844" cy="550.85681" r="3.90735"/><circle class="cls-1" cx="1048.64844" cy="585.78552" r="3.90735"/><circle class="cls-1" cx="1073.14844" cy="585.78552" r="3.90735"/><circle class="cls-1" cx="1234.25024" cy="268.69763" r="3.90759"/><path class="cls-1" d="M1125.35425,443.22107l-3.73437-3.73437,10.5675-10.56763,3.73438,3.73444Zm14.50854-14.50867-3.73437-3.73437L1146.696,414.4104l3.73438,3.73438Zm14.49268-14.49261-3.73437-3.73444,10.56763-10.56757,3.73438,3.73438Zm14.52478-14.52478-3.73437-3.73437,10.5675-10.56763,3.73438,3.73444ZM1217,222.60364V323.62842l-10.27612,10.23511a7.90562,7.90562,0,1,1-2.6145-3.041L1213,321.96729V222.575a7.908,7.908,0,1,1,4,.02869Zm-32-3.775v91.82184l10-9.8194V275.43469a7.90619,7.90619,0,1,1,4-.19427v27.26837l-14,13.74829V347.3949a7.90654,7.90654,0,1,1-4,.02875V217.17139l62.0791-62.07916a7.90727,7.90727,0,1,1,2.665,2.99133Zm84.05566-122.31006A7.90241,7.90241,0,0,1,1271,112.08167v56.74109l-12.68274,12.43018a7.94606,7.94606,0,1,1-2.53211-3.11981L1267,167.14209V112.053a7.90262,7.90262,0,0,1,2.05566-15.53442Zm-44-69.01855A7.90241,7.90241,0,0,1,1227,43.06311V116.21l-82,81.62109v175.321l9-9.00415V204.1709l83-82.89209V68.71948a7.908,7.908,0,1,1,4,.02869V122.937l-83,82.89209V365.8042l-52,52.02393v14.27722l61-61.16589v-159.769l83-82.82275V43.03436a7.90791,7.90791,0,1,1,4,.02875v86.94373l-83,82.82275V372.59277l-86,86.23389v26.911a7.90654,7.90654,0,1,1-4,.02875V457.17334l21-21.05713V416.17188l39-39.01794v-180.985l82-81.62109V43.03436A7.90258,7.90258,0,0,1,1225.05566,27.5ZM1081,307.05566v-33.429a7.908,7.908,0,1,1,4,.02869v31.78894l19,19.75v24.89209l-19,18.75v9.93494a7.90642,7.90642,0,1,1-4,.02869V367.16357l19-18.75V326.80566Zm25-54.86963v43.0658a7.90642,7.90642,0,1,1-4,.02869V253.814l-20-20.5V222.575a7.908,7.908,0,1,1,4,.02869v9.0824Zm-25,173.18726v-16.2019l35.51953-35.519a7.9169,7.9169,0,1,1,2.85962,2.79675L1085,410.82861v14.516a7.90642,7.90642,0,1,1-4,.02869Zm33.76367-210.425A7.90772,7.90772,0,1,1,1125,222.50476V337.58655a7.913,7.913,0,1,1-4-.16907V222.67383A7.91889,7.91889,0,0,1,1114.76367,214.94824Zm83.58008-157.06006a7.90772,7.90772,0,1,1,9.90723,7.64105V93.8775a7.90723,7.90723,0,1,1-4,0V65.52924A7.9139,7.9139,0,0,1,1198.34375,57.88818ZM1213,0h4V10.82568L1190,37.98v80.84863l-60.75464,60.73187a7.95282,7.95282,0,1,1-3-2.6571L1186,117.17139V36.32959l27-27.1543Zm-23,0h4V9.81543l-22,22.5v80.51416l-67.11157,67.0047a7.9043,7.9043,0,1,1-2.87769-2.77948L1168,111.17041V30.68457l22-22.5Zm-40,24.68945,16-16.5V0h4V9.81055l-16,16.5V105.8291l-73.96228,73.85553a7.89957,7.89957,0,1,1-2.94031-2.716L1150,104.1709Zm-102,209.272V222.575a7.908,7.908,0,1,1,4,.02869v9.69177l16,15.87158v48.08484a7.90642,7.90642,0,1,1-4,.02869V249.833Zm23.05566-219.86865a7.86169,7.86169,0,0,1,3.10327.636L1081,7.88721V0h4V9.54443l-7.667,7.66663A7.87364,7.87364,0,0,1,1078.69666,20H1092.986a7.87558,7.87558,0,0,1,11.03345-5.13177L1111,7.88721V0h4V9.54443l-7.91187,7.91144A7.90017,7.90017,0,1,1,1092.986,24h-14.28931a7.90325,7.90325,0,1,1-7.641-9.90723Zm0,22.45215A7.90241,7.90241,0,0,1,1073,52.108V65h20.048a7.911,7.911,0,1,1-.12415,4H1069V52.07928a7.90258,7.90258,0,0,1,2.05566-15.53436Zm-28.90723,8.52832a7.9139,7.9139,0,0,1,5.90723-7.64105V29.64105a7.8955,7.8955,0,0,1,0-15.2821V0h4V14.35895a7.8955,7.8955,0,0,1,0,15.2821v7.79114a7.89711,7.89711,0,0,1-.19043,15.33167v59.505a7.90437,7.90437,0,1,1-4,.09814V52.66565A7.91662,7.91662,0,0,1,1042.14844,45.07324Zm7.90723,94.51855a7.85585,7.85585,0,0,1,4.57007,1.46606L1069,126.47266V97.694a7.90791,7.90791,0,1,1,4,.02875V114.2276l20.64673-20.6463a7.94506,7.94506,0,1,1,2.71484,2.94147L1073,119.88379v8.22852l-15.79614,16.02856a7.9008,7.9008,0,1,1-7.14819-4.54907Zm-.19043,36.44873a7.84618,7.84618,0,0,1,3.38721.77295L1116,114.1496v-51.321L1104.50684,51.335a7.95329,7.95329,0,1,1,2.87085-2.78546L1120,61.17139v48.98352l12-11.984V18.7002l10-10.5V0h4V9.7998l-10,10.5V99.8291l-79.67676,79.57025a7.90059,7.90059,0,1,1-6.458-3.35883Zm-9.124,257.10254a7.9139,7.9139,0,0,1,5.90723-7.64105V273.78455a7.90723,7.90723,0,1,1,4,0V425.502a7.89578,7.89578,0,0,1,0,15.28253V455.627a7.90723,7.90723,0,1,1-4,0V440.78455A7.914,7.914,0,0,1,1040.74121,433.14307Zm7.90723,52.34277a7.84553,7.84553,0,0,1,3.45825.80731L1061,477.436V351.1709l8.91187-8.89911a7.90407,7.90407,0,1,1,2.94458,2.71185L1065,352.8291V479.09766l-9.84863,9.80811a7.90218,7.90218,0,1,1-6.50293-3.41992Zm-7.90723,65.37109a7.914,7.914,0,0,1,5.90723-7.64148V526.04871a7.90723,7.90723,0,1,1,4,0v17.16675a7.89578,7.89578,0,0,1,0,15.28253v19.64618a7.90723,7.90723,0,1,1-4,0V558.498A7.9139,7.9139,0,0,1,1040.74121,550.85693ZM1042,643.83057V670h-4V642.16943L1054.22949,626h11.278a7.90723,7.90723,0,1,1,0,4h-9.62561ZM1065.24121,607a7.90208,7.90208,0,0,1,15.54822-2h42.62524a7.90723,7.90723,0,1,1,0,4h-42.62524a7.90208,7.90208,0,0,1-15.54822-2ZM1180,670h-4V659h-25.09766l-7.06152-7h-63.05139a7.90723,7.90723,0,1,1,0-4h64.69788l7.06152,7H1176V643.88037L1159.97949,628h-49.19006a7.90723,7.90723,0,1,1,0-4H1161.626L1180,642.21338Zm17.127,0h-4V643.82861l-56.042-56.043h-56.29553a7.90749,7.90749,0,1,1,.00012-4h57.95166l58.38574,58.38574Zm18.0957,0h-4V643.82861l-74.44141-74.44189h-25.9917a7.90747,7.90747,0,1,1-.00012-4h27.64807l76.78516,76.78467Zm16.833,0h-4V643.82861l-90.9707-90.97168h-56.29553a7.90749,7.90749,0,1,1,.00012-4h57.95166l93.31445,93.31445Zm17,0h-4V643.82861L1137.085,535.85693h-26.29553a7.90749,7.90749,0,1,1,.00012-4h27.95166l110.31445,110.31445Zm16,0h-4V642.82715L1138.45606,520h-57.56165a7.9134,7.9134,0,1,1-.21631-4h59.43616l.58691.58691,124.35449,124.58594Zm-4.73926-46.09131a7.89944,7.89944,0,0,1-6.59851-12.25415L1195,553.02979V524h21.50745a7.90723,7.90723,0,1,1,0,4H1199v23.37061l57.69873,57.6073a7.90436,7.90436,0,1,1,3.61768,14.93079Z"/><circle class="cls-1" cx="1110.23315" cy="471.37952" r="3.90759"/><circle class="cls-1" cx="1224.14844" cy="526" r="3.90723"/><path class="cls-1" d="M1073.14844,646.09277A3.90726,3.90726,0,1,0,1077,650.55042v-1.10089A3.90123,3.90123,0,0,0,1073.14844,646.09277Z"/><circle class="cls-1" cx="1251.1145" cy="212.94812" r="3.90759"/><circle class="cls-1" cx="1122.67163" cy="345.14319" r="3.90759"/><circle class="cls-1" cx="1048.64844" cy="266.14319" r="3.90735"/><circle class="cls-1" cx="1269.05566" cy="270.69763" r="3.90735"/><path class="cls-2" d="M1140.11426,516H1080.6781a7.89567,7.89567,0,0,1,.21631,4h57.56165l122.59961,122.82715V670h4V641.17285L1140.70117,516.58691Z"/><path class="cls-2" d="M1080.6781,516a7.89567,7.89567,0,1,0,.37756,2.40723A7.91931,7.91931,0,0,0,1080.6781,516Zm-7.52966,6.31494a3.90747,3.90747,0,1,1,3.90723-3.90771A3.912,3.912,0,0,1,1073.14844,522.31494Z"/><circle class="cls-2" cx="1066.05566" cy="303.90735" r="3.90735"/><path class="cls-2" d="M1064,298v-1.71948a7.908,7.908,0,1,0,4-.02869V298Zm5.96289,5.90723A3.90723,3.90723,0,1,1,1066.05566,300,3.912,3.912,0,0,1,1069.96289,303.90723Z"/><path class="cls-2" d="M1052,220v2.60364a7.90642,7.90642,0,1,0-4-.02869V220Zm-5.85156-5.05176a3.90723,3.90723,0,1,1,3.90723,3.90723A3.912,3.912,0,0,1,1046.14844,214.94824Z"/><circle class="cls-2" cx="1050.05566" cy="147.49939" r="3.90735"/><path class="cls-2" d="M1050.05566,155.40674a7.88939,7.88939,0,0,0,7.14819-11.26587l-1.16382,1.18091-2.84961-2.80762,1.4353-1.4563a7.90343,7.90343,0,1,0-4.57007,14.34888Zm3.90723-7.90723a3.90723,3.90723,0,1,1-3.90723-3.90771A3.91185,3.91185,0,0,1,1053.96289,147.49951Z"/><path class="cls-2" d="M1047.86523,113.3335V112.367a7.90995,7.90995,0,1,0,4-.09814v1.06464Zm6.09766,6.62549a3.90723,3.90723,0,1,1-3.90723-3.90723A3.912,3.912,0,0,1,1053.96289,119.959Z"/><circle class="cls-2" cx="1050.05566" cy="45.07336" r="3.90735"/><path class="cls-2" d="M1047.86523,50.3335h4v2.43036a7.89711,7.89711,0,0,0,.19043-15.33167V39.166h-4V37.43219a7.89776,7.89776,0,0,0-.19043,15.23346Zm6.09766-5.26025a3.90723,3.90723,0,1,1-3.90723-3.90723A3.912,3.912,0,0,1,1053.96289,45.07324Z"/><path class="cls-2" d="M1052.05566,27.90723v1.73383a7.8955,7.8955,0,0,0,0-15.2821v1.73383h-4V14.35895a7.8955,7.8955,0,0,0,0,15.2821V27.90723ZM1046.14844,22a3.90723,3.90723,0,1,1,3.90723,3.90723A3.91185,3.91185,0,0,1,1046.14844,22Z"/><path class="cls-2" d="M1073,96v1.72278a7.90654,7.90654,0,1,0-4-.02875V96Zm-5.85156-5.93311a3.90723,3.90723,0,1,1,3.90723,3.90771A3.91185,3.91185,0,0,1,1067.14844,90.06689Z"/><path class="cls-2" d="M1097.65308,92.37921a3.87059,3.87059,0,0,1-.93335-2.50421,3.90771,3.90771,0,1,1,3.90723,3.90723,3.87015,3.87015,0,0,1-2.50415-.93341l.9563.95636-2.71753,2.71759a7.9014,7.9014,0,1,0-2.71484-2.94147l2.60425-2.60425Z"/><path class="cls-2" d="M1095,69h-2.07617a7.9037,7.9037,0,1,0,.12415-4H1095Zm5.627-5.6665a3.90747,3.90747,0,1,1-3.90723,3.90723A3.91206,3.91206,0,0,1,1100.627,63.3335Z"/><circle class="cls-2" cx="1100.6272" cy="44.45227" r="3.90759"/><path class="cls-2" d="M1105.86621,47.03809l1.51148,1.51147a7.91046,7.91046,0,1,0-2.87085,2.78546l-1.46875-1.46881Zm-5.23926,1.32178a3.90747,3.90747,0,1,1,3.9082-3.90771A3.912,3.912,0,0,1,1100.627,48.35986Z"/><path class="cls-2" d="M1069,52.07928V49h4v3.108a7.90654,7.90654,0,1,0-4-.02875Zm2.05566-11.53436a3.90747,3.90747,0,1,1-3.90723,3.90723A3.91185,3.91185,0,0,1,1071.05566,40.54492Z"/><path class="cls-2" d="M1094.71973,24H1092.986a7.90148,7.90148,0,1,0,14.10217-6.54413l-1.512,1.5119-2.82812-2.82812,1.27136-1.27142A7.87558,7.87558,0,0,0,1092.986,20h1.73376Zm5.90723-5.90723A3.90723,3.90723,0,1,1,1096.71973,22,3.91206,3.91206,0,0,1,1100.627,18.09277Z"/><circle class="cls-2" cx="1071.05566" cy="22" r="3.90723"/><path class="cls-2" d="M1071.05566,29.90723A7.914,7.914,0,0,0,1078.69666,24h-1.73376V20h1.73376a7.87364,7.87364,0,0,0-1.36365-2.78894l-1.75684,1.75671-2.82812-2.82812,1.41089-1.41089a7.9066,7.9066,0,1,0-3.10327,15.17847ZM1074.96289,22a3.90723,3.90723,0,1,1-3.90723-3.90723A3.91185,3.91185,0,0,1,1074.96289,22Z"/><path class="cls-2" d="M1074.47363,343.36865l-1.61719,1.615a7.9431,7.9431,0,1,0-2.94458-2.71185l1.7356-1.73322Zm2.082-9.27588A3.90723,3.90723,0,1,1,1072.64844,338,3.91185,3.91185,0,0,1,1076.55566,334.09277Z"/><circle class="cls-2" cx="1146.31543" cy="502" r="3.90723"/><path class="cls-2" d="M1148.6416,506.41406l2.82813-2.82812,1.92175,1.92175a7.89631,7.89631,0,1,0-2.63,3.02631Zm-2.32617-.50684A3.90723,3.90723,0,1,1,1150.22266,502,3.91185,3.91185,0,0,1,1146.31543,505.90723Z"/><path class="cls-2" d="M1112.06836,466.34619l1.92236-1.92242a7.96154,7.96154,0,1,0,2.91907,2.73724l-2.01331,2.01331Zm-1.835,8.94092a3.90747,3.90747,0,1,1,3.90723-3.90771A3.91216,3.91216,0,0,1,1110.2334,475.28711Z"/><path class="cls-2" d="M1121,341v-3.58252a7.90191,7.90191,0,1,0,4,.16907V341Zm5.5791,4.14307a3.90772,3.90772,0,1,1-3.90723-3.90723A3.912,3.912,0,0,1,1126.5791,345.14307Z"/><path class="cls-2" d="M1102,297v-1.71948a7.908,7.908,0,1,0,4-.02869V297Zm5.96289,5.90723A3.90723,3.90723,0,1,1,1104.05566,299,3.912,3.912,0,0,1,1107.96289,302.90723Z"/><circle class="cls-2" cx="1122.67163" cy="214.94812" r="3.90759"/><path class="cls-2" d="M1121,219h4v3.50476a7.913,7.913,0,1,0-4,.16907Zm1.67188-.14453a3.90747,3.90747,0,1,1,3.90723-3.90723A3.91206,3.91206,0,0,1,1122.67188,218.85547Z"/><path class="cls-2" d="M1124.42871,178.71924l1.81665-1.81586a7.90124,7.90124,0,1,0,3,2.6571l-1.98852,1.98785Zm-1.75684,9.13623a3.90747,3.90747,0,1,1,3.90723-3.90723A3.91206,3.91206,0,0,1,1122.67188,187.85547Z"/><path class="cls-2" d="M1204.251,95.3335v-1.456a7.90821,7.90821,0,1,0,4,0v1.456Zm5.9082,6.18506a3.90772,3.90772,0,1,1-3.9082-3.90723A3.91216,3.91216,0,0,1,1210.15918,101.51855Z"/><circle class="cls-2" cx="1206.25122" cy="57.88818" r="3.90747"/><path class="cls-2" d="M1204.251,62.3335h4v3.19574a7.90723,7.90723,0,1,0-4,0Zm2-.53809a3.90723,3.90723,0,1,1,3.9082-3.90723A3.91185,3.91185,0,0,1,1206.251,61.79541Z"/><path class="cls-2" d="M1100.72949,178.334l1.28125-1.27917a7.95542,7.95542,0,1,0,2.87769,2.77948l-1.33276,1.33075Zm-2.58105,9.52148a3.90747,3.90747,0,1,1,3.90723-3.90723A3.91185,3.91185,0,0,1,1098.14844,187.85547Z"/><path class="cls-2" d="M1075.72949,178.33447l1.36792-1.36584a7.94659,7.94659,0,1,0,2.94031,2.716l-1.48206,1.47992Zm-2.34082,9.521a3.90747,3.90747,0,1,1,3.90723-3.90723A3.91185,3.91185,0,0,1,1073.38867,187.85547Z"/><path class="cls-2" d="M1049.86523,191.85547a7.89568,7.89568,0,0,0,6.458-12.45612l-1.76758,1.7652-2.82617-2.83008,1.52295-1.521a7.90326,7.90326,0,1,0-3.38721,15.042Zm0-11.81494a3.90747,3.90747,0,1,1-3.90723,3.90771A3.91216,3.91216,0,0,1,1049.86523,180.04053Z"/><path class="cls-2" d="M1081,489v-3.23358a7.90791,7.90791,0,1,0,4-.02875V489Zm5.96289,4.39355a3.90723,3.90723,0,1,1-3.90723-3.90771A3.91185,3.91185,0,0,1,1086.96289,493.39355Z"/><path class="cls-2" d="M1083.05566,440.90723A7.90214,7.90214,0,0,0,1085,425.3446V429h-4v-3.62671a7.90234,7.90234,0,0,0,2.05566,15.53394Zm0-11.81445A3.90723,3.90723,0,1,1,1079.14844,433,3.91185,3.91185,0,0,1,1083.05566,429.09277Z"/><circle class="cls-2" cx="1083.05566" cy="386.42676" r="3.90723"/><path class="cls-2" d="M1085,381h-4v-2.2a7.908,7.908,0,1,0,4-.02869Zm-1.94434,1.51953a3.90723,3.90723,0,1,1-3.90723,3.90723A3.91185,3.91185,0,0,1,1083.05566,382.51953Z"/><path class="cls-2" d="M1085,270v3.6554a7.90642,7.90642,0,1,0-4-.02869V270Zm-5.85156-4a3.90723,3.90723,0,1,1,3.90723,3.90723A3.91185,3.91185,0,0,1,1079.14844,266Z"/><circle class="cls-2" cx="1084.05566" cy="214.94812" r="3.90735"/><path class="cls-2" d="M1082,220h4v2.60364a7.90642,7.90642,0,1,0-4-.02869Zm2.05566-1.14453a3.90747,3.90747,0,1,1,3.90723-3.90723A3.91185,3.91185,0,0,1,1084.05566,218.85547Z"/><circle class="cls-2" cx="1123.28711" cy="369.58398" r="3.90723"/><path class="cls-2" d="M1118.58594,371.58594l2.82813,2.82813-2.03491,2.035a7.948,7.948,0,1,0-2.85962-2.79675Zm.79395-2.002a3.90723,3.90723,0,1,1,3.90723,3.90723A3.91185,3.91185,0,0,1,1119.37988,369.584Z"/><path class="cls-2" d="M1271,277v1.35315a7.90642,7.90642,0,1,0-4-.02869V277Zm-5.85156-6.30225a3.90723,3.90723,0,1,1,3.90723,3.90723A3.912,3.912,0,0,1,1265.14844,270.69775Z"/><path class="cls-2" d="M1267,112.053V110h4v2.08167a7.90642,7.90642,0,1,0-4-.02869Zm2.05566-11.53442a3.90747,3.90747,0,1,1-3.90723,3.90771A3.912,3.912,0,0,1,1269.05566,100.51855Z"/><path class="cls-2" d="M1267,74v-.29657a7.90791,7.90791,0,1,0,4-.02875V74Zm5.96289,7.33057a3.90723,3.90723,0,1,1-3.90723-3.90771A3.91185,3.91185,0,0,1,1272.96289,81.33057Z"/><path class="cls-2" d="M1253,219v1.61877a7.90558,7.90558,0,1,0-4-.0589V219Zm-5.793-6.05176a3.90772,3.90772,0,1,1,3.90723,3.90723A3.912,3.912,0,0,1,1247.207,212.94824Z"/><circle class="cls-2" cx="1251.1145" cy="184.49939" r="3.90759"/><path class="cls-2" d="M1255.083,178.82129l.70215-.68817a7.918,7.918,0,1,0,2.53211,3.11981l-.43347.4248Zm-3.96875,9.58545a3.90747,3.90747,0,1,1,3.9082-3.90723A3.91185,3.91185,0,0,1,1251.11426,188.40674Z"/><path class="cls-2" d="M1215.05566,207.04053A7.90262,7.90262,0,0,0,1213,222.575V220h4v2.60364a7.90241,7.90241,0,0,0-1.94434-15.56311Zm0,11.81494a3.90747,3.90747,0,1,1,3.90723-3.90723A3.91185,3.91185,0,0,1,1215.05566,218.85547Z"/><path class="cls-2" d="M1247.54,156.2876l-1.7959,1.796a7.94574,7.94574,0,1,0-2.665-2.99133l1.63281-1.63275Zm2.57422-8.6958a3.90747,3.90747,0,1,1-3.90723,3.90771A3.91216,3.91216,0,0,1,1250.11426,147.5918Z"/><path class="cls-2" d="M1250.52271,39a3.90723,3.90723,0,1,1,3.06592,0H1254v4.06311a7.90654,7.90654,0,1,0-4-.02875V39Z"/><path class="cls-2" d="M1223,43.03436V39h.52271a3.90723,3.90723,0,1,1,3.06592,0H1227v4.06311a7.90654,7.90654,0,1,0-4-.02875Z"/><path class="cls-2" d="M1241,67v1.74817a7.90642,7.90642,0,1,0-4-.02869V67Zm-5.85156-5.90723A3.90723,3.90723,0,1,1,1239.05566,65,3.912,3.912,0,0,1,1235.14844,61.09277Z"/><path class="cls-2" d="M1236,275v1.40326a7.9035,7.9035,0,1,0-4-.12891V275Zm-5.65723-6.30225A3.90772,3.90772,0,1,1,1234.25,272.605,3.912,3.912,0,0,1,1230.34277,268.69775Z"/><path class="cls-2" d="M1202.06055,332.86328l2.04883-2.04071a7.95915,7.95915,0,1,0,2.6145,3.041l-1.84106,1.83374Zm-2.43262,8.374a3.90723,3.90723,0,1,1,3.90723-3.90723A3.91185,3.91185,0,0,1,1199.62793,341.2373Z"/><path class="cls-2" d="M1200.53516,267.69775A3.90724,3.90724,0,1,0,1195,271.2384V269h4v1.78064A3.88859,3.88859,0,0,0,1200.53516,267.69775Z"/><path class="cls-2" d="M1195,271.2384a3.91734,3.91734,0,1,1,4-.45776v4.45978a7.90816,7.90816,0,1,0-4,.19427Z"/><path class="cls-2" d="M1181,350v-2.57635a7.90791,7.90791,0,1,0,4-.02875V350Zm5.96289,5.05078a3.90723,3.90723,0,1,1-3.90723-3.90771A3.91185,3.91185,0,0,1,1186.96289,355.05078Z"/><path class="cls-2" d="M1171.6416,529.41406l-2.0144-2.0144a7.96253,7.96253,0,1,0,3.02612-2.63007l1.81641,1.81635Zm8.42676,2.43164a3.90723,3.90723,0,1,1-3.90723-3.90723A3.91185,3.91185,0,0,1,1180.06836,531.8457Z"/><path class="cls-2" d="M1194.81934,504.168l2.37549-2.37567a7.9261,7.9261,0,1,0,2.967,2.68927l-2.5144,2.51453Zm-1.27344,8.54a3.90747,3.90747,0,1,1,3.9082-3.90771A3.912,3.912,0,0,1,1193.5459,512.708Z"/><path class="cls-2" d="M1174.11133,481.71631l-2.09863-2.09851a7.90123,7.90123,0,1,0,2.65784-2.99847l2.26892,2.26886Zm8.85156,1.478a3.90723,3.90723,0,1,1-3.90723-3.90723A3.912,3.912,0,0,1,1182.96289,483.19434Z"/><path class="cls-2" d="M1220,528h-3.49255a7.90723,7.90723,0,1,0,0-4H1220Zm4.14844-5.90723A3.90723,3.90723,0,1,1,1220.24121,526,3.91185,3.91185,0,0,1,1224.14844,522.09277Z"/><path class="cls-2" d="M1276.77783,353.05029a7.87961,7.87961,0,0,0,2.99426,10.9223v-6.09406a3.75445,3.75445,0,0,1,0-1.6557v-2.43927l-1.13049,1.13049Z"/><path class="cls-2" d="M1279.7721,350.38818v-.2597c-.0553.03058-.10706.06635-.1615.09821Z"/><circle class="cls-2" cx="1260.31641" cy="616.0011" r="3.90735"/><path class="cls-2" d="M1260.31641,608.09375a7.84991,7.84991,0,0,0-3.61768.88416l.83252.83118-2.82617,2.83105-.98718-.9856a7.90268,7.90268,0,1,0,6.59851-3.56079Zm0,11.81494a3.90747,3.90747,0,1,1,3.90723-3.90771A3.912,3.912,0,0,1,1260.31641,619.90869Z"/><path class="cls-2" d="M1222.78125,551.46729l2.26123,2.19305a7.92879,7.92879,0,1,0-2.83875,2.81909l-2.20764-2.14105ZM1214.334,549.647a3.90723,3.90723,0,1,1,3.90723,3.90771A3.91185,3.91185,0,0,1,1214.334,549.647Z"/><circle class="cls-2" cx="1252.96313" cy="543.73962" r="3.90759"/><path class="cls-2" d="M1254.55859,548.08057l2.82813-2.82812,2.42432,2.42438a7.945,7.945,0,1,0-2.80823,2.848Zm-1.5957-.43359a3.90747,3.90747,0,1,1,3.9082-3.90723A3.91185,3.91185,0,0,1,1252.96289,547.647Z"/><path class="cls-2" d="M1079.05566,548.85693h1.73389a7.90747,7.90747,0,1,0-.00012,4h-1.73376Zm-5.90723,5.90723a3.90747,3.90747,0,1,1,3.90723-3.90723A3.91185,3.91185,0,0,1,1073.14844,554.76416Z"/><path class="cls-2" d="M1079.05566,583.78564h1.73389a7.90747,7.90747,0,1,0-.00012,4h-1.73376Zm-5.90723,5.90723a3.90747,3.90747,0,1,1,3.90723-3.90723A3.91185,3.91185,0,0,1,1073.14844,589.69287Z"/><path class="cls-2" d="M1073.14844,614.90723a7.914,7.914,0,0,0,7.641-5.90723H1080v-4h.78943a7.90325,7.90325,0,1,0-7.641,9.90723Zm0-11.81445A3.90723,3.90723,0,1,1,1069.24121,607,3.91185,3.91185,0,0,1,1073.14844,603.09277Z"/><path class="cls-2" d="M1069,630h-3.49255a7.90723,7.90723,0,1,0,0-4H1069Zm4.14844-5.90723A3.90723,3.90723,0,1,1,1069.24121,628,3.91185,3.91185,0,0,1,1073.14844,624.09277Z"/><path class="cls-2" d="M1077,650.55042a3.90723,3.90723,0,1,1,0-1.10089V648h3.78943a7.90723,7.90723,0,1,0,0,4H1077Z"/><path class="cls-2" d="M1125,609h-1.58533a7.90723,7.90723,0,1,0,0-4H1125Zm6.05566-5.90723A3.90723,3.90723,0,1,1,1127.14844,607,3.91185,3.91185,0,0,1,1131.05566,603.09277Z"/><path class="cls-2" d="M1046.64844,579.87793v-1.73376a7.90723,7.90723,0,1,0,4,0v1.73376Zm5.90723,5.90771a3.90723,3.90723,0,1,1-3.90723-3.90771A3.91185,3.91185,0,0,1,1052.55566,585.78564Z"/><circle class="cls-2" cx="1048.64844" cy="550.85681" r="3.90735"/><path class="cls-2" d="M1050.64844,556.76416V558.498a7.89578,7.89578,0,0,0,0-15.28253v1.73376h-4v-1.73376a7.89578,7.89578,0,0,0,0,15.28253v-1.73383Zm-5.90723-5.90723a3.90723,3.90723,0,1,1,3.90723,3.90723A3.912,3.912,0,0,1,1044.74121,550.85693Z"/><path class="cls-2" d="M1050.64844,524.31494v1.73376a7.90723,7.90723,0,1,0-4,0v-1.73376Zm-5.90723-5.90771a3.90723,3.90723,0,1,1,3.90723,3.90771A3.91185,3.91185,0,0,1,1044.74121,518.40723Z"/><path class="cls-2" d="M1048.64844,501.30078a7.8991,7.8991,0,0,0,6.50293-12.395l-1.54785,1.5415-2.82227-2.834,1.32544-1.32013a7.90319,7.90319,0,1,0-3.45825,15.00763Zm0-11.81494a3.90747,3.90747,0,1,1-3.90723,3.90771A3.912,3.912,0,0,1,1048.64844,489.48584Z"/><circle class="cls-2" cx="1048.64844" cy="433.14319" r="3.90735"/><path class="cls-2" d="M1050.64844,439.05078v1.73376a7.89578,7.89578,0,0,0,0-15.28253v1.73383h-4V425.502a7.89578,7.89578,0,0,0,0,15.28253v-1.73376Zm1.90723-5.90771a3.90723,3.90723,0,1,1-3.90723-3.90723A3.912,3.912,0,0,1,1052.55566,433.14307Z"/><path class="cls-2" d="M1046.64844,457.36084V455.627a7.90723,7.90723,0,1,0,4,0v1.73383Zm5.90723,5.90723a3.90723,3.90723,0,1,1-3.90723-3.90723A3.912,3.912,0,0,1,1052.55566,463.26807Z"/><path class="cls-2" d="M1050.64844,271.05078v2.73376a7.90723,7.90723,0,1,0-4,0v-2.73376Zm-5.90723-4.90771a3.90723,3.90723,0,1,1,3.90723,3.90771A3.91185,3.91185,0,0,1,1044.74121,266.14307Z"/><circle class="cls-2" cx="1103.14844" cy="533.85681" r="3.90735"/><path class="cls-2" d="M1109.05566,531.85693h1.73389a7.90747,7.90747,0,1,0-.00012,4h-1.73376Zm-5.90723,5.90723a3.90747,3.90747,0,1,1,3.90723-3.90723A3.91185,3.91185,0,0,1,1103.14844,537.76416Z"/><circle class="cls-2" cx="1103.14844" cy="567.38684" r="3.90735"/><path class="cls-2" d="M1109.05566,565.38672h1.73376a7.90749,7.90749,0,1,0,.00012,4h-1.73389Zm-5.90723,5.90771a3.90747,3.90747,0,1,1,3.90723-3.90771A3.912,3.912,0,0,1,1103.14844,571.29443Z"/><circle class="cls-2" cx="1103.14844" cy="626" r="3.90723"/><path class="cls-2" d="M1109,624h1.78943a7.90723,7.90723,0,1,0,0,4H1109Zm-5.85156,5.90723A3.90723,3.90723,0,1,1,1107.05566,626,3.91185,3.91185,0,0,1,1103.14844,629.90723Z"/><polygon class="cls-2" points="1110.79 531.857 1109.056 531.857 1109.056 535.857 1110.789 535.857 1137.085 535.857 1245.056 643.829 1245.056 670 1249.056 670 1249.056 642.171 1138.741 531.857 1110.79 531.857"/><polygon class="cls-2" points="1080.79 548.857 1079.056 548.857 1079.056 552.857 1080.789 552.857 1137.085 552.857 1228.056 643.829 1228.056 670 1232.056 670 1232.056 642.171 1138.741 548.857 1080.79 548.857"/><polygon class="cls-2" points="1110.789 565.387 1109.056 565.387 1109.056 569.387 1110.79 569.387 1136.781 569.387 1211.223 643.829 1211.223 670 1215.223 670 1215.223 642.171 1138.438 565.387 1110.789 565.387"/><polygon class="cls-2" points="1080.79 583.786 1079.056 583.786 1079.056 587.786 1080.789 587.786 1137.085 587.786 1193.127 643.829 1193.127 670 1197.127 670 1197.127 642.171 1138.741 583.786 1080.79 583.786"/><polygon class="cls-2" points="1050.648 544.949 1050.648 543.215 1050.648 526.049 1050.648 524.315 1046.648 524.315 1046.648 526.049 1046.648 543.215 1046.648 544.949 1050.648 544.949"/><polygon class="cls-2" points="1046.648 579.878 1050.648 579.878 1050.648 578.144 1050.648 558.498 1050.648 556.764 1046.648 556.764 1046.648 558.498 1046.648 578.144 1046.648 579.878"/><polygon class="cls-2" points="1257.531 609.809 1256.699 608.978 1199 551.371 1199 528 1216.507 528 1220 528 1220 524 1216.507 524 1195 524 1195 553.03 1253.718 611.655 1254.705 612.64 1257.531 609.809"/><polygon class="cls-2" points="1160.194 515.139 1161.608 513.725 1153.391 505.508 1151.47 503.586 1148.642 506.414 1150.761 508.534 1169.627 527.4 1171.642 529.414 1174.47 526.586 1172.653 524.77 1164.437 516.553 1163.022 517.967 1160.194 515.139"/><polygon class="cls-2" points="1271.331 384.78 1268.503 387.608 1267.089 386.194 1261.383 391.9 1262.912 393.443 1260.07 396.258 1258.554 394.729 1254.033 399.25 1255.515 400.728 1252.69 403.561 1251.204 402.079 1246.27 407.013 1247.697 408.446 1244.863 411.27 1243.441 409.842 1234.25 419.033 1235.664 420.447 1232.836 423.275 1231.422 421.861 1226.604 426.68 1228.018 428.094 1225.189 430.922 1223.775 429.508 1219.241 434.042 1220.655 435.457 1217.827 438.285 1216.413 436.87 1212.111 441.172 1213.525 442.586 1210.697 445.414 1209.283 444 1194.283 459 1279.772 544.489 1279.772 538.832 1199.939 459 1279.772 379.168 1279.772 373.511 1269.917 383.366 1271.331 384.78"/><polygon class="cls-2" points="1213.525 442.586 1212.111 441.172 1196.619 425.679 1166.362 455.937 1204.706 494.281 1197.195 501.792 1194.819 504.168 1197.647 506.996 1200.162 504.482 1210.362 494.281 1172.019 455.937 1196.619 431.336 1209.283 444 1210.697 445.414 1213.525 442.586"/><polygon class="cls-2" points="1220.655 435.457 1219.241 434.042 1196.678 411.479 1150.275 457.881 1172.013 479.618 1174.111 481.716 1176.939 478.888 1174.671 476.619 1155.932 457.881 1196.678 417.136 1216.413 436.87 1217.827 438.285 1220.655 435.457"/><polygon class="cls-2" points="1228.018 428.094 1226.604 426.68 1196.909 396.984 1133.228 460.667 1173.947 501.386 1161.608 513.725 1160.194 515.139 1163.022 517.967 1164.437 516.553 1179.604 501.386 1138.884 460.667 1196.909 402.642 1223.775 429.508 1225.189 430.922 1228.018 428.094"/><polygon class="cls-2" points="1235.664 420.447 1234.25 419.033 1196.815 381.598 1113.991 464.424 1112.068 466.346 1114.896 469.174 1116.91 467.161 1196.815 387.255 1231.422 421.861 1232.836 423.275 1235.664 420.447"/><polygon class="cls-2" points="1269.785 340.4 1245.54 364.646 1267.089 386.194 1268.503 387.608 1271.331 384.78 1269.917 383.366 1251.196 364.646 1269.785 346.058 1276.778 353.05 1278.642 354.914 1279.772 353.784 1279.772 350.388 1279.611 350.227 1269.785 340.4"/><polygon class="cls-2" points="1247.697 408.446 1246.27 407.013 1221.21 381.857 1201.081 361.763 1236 326.751 1236 276.403 1236 275 1232 275 1232 276.274 1232 325.098 1195.425 361.769 1218.38 384.684 1243.441 409.842 1244.863 411.27 1247.697 408.446"/><polygon class="cls-2" points="1255.515 400.728 1254.033 399.25 1232.593 377.873 1217.329 362.517 1253 327.922 1253 220.619 1253 219 1249 219 1249 220.56 1249 326.23 1211.638 362.465 1229.762 380.699 1251.204 402.079 1252.69 403.561 1255.515 400.728"/><polygon class="cls-2" points="1262.912 393.443 1261.383 391.9 1240.092 370.415 1233.963 364.277 1271 327.093 1271 278.353 1271 277 1267 277 1267 278.324 1267 325.441 1228.314 364.28 1237.256 373.236 1258.554 394.729 1260.07 396.258 1262.912 393.443"/><polygon class="cls-2" points="1279.772 501.716 1279.772 416.284 1237.056 459 1279.772 501.716"/><polygon class="cls-2" points="1238.797 567 1225.042 553.66 1222.781 551.467 1219.996 554.338 1222.204 556.479 1237.176 571 1252.224 571 1279.772 598.732 1279.772 593.057 1253.888 567 1238.797 567"/><polygon class="cls-2" points="1257.387 545.252 1254.559 548.081 1257.003 550.525 1279.772 573.294 1279.772 567.638 1259.811 547.677 1257.387 545.252"/><rect class="cls-2" x="1164.82443" y="389.90341" width="14.94477" height="5.28123" transform="translate(65.78725 943.91251) rotate(-45)"/><rect class="cls-2" x="1150.29966" y="404.42816" width="14.94486" height="5.28123" transform="translate(51.25817 937.88714) rotate(-44.99953)"/><rect class="cls-2" x="1135.80698" y="418.9208" width="14.94488" height="5.2812" transform="translate(36.76986 931.89311) rotate(-45)"/><rect class="cls-2" x="1121.29843" y="433.42947" width="14.94477" height="5.28123" transform="translate(22.2612 925.88347) rotate(-45)"/><polygon class="cls-2" points="1110.789 624 1109 624 1109 628 1110.789 628 1159.979 628 1176 643.88 1176 655 1176 659 1176 670 1180 670 1180 642.213 1161.626 624 1110.789 624"/><polygon class="cls-2" points="1080 609 1080.789 609 1123.415 609 1125 609 1125 605 1123.415 605 1080.789 605 1080 605 1080 609"/><polygon class="cls-2" points="1152.549 655 1145.487 648 1080.789 648 1077 648 1077 649.45 1077 650.55 1077 652 1080.789 652 1143.841 652 1150.902 659 1176 659 1176 655 1152.549 655"/><polygon class="cls-2" points="1069 630 1069 626 1065.507 626 1054.229 626 1038 642.169 1038 670 1042 670 1042 643.831 1055.882 630 1065.507 630 1069 630"/><polygon class="cls-2" points="1102 437 1102 436.116 1081 457.173 1081 485.766 1081 489 1085 489 1085 485.738 1085 458.827 1171 372.593 1171 212.83 1254 130.007 1254 43.063 1254 39 1253.589 39 1250.523 39 1250 39 1250 43.034 1250 128.348 1167 211.17 1167 370.939 1106 432.105 1106 437 1102 437"/><polygon class="cls-2" points="1141 378 1141 377.154 1102 416.172 1102 436.116 1102 437 1106 437 1106 432.105 1106 417.828 1158 365.804 1158 205.829 1241 122.937 1241 68.748 1241 67 1237 67 1237 68.719 1237 121.279 1154 204.171 1154 364.148 1145 373.152 1145 378 1141 378"/><polygon class="cls-2" points="1226.589 39 1223.523 39 1223 39 1223 43.034 1223 114.548 1141 196.169 1141 377.154 1141 378 1145 378 1145 373.152 1145 197.831 1227 116.21 1227 43.063 1227 39 1226.589 39"/><polygon class="cls-2" points="1247.54 156.288 1244.712 153.459 1243.079 155.092 1181 217.171 1181 347.424 1181 350 1185 350 1185 347.395 1185 316.257 1184.499 316.749 1181.696 313.895 1185 310.65 1185 218.829 1245.744 158.084 1247.54 156.288"/><polygon class="cls-2" points="1213 220 1213 222.575 1213 321.967 1204.109 330.823 1202.061 332.863 1204.883 335.697 1206.724 333.864 1217 323.628 1217 222.604 1217 220 1213 220"/><polygon class="cls-2" points="1184.499 316.749 1185 316.257 1199 302.509 1199 275.24 1199 270.781 1199 269 1195 269 1195 271.238 1195 275.435 1195 300.831 1185 310.65 1181.696 313.895 1184.499 316.749"/><polygon class="cls-2" points="1085 429 1085 425.345 1085 410.829 1119.379 376.449 1121.414 374.414 1118.586 371.586 1116.52 373.652 1081 409.171 1081 425.373 1081 429 1085 429"/><polygon class="cls-2" points="1121 341 1125 341 1125 337.587 1125 222.505 1125 219 1121 219 1121 222.674 1121 337.417 1121 341"/><polygon class="cls-2" points="1081 367.164 1081 378.8 1081 381 1085 381 1085 378.771 1085 368.836 1104 350.086 1104 325.194 1085 305.444 1085 273.655 1085 270 1081 270 1081 273.627 1081 307.056 1100 326.806 1100 348.414 1081 367.164"/><polygon class="cls-2" points="1086 220 1082 220 1082 222.575 1082 233.314 1102 253.814 1102 295.281 1102 297 1106 297 1106 295.252 1106 252.186 1086 231.686 1086 222.604 1086 220"/><polygon class="cls-2" points="1053.604 490.447 1055.151 488.906 1065 479.098 1065 352.829 1072.856 344.984 1074.474 343.369 1071.647 340.539 1069.912 342.272 1061 351.171 1061 477.436 1052.107 486.293 1050.781 487.613 1053.604 490.447"/><polygon class="cls-2" points="1050.648 427.236 1050.648 425.502 1050.648 273.785 1050.648 271.051 1046.648 271.051 1046.648 273.785 1046.648 425.502 1046.648 427.236 1050.648 427.236"/><polygon class="cls-2" points="1046.648 457.361 1050.648 457.361 1050.648 455.627 1050.648 440.785 1050.648 439.051 1046.648 439.051 1046.648 440.785 1046.648 455.627 1046.648 457.361"/><polygon class="cls-2" points="1064 298 1068 298 1068 296.252 1068 248.167 1052 232.295 1052 222.604 1052 220 1048 220 1048 222.575 1048 233.961 1064 249.833 1064 296.281 1064 298"/><polygon class="cls-2" points="1186 117.171 1126.245 176.903 1124.429 178.719 1127.257 181.548 1129.245 179.56 1190 118.829 1190 37.98 1217 10.826 1217 0 1213 0 1213 9.175 1186 36.33 1186 117.171"/><polygon class="cls-2" points="1168 111.17 1102.011 177.055 1100.729 178.334 1103.556 181.165 1104.888 179.834 1172 112.83 1172 32.315 1194 9.815 1194 0 1190 0 1190 8.185 1168 30.685 1168 111.17"/><polygon class="cls-2" points="1075.729 178.334 1078.556 181.165 1080.038 179.685 1154 105.829 1154 26.311 1170 9.811 1170 0 1166 0 1166 8.189 1150 24.689 1150 104.171 1077.097 176.969 1075.729 178.334"/><polygon class="cls-2" points="1054.556 181.165 1056.323 179.399 1136 99.829 1136 20.3 1146 9.8 1146 0 1142 0 1142 8.2 1132 18.7 1132 98.171 1120 110.155 1120 115 1116 115 1116 114.15 1053.252 176.813 1051.729 178.334 1054.556 181.165"/><polygon class="cls-2" points="1204.251 95.333 1208.251 95.333 1208.251 93.878 1208.251 65.529 1208.251 62.333 1204.251 62.333 1204.251 65.529 1204.251 93.878 1204.251 95.333"/><circle class="cls-2" cx="1238.51758" cy="14" r="3.90723"/><path class="cls-2" d="M1242.96289,16V12h3.19568a7.90723,7.90723,0,1,0,0,4Zm-4.44531,1.90723A3.90723,3.90723,0,1,1,1242.42481,14,3.91185,3.91185,0,0,1,1238.51758,17.90723Z"/><polygon class="cls-2" points="1242.963 12 1242.963 16 1246.159 16 1279.772 16 1279.772 12 1246.159 12 1242.963 12"/><polygon class="cls-2" points="1267 110 1267 112.053 1267 167.142 1255.785 178.133 1255.083 178.821 1257.884 181.678 1258.317 181.253 1271 168.823 1271 112.082 1271 110 1267 110"/><polygon class="cls-2" points="1267 73.703 1267 74 1271 74 1271 73.675 1271 45.829 1279.772 37.056 1279.772 31.399 1267 44.171 1267 73.703"/><polygon class="cls-2" points="1053.19 142.514 1056.04 145.322 1057.204 144.141 1073 128.112 1073 119.884 1072.47 120.414 1069.642 117.586 1073 114.228 1073 97.723 1073 96 1069 96 1069 97.694 1069 126.473 1054.626 141.058 1053.19 142.514"/><polygon class="cls-2" points="1072.47 120.414 1073 119.884 1096.362 96.523 1099.079 93.805 1098.123 92.849 1097.653 92.379 1096.251 90.977 1093.647 93.581 1073 114.228 1069.642 117.586 1072.47 120.414"/><polygon class="cls-2" points="1120 115 1120 110.155 1120 61.171 1107.378 48.55 1105.866 47.038 1103.038 49.866 1104.507 51.335 1116 62.829 1116 114.15 1116 115 1120 115"/><polygon class="cls-2" points="1069 49 1069 52.079 1069 69 1092.924 69 1095 69 1095 65 1093.048 65 1073 65 1073 52.108 1073 49 1069 49"/><polygon class="cls-2" points="1076.963 24 1078.697 24 1092.986 24 1094.72 24 1094.72 20 1092.986 20 1078.697 20 1076.963 20 1076.963 24"/><polygon class="cls-2" points="1047.865 113.333 1051.865 113.333 1051.865 112.269 1051.865 52.764 1051.865 50.333 1047.865 50.333 1047.865 52.666 1047.865 112.367 1047.865 113.333"/><polygon class="cls-2" points="1052.056 39.166 1052.056 37.432 1052.056 29.641 1052.056 27.907 1048.056 27.907 1048.056 29.641 1048.056 37.432 1048.056 39.166 1052.056 39.166"/><polygon class="cls-2" points="1105.576 18.968 1107.088 17.456 1115 9.544 1115 0 1111 0 1111 7.887 1104.019 14.868 1102.748 16.14 1105.576 18.968"/><polygon class="cls-2" points="1075.576 18.968 1077.333 17.211 1085 9.544 1085 0 1081 0 1081 7.887 1074.159 14.729 1072.748 16.14 1075.576 18.968"/><polygon class="cls-2" points="1052.056 16.093 1052.056 14.359 1052.056 0 1048.056 0 1048.056 14.359 1048.056 16.093 1052.056 16.093"/><rect class="cls-3" x="159" width="948.96289" height="670"/></g></g></svg>