<svg xmlns="http://www.w3.org/2000/svg" width="26.64556" height="26.64556" viewBox="0 0 26.64556 26.64556"><defs><style>.cls-1{fill:#fff;}</style></defs><title>insta</title><g id="Layer_2" data-name="Layer 2"><g id="Layer_1-2" data-name="Layer 1"><path class="cls-1" d="M13.32278,2.4005c3.55734,0,3.9787.01357,5.38354.07766a7.37194,7.37194,0,0,1,2.47386.45874A4.12779,4.12779,0,0,1,22.712,3.9335a4.12778,4.12778,0,0,1,.99661,1.53189,7.37188,7.37188,0,0,1,.45874,2.47384c.06409,1.40486.07766,1.82622.07766,5.38356s-.01357,3.9787-.07766,5.38354a7.37194,7.37194,0,0,1-.45874,2.47386,4.412,4.412,0,0,1-2.52848,2.52848,7.37194,7.37194,0,0,1-2.47386.45874c-1.40464.06409-1.826.07766-5.38354.07766s-3.9789-.01357-5.38354-.07766a7.37191,7.37191,0,0,1-2.47386-.45874,4.12774,4.12774,0,0,1-1.53187-.99659,4.12784,4.12784,0,0,1-.99661-1.53188,7.37191,7.37191,0,0,1-.45874-2.47384c-.06409-1.40486-.07766-1.82621-.07766-5.38355s.01357-3.9787.07766-5.38354a7.37191,7.37191,0,0,1,.45874-2.47386A4.12776,4.12776,0,0,1,3.9335,3.93352a4.1278,4.1278,0,0,1,1.53189-.99661,7.37188,7.37188,0,0,1,2.47384-.45874c1.40486-.06409,1.82622-.07766,5.38356-.07766m0-2.4005c-3.61826,0-4.072.01532-5.493.08016a9.7788,9.7788,0,0,0-3.234.61927A6.53062,6.53062,0,0,0,2.2361,2.2361,6.53062,6.53062,0,0,0,.69943,4.59584a9.7788,9.7788,0,0,0-.61927,3.234C.01532,9.25083,0,9.70452,0,13.32278s.01532,4.07195.08016,5.493a9.7788,9.7788,0,0,0,.61927,3.234A6.53068,6.53068,0,0,0,2.2361,24.40947a6.53056,6.53056,0,0,0,2.35974,1.53667,9.77873,9.77873,0,0,0,3.234.61927c1.421.06484,1.87471.08016,5.493.08016s4.07195-.01531,5.493-.08016a9.77872,9.77872,0,0,0,3.234-.61927,6.81246,6.81246,0,0,0,3.89641-3.89641,9.77872,9.77872,0,0,0,.61927-3.234c.06483-1.421.08016-1.8747.08016-5.493s-.01533-4.072-.08016-5.493a9.77873,9.77873,0,0,0-.61927-3.234A6.53056,6.53056,0,0,0,24.40947,2.2361,6.53061,6.53061,0,0,0,22.04973.69943a9.7788,9.7788,0,0,0-3.234-.61927C17.39473.01532,16.941,0,13.32278,0Z"/><path class="cls-1" d="M13.32278,6.48135a6.84143,6.84143,0,1,0,6.84143,6.84143A6.84143,6.84143,0,0,0,13.32278,6.48135Zm0,11.28235a4.44093,4.44093,0,1,1,4.44093-4.44092A4.44093,4.44093,0,0,1,13.32278,17.76371Z"/><circle class="cls-1" cx="20.43452" cy="6.21105" r="1.59873"/></g></g></svg>