<svg xmlns="http://www.w3.org/2000/svg" width="242" height="670" viewBox="0 0 242 670"><defs><style>.cls-1{fill:none;}.cls-2{fill:#d8d8d8;}</style></defs><title>left-bg-pat</title><g id="Layer_2" data-name="Layer 2"><g id="Layer_1-2" data-name="Layer 1"><circle class="cls-1" cx="176" cy="367.09265" r="3.90735"/><circle class="cls-1" cx="197" cy="237" r="3.90723"/><circle class="cls-1" cx="197" cy="404" r="3.90723"/><circle class="cls-1" cx="73.80457" cy="568.48132" r="3.90747"/><circle class="cls-1" cx="157.38428" cy="324.85681" r="3.90735"/><circle class="cls-1" cx="197" cy="176.60657" r="3.90735"/><path class="cls-1" d="M24.09277,634.59277A3.90723,3.90723,0,1,0,29.533,631H26.467A3.9126,3.9126,0,0,0,24.09277,634.59277Z"/><circle class="cls-1" cx="203.5" cy="332" r="3.90723"/><circle class="cls-1" cx="41" cy="608.90735" r="3.90735"/><circle class="cls-1" cx="181.90735" cy="486.05188" r="3.90747"/><circle class="cls-1" cx="11" cy="588.66956" r="3.90735"/><circle class="cls-1" cx="230" cy="455.05188" r="3.90735"/><circle class="cls-1" cx="206.90735" cy="63" r="3.90735"/><circle class="cls-1" cx="231.40735" cy="176.60657" r="3.90747"/><path class="cls-1" d="M51.09277,634.59277A3.90723,3.90723,0,1,0,56.533,631H53.467A3.9126,3.9126,0,0,0,51.09277,634.59277Z"/><circle class="cls-1" cx="206.90735" cy="42" r="3.90735"/><circle class="cls-1" cx="157.38428" cy="486.05188" r="3.90735"/><circle class="cls-1" cx="206.66699" cy="486.05188" r="3.90735"/><path class="cls-1" d="M0,311.3031v3.2926a3.86573,3.86573,0,0,0,.37646-1.64648A3.8643,3.8643,0,0,0,0,311.3031Z"/><circle class="cls-1" cx="11" cy="565.57385" r="3.90735"/><circle class="cls-1" cx="206.90735" cy="151.59265" r="3.90747"/><circle class="cls-1" cx="169.82275" cy="198.62048" r="3.90735"/><circle class="cls-1" cx="206.90735" cy="84.21448" r="3.90747"/><circle class="cls-1" cx="80.42786" cy="332.66992" r="3.90735"/><circle class="cls-1" cx="86.5094" cy="161.19958" r="3.90747"/><circle class="cls-1" cx="179.42859" cy="648" r="3.90735"/><circle class="cls-1" cx="55.90735" cy="144" r="3.90735"/><circle class="cls-1" cx="45.80554" cy="401.30237" r="3.90747"/><circle class="cls-1" cx="103.89465" cy="138.1543" r="3.90735"/><circle class="cls-1" cx="101" cy="186.80554" r="3.90735"/><path class="cls-1" d="M4.37646,312.94922a7.84775,7.84775,0,0,1-1.09839,4.00061l6.99292,6.99255,18.58789-18.58789-18.72-18.72046L0,296.77295v9.11139A7.90934,7.90934,0,0,1,4.37646,312.94922Z"/><circle class="cls-1" cx="97" cy="314.94934" r="3.90735"/><circle class="cls-1" cx="61.81482" cy="120.35291" r="3.90747"/><circle class="cls-1" cx="231.40735" cy="84.21448" r="3.90747"/><circle class="cls-1" cx="65" cy="455.05188" r="3.90735"/><circle class="cls-1" cx="28.94128" cy="457.05188" r="3.90747"/><circle class="cls-1" cx="11" cy="399.30237" r="3.90735"/><polygon class="cls-1" points="0 130.884 0 168 43 211 0 254 0 291.116 80.116 211 0 130.884"/><circle class="cls-1" cx="29.94128" cy="518.50061" r="3.90747"/><circle class="cls-1" cx="206.90735" cy="119.14319" r="3.90747"/><circle class="cls-1" cx="209" cy="625.54773" r="3.90735"/><circle class="cls-1" cx="231.40735" cy="403.85681" r="3.90747"/><circle class="cls-1" cx="149" cy="63" r="3.90723"/><circle class="cls-1" cx="230" cy="550.04089" r="3.90735"/><circle class="cls-1" cx="230.19006" cy="486.05188" r="3.90747"/><circle class="cls-1" cx="206.90735" cy="20" r="3.90735"/><circle class="cls-1" cx="230" cy="648" r="3.90723"/><circle class="cls-1" cx="231.40735" cy="206.73181" r="3.90747"/><circle class="cls-1" cx="179.42859" cy="602.75916" r="3.90747"/><path class="cls-1" d="M175.521,580.125a3.90747,3.90747,0,1,0,7.81494,0,3.87072,3.87072,0,0,0-.93555-2.50684l-.46484-.46484a3.87072,3.87072,0,0,0-2.50684-.93555A3.912,3.912,0,0,0,175.521,580.125Z"/><path class="cls-1" d="M82.92871,0h4V26.17139l56.043,56.043h56.29456a7.9076,7.9076,0,1,1-.00006,4H141.31445L82.92871,27.82861ZM64.8335,0h4V26.17139l74.44189,74.44189h25.99078a7.90735,7.90735,0,1,1,.00006,4H141.61816L64.8335,27.82861ZM48,0h4V26.17139l90.97168,90.97168h56.29456a7.9076,7.9076,0,1,1-.00006,4H141.31445l-.58545-.58594L48,27.82861ZM31,0h4V26.17139L142.97168,134.14307h26.29456a7.9076,7.9076,0,1,1-.00006,4H141.31445l-.58545-.58594L31,27.82861ZM85,146H63.54871a7.90723,7.90723,0,1,1,0-4H81V118.62939L23.31927,61.0401a7.9029,7.9029,0,1,1,2.99738-2.66016L85,116.97021Zm54.94141,8L15,28.82715V0h4V27.17285L141.60059,150h57.56067a7.9134,7.9134,0,1,1,.21631,4Zm14.76025,72.77893,3.73438,3.73438-10.56757,10.56763L144.134,237.3465ZM140.19293,241.2876l3.73444,3.73438L133.35974,255.5896l-3.73437-3.73437Zm-14.49261,14.49261,3.73444,3.73444-10.56763,10.56757-3.73437-3.73437ZM111.1756,270.305l3.73438,3.73438L104.34235,284.607l-3.73437-3.73444ZM63,447.41077V346.37158l10.3139-10.27234a7.91379,7.91379,0,1,1,2.60089,3.05444L67,348.03271v99.37805a7.90723,7.90723,0,1,1-4,0Zm32,3.76062V359.34882l-10,9.82013v25.384a7.91347,7.91347,0,1,1-4,.22711V367.49121L95,353.743V322.5907a7.90723,7.90723,0,1,1,4,0V452.82861L36.95813,514.87a7.92,7.92,0,1,1-2.68158-2.97473ZM11,573.48145a7.90236,7.90236,0,0,1-2-15.54871V501.17725l12.72113-12.46686A7.95,7.95,0,1,1,24.239,491.8432L13,502.85791v55.07483a7.90236,7.90236,0,0,1-2,15.54871ZM55,642.5a7.90236,7.90236,0,0,1-2-15.54871V553.79l82-81.62109V296.8479l-9,9.00415V465.8291L43,548.72119v52.545a7.90723,7.90723,0,1,1-4,0V547.063l83-82.89209V304.1958l52-52.02393V237.89465l-61,61.16589v159.769L30,541.65234v85.299a7.90723,7.90723,0,1,1-4,0V539.99316l83-82.82275V297.40723l86-86.23389V184.24792a7.90723,7.90723,0,1,1,4,0v28.57874l-21,21.05713v19.94434l-39,39.01794v180.985L57,555.45215v71.49915A7.90236,7.90236,0,0,1,55,642.5ZM199,362.94434V396.359a7.90723,7.90723,0,1,1-4,0V364.55566l-19-19.75V319.91357l19-18.75v-9.94934a7.90723,7.90723,0,1,1,4,0v11.62219l-19,18.75v21.60791ZM174,417.814v-43.0802a7.90723,7.90723,0,1,1,4,0V416.186l20,20.5v10.72473a7.90723,7.90723,0,1,1-4,0V438.314Zm25-173.173v16.18762l-35.485,35.4845a7.90847,7.90847,0,1,1-2.87311-2.78314L195,259.17139V244.641a7.90723,7.90723,0,1,1,4,0ZM165.2915,455.05176A7.90723,7.90723,0,1,1,155,447.51367V332.395a7.90584,7.90584,0,1,1,4,.202V447.31171A7.92039,7.92039,0,0,1,165.2915,455.05176ZM81.71191,612.11182a7.90748,7.90748,0,1,1-9.90723-7.64105V576.1225a7.90735,7.90735,0,1,1,4-.00006v28.34839A7.9144,7.9144,0,0,1,81.71191,612.11182ZM67,670H63V659.17432L90,632.02V551.17139l60.78955-60.76685a7.93911,7.93911,0,1,1,2.98352,2.67377L94,552.82861v80.8418l-27,27.1543Zm23,0H86v-9.81543l22-22.5V557.17041l67.146-67.03967a7.91429,7.91429,0,1,1,2.8642,2.79315L112,558.82959v80.48584l-22,22.5Zm40-24.68945-16,16.5V670h-4v-9.81055l16-16.5V564.1709l73.99683-73.8905a7.88411,7.88411,0,1,1,2.92377,2.73267L130,565.8291Zm102-209.272v11.37219a7.90723,7.90723,0,1,1-4,0v-9.70618L212,421.833V373.73376a7.90723,7.90723,0,1,1,4,0V420.167ZM209,655.90723a7.85677,7.85677,0,0,1-3.14093-.6543L199,662.11279V670h-4v-9.54443l7.69873-7.69873A7.871,7.871,0,0,1,201.359,650H187.0697a7.87547,7.87547,0,0,1-11.07123,5.11346L169,662.11279V670h-4v-9.54443l7.94373-7.94373A7.90061,7.90061,0,1,1,187.0697,646H201.359A7.90325,7.90325,0,1,1,209,655.90723Zm0-22.45215a7.90236,7.90236,0,0,1-2-15.54871V605H187.00769a7.91112,7.91112,0,1,1,.12408-4H211v16.90637a7.90236,7.90236,0,0,1-2,15.54871Zm28.90723-8.52832A7.9144,7.9144,0,0,1,232,632.56775V640.359a7.89542,7.89542,0,0,1,0,15.282V670h-4V655.641a7.89542,7.89542,0,0,1,0-15.282v-7.79126a7.897,7.897,0,0,1,.18994-15.33142V557.731a7.90439,7.90439,0,1,1,4-.0979v59.70123A7.91691,7.91691,0,0,1,237.90723,624.92676ZM230,530.4082a7.85458,7.85458,0,0,1-4.60193-1.49011L211,543.52734v28.76428a7.90723,7.90723,0,1,1-4,0v-16.4635l-20.59094,20.59094a7.94558,7.94558,0,1,1-2.71472-2.94153L207,550.17188V541.8877l15.83392-16.06592A7.90111,7.90111,0,1,1,230,530.4082Zm.18994-36.44873a7.84541,7.84541,0,0,1-3.42468-.7912L164,555.85034v51.321l11.51428,11.51471a7.94771,7.94771,0,1,1-2.85718,2.79913L160,608.82861V559.845L148,571.8291v79.4707l-10,10.5V670h-4v-9.7998l10-10.5V570.1709l79.70862-79.60254a7.9014,7.9014,0,1,1,6.48132,3.39111Zm9.125-257.10254a7.91428,7.91428,0,0,1-5.90771,7.64105V396.21539a7.90735,7.90735,0,1,1-4,.00006V244.49792a7.89574,7.89574,0,0,1,0-15.28247V214.37292a7.9076,7.9076,0,1,1,4,.00006v14.84241A7.91453,7.91453,0,0,1,239.31494,236.85693ZM223.5,119.14307a7.9144,7.9144,0,0,1,5.90723-7.641V91.85583a7.9076,7.9076,0,1,1,4,.00006V111.502a7.89565,7.89565,0,0,1,0,15.28259v17.16663a7.90735,7.90735,0,1,1-4,.00006V126.78455A7.91459,7.91459,0,0,1,223.5,119.14307ZM215,190.90088l9.89056-9.82507a7.96089,7.96089,0,1,1,3.03772,2.621L219,192.56592v126.2627l-8.8728,8.87238a7.9164,7.9164,0,1,1-2.95758-2.69885L215,317.17139ZM206.90723,55.09277A7.90723,7.90723,0,1,1,199.26624,65H156.641a7.90723,7.90723,0,1,1,0-4h42.62524A7.9144,7.9144,0,0,1,206.90723,55.09277Zm0-27.18555A7.9144,7.9144,0,0,1,199.26624,22H134.56885l-7.062-7H104V26.11768L120.07422,42h49.192a7.90723,7.90723,0,1,1,0,4H118.43164L100,27.78857V0h4V11h25.15332l7.062,7h63.0509a7.90347,7.90347,0,1,1,7.641,9.90723Z"/><circle class="cls-1" cx="231.40735" cy="151.59265" r="3.90747"/><circle class="cls-1" cx="209" cy="579.93298" r="3.90735"/><path class="cls-2" d="M199,151.59277A7.9143,7.9143,0,0,1,199.16125,150H141.60059L19,27.17285V0H15V28.82715L139.94141,154h59.43616A7.87241,7.87241,0,0,1,199,151.59277Z"/><path class="cls-2" d="M199.37756,154A7.89567,7.89567,0,1,0,199,151.59277,7.9196,7.9196,0,0,0,199.37756,154Zm7.52966-6.31494A3.90747,3.90747,0,1,1,203,151.59277,3.91206,3.91206,0,0,1,206.90723,147.68506Z"/><circle class="cls-2" cx="214" cy="366.09265" r="3.90735"/><path class="cls-2" d="M216,372v1.73376a7.90723,7.90723,0,1,0-4,0V372Zm-5.90723-5.90723A3.90723,3.90723,0,1,1,214,370,3.912,3.912,0,0,1,210.09277,366.09277Z"/><path class="cls-2" d="M228,450v-2.58923a7.90723,7.90723,0,1,0,4,0V450Zm5.90723,5.05176A3.90723,3.90723,0,1,1,230,451.14453,3.912,3.912,0,0,1,233.90723,455.05176Z"/><circle class="cls-2" cx="230" cy="522.50061" r="3.90735"/><path class="cls-2" d="M230,514.59326a7.88994,7.88994,0,0,0-7.16608,11.22852l1.127-1.14355,2.84863,2.80762-1.4115,1.43225A7.903,7.903,0,1,0,230,514.59326Zm0,4a3.90747,3.90747,0,1,1-3.90723,3.90723A3.91185,3.91185,0,0,1,230,518.59326Z"/><path class="cls-2" d="M232.18994,556.6665v.96655a7.90993,7.90993,0,1,0-4,.0979V556.6665Zm-6.09717-6.62549A3.90723,3.90723,0,1,1,230,553.94824,3.912,3.912,0,0,1,226.09277,550.041Z"/><circle class="cls-2" cx="230" cy="624.92664" r="3.90735"/><path class="cls-2" d="M232.18994,619.6665h-4v-2.43018A7.897,7.897,0,0,0,228,632.56775V630.834h4v1.73376a7.89767,7.89767,0,0,0,.18994-15.23346Zm-6.09717,5.26025A3.90723,3.90723,0,1,1,230,628.834,3.912,3.912,0,0,1,226.09277,624.92676Z"/><path class="cls-2" d="M228,642.09277V640.359a7.89542,7.89542,0,0,0,0,15.282v-1.73376h4V655.641a7.89542,7.89542,0,0,0,0-15.282v1.73376ZM233.90723,648A3.90723,3.90723,0,1,1,230,644.09277,3.91185,3.91185,0,0,1,233.90723,648Z"/><path class="cls-2" d="M207,574v-1.70837a7.90723,7.90723,0,1,0,4,0V574Zm5.90723,5.93311A3.90723,3.90723,0,1,1,209,576.02539,3.91185,3.91185,0,0,1,212.90723,579.93311Z"/><path class="cls-2" d="M182.40039,577.61816a3.87072,3.87072,0,0,1,.93555,2.50684,3.90747,3.90747,0,1,1-3.90723-3.90723,3.87072,3.87072,0,0,1,2.50684.93555l-.9585-.9585,2.71729-2.71729a7.90136,7.90136,0,1,0,2.71472,2.94153l-2.60388,2.60388Z"/><path class="cls-2" d="M185,601h2.13177a7.90358,7.90358,0,1,0-.12408,4H185Zm-5.57129,5.6665a3.90747,3.90747,0,1,1,3.90723-3.90723A3.912,3.912,0,0,1,179.42871,606.6665Z"/><circle class="cls-2" cx="179.42859" cy="625.54773" r="3.90747"/><path class="cls-2" d="M174.13379,622.96191l-1.47668-1.47668a7.91872,7.91872,0,1,0,2.85718-2.79913l1.44763,1.44769Zm5.29492-1.32178a3.90747,3.90747,0,1,1-3.90771,3.90771A3.912,3.912,0,0,1,179.42871,621.64014Z"/><path class="cls-2" d="M211,617.90637V621h-4v-3.09363a7.90723,7.90723,0,1,0,4,0Zm-2,11.54871a3.90747,3.90747,0,1,1,3.90723-3.90723A3.91185,3.91185,0,0,1,209,629.45508Z"/><path class="cls-2" d="M185.33594,646h1.73376a7.90153,7.90153,0,1,0-14.126,6.51184l1.47961-1.47961,2.82813,2.82813-1.253,1.25311A7.87547,7.87547,0,0,0,187.0697,650h-1.73376Zm-5.90723,5.90723A3.90723,3.90723,0,1,1,183.33594,648,3.912,3.912,0,0,1,179.42871,651.90723Z"/><circle class="cls-2" cx="209" cy="648" r="3.90723"/><path class="cls-2" d="M209,640.09277A7.9144,7.9144,0,0,0,201.359,646h1.73376v4H201.359a7.871,7.871,0,0,0,1.33972,2.75684l1.72461-1.72461,2.82813,2.82813-1.3924,1.39258A7.90576,7.90576,0,1,0,209,640.09277ZM205.09277,648A3.90723,3.90723,0,1,1,209,651.90723,3.91185,3.91185,0,0,1,205.09277,648Z"/><path class="cls-2" d="M205.53955,326.63232l1.63007-1.63019a7.93329,7.93329,0,1,0,2.95758,2.69885l-1.75952,1.75946ZM203.5,335.90723A3.90723,3.90723,0,1,1,207.40723,332,3.91185,3.91185,0,0,1,203.5,335.90723Z"/><circle class="cls-2" cx="133.74036" cy="168" r="3.90735"/><path class="cls-2" d="M131.41406,163.58594l-2.82812,2.82813-1.92169-1.92169a7.89679,7.89679,0,1,0,2.63-3.02625Zm2.32617.50684A3.90723,3.90723,0,1,1,129.833,168,3.912,3.912,0,0,1,133.74023,164.09277Z"/><path class="cls-2" d="M167.9873,203.65381l-1.92218,1.92218a7.96238,7.96238,0,1,0-2.91882-2.73743l2.01288-2.01288Zm1.83545-8.94092a3.90747,3.90747,0,1,1-3.90723,3.90771A3.912,3.912,0,0,1,169.82275,194.71289Z"/><path class="cls-2" d="M159,329v3.597a7.90877,7.90877,0,1,0-4-.202V329Zm-5.52295-4.14307a3.90723,3.90723,0,1,1,3.90723,3.90723A3.912,3.912,0,0,1,153.47705,324.85693Z"/><path class="cls-2" d="M178,373v1.73376a7.90723,7.90723,0,1,0-4,0V373Zm-5.90723-5.90723A3.90723,3.90723,0,1,1,176,371,3.912,3.912,0,0,1,172.09277,367.09277Z"/><circle class="cls-2" cx="157.38428" cy="455.05188" r="3.90735"/><path class="cls-2" d="M159,451h-4v-3.48633a7.90584,7.90584,0,1,0,4-.202Zm-1.61572.14453a3.90747,3.90747,0,1,1-3.90723,3.90723A3.91185,3.91185,0,0,1,157.38428,451.14453Z"/><path class="cls-2" d="M155.57129,491.28076l-1.79822,1.79755a7.914,7.914,0,1,0-2.98352-2.67377l1.95361-1.95288Zm1.813-9.13623a3.90747,3.90747,0,1,1-3.90723,3.90723A3.91185,3.91185,0,0,1,157.38428,482.14453Z"/><path class="cls-2" d="M75.80469,574.6665v1.45593a7.9076,7.9076,0,1,0-4,.00006v-1.456ZM69.897,568.48145a3.90747,3.90747,0,1,1,3.90771,3.90723A3.91206,3.91206,0,0,1,69.897,568.48145Z"/><circle class="cls-2" cx="73.80457" cy="612.11182" r="3.90735"/><path class="cls-2" d="M75.80469,607.6665h-4v-3.19574a7.90735,7.90735,0,1,0,4,.00006Zm-2,.53809a3.90723,3.90723,0,1,1-3.90771,3.90723A3.91185,3.91185,0,0,1,73.80469,608.20459Z"/><path class="cls-2" d="M179.27,491.666l-1.25983,1.25787a7.95021,7.95021,0,1,0-2.8642-2.79315l1.29785-1.29578Zm2.63721-9.52148A3.90747,3.90747,0,1,1,178,486.05176,3.912,3.912,0,0,1,181.90723,482.14453Z"/><path class="cls-2" d="M204.27,491.66553l-1.34943,1.34753a7.95927,7.95927,0,1,0-2.92377-2.73267l1.447-1.44495Zm2.397-9.521a3.90747,3.90747,0,1,1-3.90723,3.90723A3.91185,3.91185,0,0,1,206.667,482.14453Z"/><path class="cls-2" d="M230.18994,478.14453a7.89739,7.89739,0,0,0-6.48132,12.42383l1.73523-1.73291,2.82617,2.83008-1.50476,1.50275a7.90323,7.90323,0,1,0,3.42468-15.02374Zm0,11.81494a3.90747,3.90747,0,1,1,3.90771-3.90771A3.912,3.912,0,0,1,230.18994,489.95947Z"/><path class="cls-2" d="M199,181v3.24792a7.90723,7.90723,0,1,0-4,0V181Zm-5.90723-4.39355A3.90723,3.90723,0,1,1,197,180.51416,3.91185,3.91185,0,0,1,193.09277,176.60645Z"/><path class="cls-2" d="M197,229.09277a7.90208,7.90208,0,0,0-2,15.54822V241h4v3.641a7.90208,7.90208,0,0,0-2-15.54822Zm0,11.81445A3.90723,3.90723,0,1,1,200.90723,237,3.91185,3.91185,0,0,1,197,240.90723Z"/><circle class="cls-2" cx="197" cy="283.57324" r="3.90723"/><path class="cls-2" d="M195,289h4v2.21423a7.90723,7.90723,0,1,0-4,0Zm2-1.51953a3.90723,3.90723,0,1,1,3.90723-3.90723A3.91185,3.91185,0,0,1,197,287.48047Z"/><path class="cls-2" d="M195,400v-3.641a7.90723,7.90723,0,1,0,4,0V400Zm5.90723,4A3.90723,3.90723,0,1,1,197,400.09277,3.91185,3.91185,0,0,1,200.90723,404Z"/><circle class="cls-2" cx="196" cy="455.05188" r="3.90735"/><path class="cls-2" d="M198,450h-4v-2.58923a7.90723,7.90723,0,1,0,4,0Zm-2,1.14453a3.90747,3.90747,0,1,1-3.90723,3.90723A3.91185,3.91185,0,0,1,196,451.14453Z"/><circle class="cls-2" cx="156.76855" cy="300.41602" r="3.90723"/><path class="cls-2" d="M161.41406,298.41406l-2.82812-2.82812,2.056-2.056a7.95312,7.95312,0,1,0,2.87311,2.78314Zm-.73828,2.002a3.90723,3.90723,0,1,1-3.90723-3.90723A3.91185,3.91185,0,0,1,160.67578,300.416Z"/><path class="cls-2" d="M9,393v-1.33875a7.90723,7.90723,0,1,0,4,0V393Zm5.90723,6.30225A3.90723,3.90723,0,1,1,11,395.395,3.912,3.912,0,0,1,14.90723,399.30225Z"/><path class="cls-2" d="M13,557.93274V560H9v-2.06726a7.90723,7.90723,0,1,0,4,0Zm-2,11.54871a3.90747,3.90747,0,1,1,3.90723-3.90771A3.912,3.912,0,0,1,11,569.48145Z"/><path class="cls-2" d="M13,596v.31091a7.90723,7.90723,0,1,0-4,0V596Zm-5.90723-7.33057A3.90723,3.90723,0,1,1,11,592.57715,3.91185,3.91185,0,0,1,7.09277,588.66943Z"/><path class="cls-2" d="M27,451v-1.60443a7.90653,7.90653,0,1,0,4,.03027V451Zm5.84863,6.05176a3.90747,3.90747,0,1,1-3.90723-3.90723A3.912,3.912,0,0,1,32.84863,457.05176Z"/><circle class="cls-2" cx="28.94128" cy="485.50061" r="3.90747"/><path class="cls-2" d="M24.917,491.17871l-.678.66449a7.908,7.908,0,1,0-2.51782-3.13281l.39606-.38812Zm4.02441-9.58545a3.90747,3.90747,0,1,1-3.90771,3.90723A3.91185,3.91185,0,0,1,28.94141,481.59326Z"/><path class="cls-2" d="M65,462.95947a7.90236,7.90236,0,0,0,2-15.54871V450H63v-2.58923a7.90236,7.90236,0,0,0,2,15.54871Zm0-11.81494a3.90747,3.90747,0,1,1-3.90723,3.90723A3.91185,3.91185,0,0,1,65,451.14453Z"/><path class="cls-2" d="M32.45947,513.7124l1.81708-1.81714A7.93214,7.93214,0,1,0,36.95813,514.87l-1.67053,1.67053Zm-2.51807,8.6958a3.90747,3.90747,0,1,1,3.90723-3.90771A3.91206,3.91206,0,0,1,29.94141,522.4082Z"/><path class="cls-2" d="M29.533,631a3.90723,3.90723,0,1,1-3.06592,0H26v-4.04871a7.90723,7.90723,0,1,0,4,0V631Z"/><path class="cls-2" d="M57,626.95129V631h-.467a3.90723,3.90723,0,1,1-3.06592,0H53v-4.04871a7.90723,7.90723,0,1,0,4,0Z"/><path class="cls-2" d="M39,603v-1.73376a7.90723,7.90723,0,1,0,4,0V603Zm5.90723,5.90723A3.90723,3.90723,0,1,1,41,605,3.912,3.912,0,0,1,44.90723,608.90723Z"/><path class="cls-2" d="M44,395v-1.38892a7.90443,7.90443,0,1,0,4,.10022V395Zm5.71289,6.30225a3.90747,3.90747,0,1,1-3.90723-3.90723A3.912,3.912,0,0,1,49.71289,401.30225Z"/><path class="cls-2" d="M77.93994,337.13672l-2.02515,2.017a7.9546,7.9546,0,1,0-2.60089-3.05444l1.80377-1.79651Zm2.48779-8.374a3.90723,3.90723,0,1,1-3.90723,3.90723A3.912,3.912,0,0,1,80.42773,328.7627Z"/><path class="cls-2" d="M79.52051,402.30225A3.90748,3.90748,0,1,0,85,398.73114V401H81v-1.73474A3.88564,3.88564,0,0,0,79.52051,402.30225Z"/><path class="cls-2" d="M85,398.73114a3.92527,3.92527,0,1,1-4,.53412v-4.48517a7.90214,7.90214,0,1,0,4-.22711Z"/><path class="cls-2" d="M99,320v2.5907a7.90723,7.90723,0,1,0-4,0V320Zm-5.90723-5.05078A3.90723,3.90723,0,1,1,97,318.85693,3.91185,3.91185,0,0,1,93.09277,314.94922Z"/><path class="cls-2" d="M108.41406,140.58594l2.01459,2.01459a7.96381,7.96381,0,1,0-3.02637,2.62988l-1.81635-1.81635ZM99.9873,138.1543a3.90747,3.90747,0,1,1,3.90723,3.90723A3.91185,3.91185,0,0,1,99.9873,138.1543Z"/><path class="cls-2" d="M85.23682,165.832l-2.37573,2.37585a7.92589,7.92589,0,1,0-2.967-2.68945l2.51465-2.51453Zm1.27246-8.54a3.90747,3.90747,0,1,1-3.90723,3.90771A3.91206,3.91206,0,0,1,86.50928,157.292Z"/><path class="cls-2" d="M105.94482,188.28369l2.09814,2.09808a7.90131,7.90131,0,1,0-2.65771,2.99866l-2.26855-2.26862Zm-8.85205-1.478A3.90723,3.90723,0,1,1,101,190.71289,3.912,3.912,0,0,1,97.09277,186.80566Z"/><path class="cls-2" d="M60,142h3.54871a7.90723,7.90723,0,1,0,0,4H60Zm-4.09277,5.90723A3.90723,3.90723,0,1,1,59.81494,144,3.91185,3.91185,0,0,1,55.90723,147.90723Z"/><path class="cls-2" d="M0,319.32819v.68634q.227-.11389.44519-.24115Z"/><path class="cls-2" d="M3.27808,316.94983a7.84775,7.84775,0,0,0,1.09839-4.00061A7.90934,7.90934,0,0,0,0,305.88434v5.41876a3.8643,3.8643,0,0,1,.37646,1.64612A3.86573,3.86573,0,0,1,0,314.5957V316.5l1.41406-1.41406Z"/><circle class="cls-2" cx="19.73926" cy="53.9989" r="3.90735"/><path class="cls-2" d="M25.29492,57.35986l1.02173,1.02008a7.95144,7.95144,0,1,0-2.99738,2.66016l-.85052-.84918ZM15.832,53.999a3.90723,3.90723,0,1,1,3.90723,3.90723A3.912,3.912,0,0,1,15.832,53.999Z"/><path class="cls-2" d="M57.27393,118.53271,55.01312,116.34a7.92982,7.92982,0,1,0,2.83875-2.81915l2.20721,2.14075Zm8.44824,1.82031a3.90747,3.90747,0,1,1-3.90723-3.90771A3.91185,3.91185,0,0,1,65.72217,120.353Z"/><circle class="cls-2" cx="27.09265" cy="126.26038" r="3.90747"/><path class="cls-2" d="M25.49756,121.91943l-2.82812,2.82813L20.245,122.32312a7.9444,7.9444,0,1,0,2.80823-2.848Zm1.59521.43359a3.90747,3.90747,0,1,1-3.90771,3.90723A3.91185,3.91185,0,0,1,27.09277,122.353Z"/><path class="cls-2" d="M201,121.14307h-1.73383a7.90735,7.90735,0,1,0,.00006-4H201Zm5.90723-5.90723A3.90747,3.90747,0,1,1,203,119.14307,3.912,3.912,0,0,1,206.90723,115.23584Z"/><path class="cls-2" d="M201,86.21436h-1.73383a7.90735,7.90735,0,1,0,.00006-4H201Zm5.90723-5.90723A3.90747,3.90747,0,1,1,203,84.21436,3.912,3.912,0,0,1,206.90723,80.30713Z"/><path class="cls-2" d="M200,65h-.73376a7.90723,7.90723,0,1,0,0-4H200Zm6.90723-5.90723A3.90723,3.90723,0,1,1,203,63,3.912,3.912,0,0,1,206.90723,59.09277Z"/><path class="cls-2" d="M211,40h3.54871a7.90723,7.90723,0,1,0,0,4H211Zm-4.09277,5.90723A3.90723,3.90723,0,1,1,210.81494,42,3.91185,3.91185,0,0,1,206.90723,45.90723Z"/><path class="cls-2" d="M206.90723,12.09277A7.9144,7.9144,0,0,0,199.26624,18H203v2a3.90747,3.90747,0,1,1,3.90723,3.90723A3.91185,3.91185,0,0,1,203,20v2h-3.73376a7.90347,7.90347,0,1,0,7.641-9.90723Z"/><path class="cls-2" d="M155,61h1.641a7.90723,7.90723,0,1,0,0,4H155Zm-6,5.90723A3.90723,3.90723,0,1,1,152.90723,63,3.91185,3.91185,0,0,1,149,66.90723Z"/><path class="cls-2" d="M233.40723,90.12207V91.8559a7.90735,7.90735,0,1,0-4-.00006V90.12207ZM227.5,84.21436a3.90747,3.90747,0,1,1,3.90723,3.90771A3.91185,3.91185,0,0,1,227.5,84.21436Z"/><circle class="cls-2" cx="231.40735" cy="119.14319" r="3.90747"/><path class="cls-2" d="M233.40723,125.05078v1.73383a7.89565,7.89565,0,0,0,0-15.28259v1.73383h-4v-1.73376a7.89574,7.89574,0,0,0,0,15.28247v-1.73376Zm1.90771-5.90771a3.90747,3.90747,0,1,1-3.90771-3.90723A3.91206,3.91206,0,0,1,235.31494,119.14307Z"/><path class="cls-2" d="M229.40723,145.68506v-1.73376a7.9076,7.9076,0,1,0,4-.00006v1.73383Zm5.90771,5.90771a3.90747,3.90747,0,1,1-3.90771-3.90771A3.912,3.912,0,0,1,235.31494,151.59277Z"/><path class="cls-2" d="M229.24512,182.38867l-1.31683,1.30811a7.90317,7.90317,0,1,0-3.03772-2.621l1.53522-1.525Zm2.16211-9.68945A3.90747,3.90747,0,1,1,227.5,176.60645,3.912,3.912,0,0,1,231.40723,172.69922Z"/><circle class="cls-2" cx="231.40735" cy="236.85681" r="3.90747"/><path class="cls-2" d="M229.40723,230.94922v-1.73376a7.89574,7.89574,0,0,0,0,15.28247v-1.73376h4V244.498a7.89565,7.89565,0,0,0,0-15.28259v1.73383ZM227.5,236.85693a3.90747,3.90747,0,1,1,3.90723,3.90723A3.912,3.912,0,0,1,227.5,236.85693Z"/><path class="cls-2" d="M233.40723,212.63916V214.373a7.90735,7.90735,0,1,0-4-.00006v-1.73376ZM227.5,206.73193a3.90747,3.90747,0,1,1,3.90723,3.90723A3.912,3.912,0,0,1,227.5,206.73193Z"/><path class="cls-2" d="M229.40723,398.94922v-2.73376a7.9076,7.9076,0,1,0,4-.00006v2.73383Zm5.90771,4.90771a3.90747,3.90747,0,1,1-3.90771-3.90771A3.912,3.912,0,0,1,235.31494,403.85693Z"/><circle class="cls-2" cx="176.90735" cy="136.14319" r="3.90747"/><path class="cls-2" d="M171,138.14307h-1.73383a7.90735,7.90735,0,1,0,.00006-4H171Zm5.90723-5.90723A3.90747,3.90747,0,1,1,173,136.14307,3.912,3.912,0,0,1,176.90723,132.23584Z"/><circle class="cls-2" cx="176.90735" cy="102.61316" r="3.90747"/><path class="cls-2" d="M171,104.61328h-1.73376a7.9076,7.9076,0,1,0-.00006-4H171Zm5.90723-5.90771A3.90747,3.90747,0,1,1,173,102.61328,3.91206,3.91206,0,0,1,176.90723,98.70557Z"/><circle class="cls-2" cx="176.90735" cy="44" r="3.90735"/><path class="cls-2" d="M171,46h-1.73376a7.90723,7.90723,0,1,0,0-4H171Zm5.90723-5.90723A3.90723,3.90723,0,1,1,173,44,3.912,3.912,0,0,1,176.90723,40.09277Z"/><polygon class="cls-2" points="141.314 138.143 169.266 138.143 171 138.143 171 134.143 169.266 134.143 142.972 134.143 35 26.171 35 0 31 0 31 27.829 140.729 137.557 141.314 138.143"/><polygon class="cls-2" points="141.314 121.143 199.266 121.143 201 121.143 201 117.143 199.266 117.143 142.972 117.143 52 26.171 52 0 48 0 48 27.829 140.729 120.557 141.314 121.143"/><polygon class="cls-2" points="169.266 104.613 171 104.613 171 100.613 169.266 100.613 143.275 100.613 68.833 26.171 68.833 0 64.833 0 64.833 27.829 141.618 104.613 169.266 104.613"/><polygon class="cls-2" points="199.266 86.214 201 86.214 201 82.214 199.266 82.214 142.972 82.214 86.929 26.171 86.929 0 82.929 0 82.929 27.829 141.314 86.214 199.266 86.214"/><polygon class="cls-2" points="229.407 145.685 233.407 145.685 233.407 143.951 233.407 126.785 233.407 125.051 229.407 125.051 229.407 126.785 229.407 143.951 229.407 145.685"/><polygon class="cls-2" points="233.407 113.236 233.407 111.502 233.407 91.856 233.407 90.122 229.407 90.122 229.407 91.856 229.407 111.502 229.407 113.236 233.407 113.236"/><polygon class="cls-2" points="25.295 57.36 22.469 60.191 23.319 61.04 81 118.629 81 142 63.549 142 60 142 60 146 63.549 146 85 146 85 116.97 26.317 58.38 25.295 57.36"/><polygon class="cls-2" points="119.861 154.861 118.447 156.275 126.664 164.492 128.586 166.414 131.414 163.586 129.294 161.466 110.429 142.601 108.414 140.586 105.586 143.414 107.402 145.23 115.619 153.447 117.033 152.033 119.861 154.861"/><polygon class="cls-2" points="8.725 285.22 11.553 282.392 12.967 283.806 18.659 278.114 17.116 276.558 19.957 273.741 21.489 275.284 26.009 270.763 24.513 269.272 27.336 266.439 28.838 267.935 33.772 263.001 32.331 261.554 35.164 258.73 36.601 260.172 45.806 250.967 44.392 249.553 47.22 246.725 48.634 248.139 53.452 243.321 52.038 241.906 54.866 239.078 56.281 240.492 60.815 235.958 59.401 234.543 62.229 231.715 63.643 233.13 67.945 228.828 66.53 227.414 69.358 224.586 70.773 226 85.773 211 0 125.227 0 130.884 80.116 211 0 291.116 0 296.773 10.139 286.634 8.725 285.22"/><polygon class="cls-2" points="66.53 227.414 67.945 228.828 83.437 244.321 113.694 214.063 75.35 175.719 82.861 168.208 85.237 165.832 82.409 163.004 79.894 165.518 69.693 175.719 108.037 214.063 83.437 238.664 70.773 226 69.358 224.586 66.53 227.414"/><polygon class="cls-2" points="59.401 234.543 60.815 235.958 83.378 258.521 129.781 212.119 108.043 190.382 105.945 188.284 103.117 191.112 105.385 193.38 124.124 212.119 83.378 252.864 63.643 233.13 62.229 231.715 59.401 234.543"/><polygon class="cls-2" points="52.038 241.906 53.452 243.321 83.146 273.016 146.829 209.333 106.109 168.614 118.447 156.275 119.861 154.861 117.033 152.033 115.619 153.447 100.452 168.614 141.171 209.333 83.146 267.358 56.281 240.492 54.866 239.078 52.038 241.906"/><polygon class="cls-2" points="44.392 249.553 45.806 250.967 83.24 288.402 166.065 205.576 167.987 203.654 165.159 200.826 163.146 202.839 83.24 282.745 48.634 248.139 47.22 246.725 44.392 249.553"/><polygon class="cls-2" points="10.271 329.6 34.516 305.354 12.967 283.806 11.553 282.392 8.725 285.22 10.139 286.634 28.859 305.354 10.271 323.942 3.278 316.95 1.414 315.086 0 316.5 0 319.328 0.445 319.773 10.271 329.6"/><polygon class="cls-2" points="32.331 261.554 33.772 263.001 58.832 288.142 78.94 308.236 44 343.249 44 393.611 44 395 48 395 48 393.711 48 344.903 84.596 308.232 61.662 285.315 36.601 260.172 35.164 258.73 32.331 261.554"/><polygon class="cls-2" points="24.513 269.272 26.009 270.763 47.448 292.126 62.692 307.481 27 342.077 27 449.396 27 451 31 451 31 449.426 31 343.771 68.382 307.536 50.279 289.301 28.838 267.935 27.336 266.439 24.513 269.272"/><polygon class="cls-2" points="17.116 276.558 18.659 278.114 39.948 299.583 46.06 305.721 9 342.906 9 391.661 9 393 13 393 13 391.661 13 344.56 51.705 305.722 21.489 275.284 19.957 273.741 17.116 276.558"/><polygon class="cls-2" points="0 168 0 254 43 211 0 168"/><polygon class="cls-2" points="41.259 103 55.013 116.34 57.274 118.533 60.059 115.662 57.852 113.521 42.88 99 27.833 99 0 70.982 0 76.658 26.167 103 41.259 103"/><polygon class="cls-2" points="22.669 124.748 25.498 121.919 23.053 119.475 0 96.422 0 102.078 20.245 122.323 22.669 124.748"/><rect class="cls-2" x="100.28654" y="274.81537" width="14.94486" height="5.28123" transform="translate(-164.62913 157.46207) rotate(-45)"/><rect class="cls-2" x="114.81132" y="260.29061" width="14.94484" height="5.28125" transform="translate(-150.10438 163.47843) rotate(-45)"/><rect class="cls-2" x="129.30392" y="245.79799" width="14.94486" height="5.28123" transform="translate(-135.6124 169.48369) rotate(-45.00047)"/><rect class="cls-2" x="143.81263" y="231.28929" width="14.94484" height="5.28125" transform="translate(-121.10307 175.49117) rotate(-45)"/><polygon class="cls-2" points="104 0 100 0 100 27.789 118.432 46 169.266 46 171 46 171 42 169.266 42 120.074 42 104 26.118 104 15 104 11 104 0"/><polygon class="cls-2" points="155 61 155 65 156.641 65 199.266 65 200 65 200 61 199.266 61 156.641 61 155 61"/><polygon class="cls-2" points="203 20 203 18 199.266 18 136.215 18 129.153 11 104 11 104 15 127.507 15 134.569 22 199.266 22 203 22 203 20"/><polygon class="cls-2" points="238 26.171 224.171 40 214.549 40 211 40 211 44 214.549 44 225.829 44 242 27.829 242 0 238 0 238 26.171"/><polygon class="cls-2" points="178 233 178 233.884 199 212.827 199 184.248 199 181 195 181 195 184.248 195 211.173 109 297.407 109 457.17 26 539.993 26 626.951 26 631 26.467 631 29.533 631 30 631 30 626.951 30 541.652 113 458.83 113 299.061 174 237.895 174 233 178 233"/><polygon class="cls-2" points="139 292 139 292.846 178 253.828 178 233.884 178 233 174 233 174 237.895 174 252.172 122 304.196 122 464.171 39 547.063 39 601.266 39 603 43 603 43 601.266 43 548.721 126 465.829 126 305.852 135 296.848 135 292 139 292"/><polygon class="cls-2" points="53.467 631 56.533 631 57 631 57 626.951 57 555.452 139 473.831 139 292.846 139 292 135 292 135 296.848 135 472.169 53 553.79 53 626.951 53 631 53.467 631"/><polygon class="cls-2" points="32.459 513.712 35.288 516.541 36.958 514.87 99 452.829 99 322.591 99 320 95 320 95 322.591 95 353.743 95.5 353.251 98.303 356.105 95 359.349 95 451.171 34.277 511.895 32.459 513.712"/><polygon class="cls-2" points="67 450 67 447.411 67 348.033 75.915 339.154 77.94 337.137 75.118 334.303 73.314 336.099 63 346.372 63 447.411 63 450 67 450"/><polygon class="cls-2" points="95.5 353.251 95 353.743 81 367.491 81 394.78 81 399.265 81 401 85 401 85 398.731 85 394.553 85 369.169 95 359.349 98.303 356.105 95.5 353.251"/><polygon class="cls-2" points="195 241 195 244.641 195 259.171 160.642 293.53 158.586 295.586 161.414 298.414 163.515 296.313 199 260.829 199 244.641 199 241 195 241"/><polygon class="cls-2" points="159 329 155 329 155 332.395 155 447.514 155 451 159 451 159 447.312 159 332.597 159 329"/><polygon class="cls-2" points="199 302.836 199 291.214 199 289 195 289 195 291.214 195 301.164 176 319.914 176 344.806 195 364.556 195 396.359 195 400 199 400 199 396.359 199 362.944 180 343.194 180 321.586 199 302.836"/><polygon class="cls-2" points="194 450 198 450 198 447.411 198 436.686 178 416.186 178 374.734 178 373 174 373 174 374.734 174 417.814 194 438.314 194 447.411 194 450"/><polygon class="cls-2" points="205.54 326.632 208.368 329.46 210.127 327.701 219 318.829 219 192.566 227.928 183.697 229.245 182.389 226.426 179.551 224.891 181.076 215 190.901 215 317.171 207.17 325.002 205.54 326.632"/><polygon class="cls-2" points="229.407 242.764 229.407 244.498 229.407 396.215 229.407 398.949 233.407 398.949 233.407 396.215 233.407 244.498 233.407 242.764 229.407 242.764"/><polygon class="cls-2" points="233.407 212.639 229.407 212.639 229.407 214.373 229.407 229.215 229.407 230.949 233.407 230.949 233.407 229.215 233.407 214.373 233.407 212.639"/><polygon class="cls-2" points="216 372 212 372 212 373.734 212 421.833 228 437.705 228 447.411 228 450 232 450 232 447.411 232 436.039 216 420.167 216 373.734 216 372"/><polygon class="cls-2" points="94 552.829 153.773 493.078 155.571 491.281 152.743 488.452 150.79 490.405 90 551.171 90 632.02 63 659.174 63 670 67 670 67 660.825 94 633.67 94 552.829"/><polygon class="cls-2" points="112 558.83 178.01 492.924 179.27 491.666 176.444 488.835 175.146 490.131 108 557.17 108 637.685 86 660.185 86 670 90 670 90 661.815 112 639.315 112 558.83"/><polygon class="cls-2" points="204.27 491.666 201.444 488.835 199.997 490.28 126 564.171 126 643.689 110 660.189 110 670 114 670 114 661.811 130 645.311 130 565.829 202.921 493.013 204.27 491.666"/><polygon class="cls-2" points="225.444 488.835 223.709 490.568 144 570.171 144 649.7 134 660.2 134 670 138 670 138 661.8 148 651.3 148 571.829 160 559.845 160 555 164 555 164 555.85 226.765 493.168 228.27 491.666 225.444 488.835"/><polygon class="cls-2" points="75.805 574.667 71.805 574.667 71.805 576.122 71.805 604.471 71.805 607.667 75.805 607.667 75.805 604.471 75.805 576.122 75.805 574.667"/><circle class="cls-2" cx="41.53796" cy="656" r="3.90735"/><path class="cls-2" d="M37.09277,654v4H33.89661a7.90723,7.90723,0,1,0,0-4Zm4.44531-1.90723A3.90723,3.90723,0,1,1,37.63037,656,3.91185,3.91185,0,0,1,41.53809,652.09277Z"/><polygon class="cls-2" points="37.093 658 37.093 654 33.897 654 0 654 0 658 33.897 658 37.093 658"/><polygon class="cls-2" points="13 560 13 557.933 13 502.858 24.239 491.843 24.917 491.179 22.117 488.322 21.721 488.71 9 501.177 9 557.933 9 560 13 560"/><polygon class="cls-2" points="13 596.311 13 596 9 596 9 596.311 9 624.171 0 633.172 0 638.828 13 625.829 13 596.311"/><polygon class="cls-2" points="223.961 524.678 222.834 525.822 207 541.888 207 550.172 207.586 549.586 210.414 552.414 207 555.828 207 572.292 207 574 211 574 211 572.292 211 543.527 225.398 528.918 226.81 527.486 223.961 524.678"/><polygon class="cls-2" points="207.586 549.586 207 550.172 183.694 573.478 180.977 576.195 181.936 577.153 182.4 577.618 183.805 579.023 186.409 576.419 207 555.828 210.414 552.414 207.586 549.586"/><polygon class="cls-2" points="160 555 160 559.845 160 608.829 172.657 621.485 174.134 622.962 176.962 620.134 175.514 618.686 164 607.171 164 555.85 164 555 160 555"/><polygon class="cls-2" points="211 621 211 617.906 211 601 187.132 601 185 601 185 605 187.008 605 207 605 207 617.906 207 621 211 621"/><polygon class="cls-2" points="203.093 646 201.359 646 187.07 646 185.336 646 185.336 650 187.07 650 201.359 650 203.093 650 203.093 646"/><polygon class="cls-2" points="232.19 556.667 228.19 556.667 228.19 557.731 228.19 617.236 228.19 619.667 232.19 619.667 232.19 617.334 232.19 557.633 232.19 556.667"/><polygon class="cls-2" points="228 630.834 228 632.568 228 640.359 228 642.093 232 642.093 232 640.359 232 632.568 232 630.834 228 630.834"/><polygon class="cls-2" points="174.423 651.032 172.944 652.512 165 660.456 165 670 169 670 169 662.113 175.998 655.113 177.251 653.86 174.423 651.032"/><polygon class="cls-2" points="204.423 651.032 202.699 652.757 195 660.456 195 670 199 670 199 662.113 205.859 655.253 207.251 653.86 204.423 651.032"/><polygon class="cls-2" points="228 653.907 228 655.641 228 670 232 670 232 655.641 232 653.907 228 653.907"/></g></g></svg>