<svg xmlns="http://www.w3.org/2000/svg" width="241.77209" height="670" viewBox="0 0 241.77209 670"><defs><style>.cls-1{fill:none;}.cls-2{fill:#d8d8d8;}</style></defs><title>right-bg-pat</title><g id="Layer_2" data-name="Layer 2"><g id="Layer_1-2" data-name="Layer 1"><polygon class="cls-1" points="241.772 538.832 241.772 501.716 199.056 459 241.772 416.284 241.772 379.168 161.939 459 241.772 538.832"/><circle class="cls-1" cx="155.54614" cy="508.80042" r="3.90759"/><circle class="cls-1" cx="10.64844" cy="463.26819" r="3.90735"/><circle class="cls-1" cx="11.86548" cy="183.94812" r="3.90759"/><path class="cls-1" d="M237.67969,357.05078a7.84924,7.84924,0,0,1,1.09814-4.00049l-6.99268-6.99268-18.58887,18.58789L231.91675,383.366l9.85535-9.85535v-9.538A7.91148,7.91148,0,0,1,237.67969,357.05078Z"/><circle class="cls-1" cx="141.05566" cy="483.19446" r="3.90735"/><path class="cls-1" d="M241.77209,357.87854v-1.6557a3.75444,3.75444,0,0,0,0,1.6557Z"/><circle class="cls-1" cx="12.05566" cy="22" r="3.90723"/><circle class="cls-1" cx="12.05566" cy="119.95911" r="3.90735"/><path class="cls-1" d="M66.53516,89.875a3.90771,3.90771,0,1,0-7.81543,0,3.87059,3.87059,0,0,0,.93335,2.50421l.46973.4696a3.87015,3.87015,0,0,0,2.50415.93341A3.91206,3.91206,0,0,0,66.53516,89.875Z"/><circle class="cls-1" cx="33.05566" cy="44.45227" r="3.90735"/><circle class="cls-1" cx="33.05566" cy="90.06702" r="3.90735"/><circle class="cls-1" cx="231.05566" cy="81.33044" r="3.90735"/><circle class="cls-1" cx="12.05566" cy="214.94812" r="3.90735"/><circle class="cls-1" cx="201.05566" cy="61.09265" r="3.90735"/><circle class="cls-1" cx="84.67163" cy="183.94812" r="3.90759"/><path class="cls-1" d="M217.96289,35.40723A3.90723,3.90723,0,1,0,212.52271,39h3.06592A3.91251,3.91251,0,0,0,217.96289,35.40723Z"/><circle class="cls-1" cx="45.05566" cy="493.39343" r="3.90735"/><circle class="cls-1" cx="45.05566" cy="266" r="3.90723"/><circle class="cls-1" cx="66.05566" cy="302.90735" r="3.90735"/><circle class="cls-1" cx="45.05566" cy="433" r="3.90723"/><circle class="cls-1" cx="60.14844" cy="183.94812" r="3.90735"/><circle class="cls-1" cx="168.25122" cy="101.51868" r="3.90759"/><path class="cls-1" d="M190.96289,35.40723A3.90723,3.90723,0,1,0,185.52271,39h3.06592A3.91251,3.91251,0,0,0,190.96289,35.40723Z"/><circle class="cls-1" cx="212.1145" cy="151.49939" r="3.90759"/><circle class="cls-1" cx="62.6272" cy="67.24084" r="3.90759"/><circle class="cls-1" cx="62.6272" cy="22" r="3.90747"/><circle class="cls-1" cx="161.62793" cy="337.33008" r="3.90723"/><circle class="cls-1" cx="177.05566" cy="214.94812" r="3.90735"/><circle class="cls-1" cx="35.38867" cy="183.94812" r="3.90735"/><circle class="cls-1" cx="231.05566" cy="104.42615" r="3.90735"/><circle class="cls-1" cx="138.16113" cy="531.8457" r="3.90723"/><circle class="cls-1" cx="145.05566" cy="355.05066" r="3.90735"/><circle class="cls-1" cx="93.05566" cy="607" r="3.90723"/><circle class="cls-1" cx="180.24121" cy="549.64709" r="3.90735"/><circle class="cls-1" cx="35.14844" cy="628" r="3.90723"/><circle class="cls-1" cx="35.14844" cy="607" r="3.90723"/><circle class="cls-1" cx="38.55566" cy="338" r="3.90723"/><circle class="cls-1" cx="35.14844" cy="518.40735" r="3.90735"/><circle class="cls-1" cx="10.64844" cy="518.40735" r="3.90735"/><circle class="cls-1" cx="10.64844" cy="493.39343" r="3.90735"/><circle class="cls-1" cx="35.14844" cy="550.85681" r="3.90735"/><circle class="cls-1" cx="10.64844" cy="585.78552" r="3.90735"/><circle class="cls-1" cx="35.14844" cy="585.78552" r="3.90735"/><circle class="cls-1" cx="196.25024" cy="268.69763" r="3.90759"/><path class="cls-1" d="M87.35425,443.22107l-3.73437-3.73437,10.5675-10.56763,3.73438,3.73444Zm14.50854-14.50867L98.12842,424.978,108.696,414.4104l3.73438,3.73438Zm14.49268-14.49261-3.73437-3.73444,10.56763-10.56757,3.73438,3.73438ZM130.88025,399.695l-3.73437-3.73437,10.5675-10.56763,3.73438,3.73444ZM179,222.60364V323.62842l-10.27612,10.23511a7.90562,7.90562,0,1,1-2.6145-3.041L175,321.96729V222.575a7.908,7.908,0,1,1,4,.02869Zm-32-3.775v91.82184l10-9.8194V275.43469a7.90619,7.90619,0,1,1,4-.19427v27.26837l-14,13.74829V347.3949a7.90654,7.90654,0,1,1-4,.02875V217.17139l62.0791-62.07916a7.90727,7.90727,0,1,1,2.665,2.99133ZM231.05566,96.51855A7.90241,7.90241,0,0,1,233,112.08167v56.74109l-12.68274,12.43018a7.94605,7.94605,0,1,1-2.5321-3.11981L229,167.14209V112.053a7.90262,7.90262,0,0,1,2.05566-15.53442Zm-44-69.01855A7.90241,7.90241,0,0,1,189,43.06311V116.21l-82,81.62109v175.321l9-9.00415V204.1709l83-82.89209V68.71948a7.908,7.908,0,1,1,4,.02869V122.937L120,205.8291V365.8042L68,417.82813v14.27722l61-61.16589v-159.769l83-82.82275V43.03436a7.90791,7.90791,0,1,1,4,.02875v86.94373l-83,82.82275V372.59277L47,458.82666v26.911a7.90654,7.90654,0,1,1-4,.02875V457.17334l21-21.05713V416.17188l39-39.01794v-180.985l82-81.62109V43.03436A7.90258,7.90258,0,0,1,187.05566,27.5ZM43,307.05566v-33.429a7.908,7.908,0,1,1,4,.02869v31.78894l19,19.75v24.89209l-19,18.75v9.93494A7.90642,7.90642,0,1,1,43,378.8V367.16357l19-18.75V326.80566ZM68,252.186v43.0658a7.90642,7.90642,0,1,1-4,.02869V253.814l-20-20.5V222.575a7.908,7.908,0,1,1,4,.02869v9.0824ZM43,425.37329v-16.2019l35.51953-35.519a7.9169,7.9169,0,1,1,2.85962,2.79675L47,410.82861v14.516a7.90642,7.90642,0,1,1-4,.02869Zm33.76367-210.425A7.90771,7.90771,0,1,1,87,222.50476V337.58655a7.913,7.913,0,1,1-4-.16907V222.67383A7.91889,7.91889,0,0,1,76.76367,214.94824ZM160.34375,57.88818a7.90772,7.90772,0,1,1,9.90723,7.64105V93.8775a7.90723,7.90723,0,1,1-4,0V65.52924A7.9139,7.9139,0,0,1,160.34375,57.88818ZM175,0h4V10.82568L152,37.98v80.84863L91.24536,179.56049a7.95282,7.95282,0,1,1-3-2.6571L148,117.17139V36.32959l27-27.1543ZM152,0h4V9.81543l-22,22.5v80.51416l-67.11157,67.0047a7.9043,7.9043,0,1,1-2.87769-2.77948L130,111.17041V30.68457l22-22.5ZM112,24.68945l16-16.5V0h4V9.81055l-16,16.5V105.8291L42.03772,179.68463a7.89957,7.89957,0,1,1-2.94031-2.716L112,104.1709ZM10,233.96143V222.575a7.908,7.908,0,1,1,4,.02869v9.69177L30,248.167v48.08484a7.90642,7.90642,0,1,1-4,.02869V249.833ZM33.05566,14.09277a7.86169,7.86169,0,0,1,3.10327.636L43,7.88721V0h4V9.54443l-7.667,7.66663A7.87364,7.87364,0,0,1,40.69666,20H54.986a7.87558,7.87558,0,0,1,11.03345-5.13177L73,7.88721V0h4V9.54443l-7.91187,7.91144A7.90017,7.90017,0,1,1,54.986,24H40.69666a7.90325,7.90325,0,1,1-7.641-9.90723Zm0,22.45215A7.90241,7.90241,0,0,1,35,52.108V65H55.048a7.911,7.911,0,1,1-.12415,4H31V52.07928a7.90258,7.90258,0,0,1,2.05566-15.53436ZM4.14844,45.07324a7.9139,7.9139,0,0,1,5.90723-7.64105V29.64105a7.8955,7.8955,0,0,1,0-15.2821V0h4V14.35895a7.8955,7.8955,0,0,1,0,15.2821v7.79114a7.89711,7.89711,0,0,1-.19043,15.33167v59.505a7.90437,7.90437,0,1,1-4,.09814V52.66565A7.91662,7.91662,0,0,1,4.14844,45.07324Zm7.90723,94.51855a7.85585,7.85585,0,0,1,4.57007,1.46606L31,126.47266V97.694a7.90791,7.90791,0,1,1,4,.02875V114.2276L55.64673,93.5813a7.94506,7.94506,0,1,1,2.71484,2.94147L35,119.88379v8.22852L19.20386,144.14087a7.9008,7.9008,0,1,1-7.14819-4.54907Zm-.19043,36.44873a7.84618,7.84618,0,0,1,3.38721.77295L78,114.1496v-51.321L66.50684,51.335a7.95329,7.95329,0,1,1,2.87085-2.78546L82,61.17139v48.98352l12-11.984V18.7002l10-10.5V0h4V9.7998l-10,10.5V99.8291L18.32324,179.39935a7.90059,7.90059,0,1,1-6.458-3.35883Zm-9.124,257.10254A7.9139,7.9139,0,0,1,8.64844,425.502V273.78455a7.90723,7.90723,0,1,1,4,0V425.502a7.89578,7.89578,0,0,1,0,15.28253V455.627a7.90723,7.90723,0,1,1-4,0V440.78455A7.914,7.914,0,0,1,2.74121,433.14307Zm7.90723,52.34277a7.84553,7.84553,0,0,1,3.45825.80731L23,477.436V351.1709l8.91187-8.89911a7.90407,7.90407,0,1,1,2.94458,2.71185L27,352.8291V479.09766l-9.84863,9.80811a7.90218,7.90218,0,1,1-6.50293-3.41992ZM2.74121,550.85693a7.914,7.914,0,0,1,5.90723-7.64148V526.04871a7.90723,7.90723,0,1,1,4,0v17.16675a7.89578,7.89578,0,0,1,0,15.28253v19.64618a7.90723,7.90723,0,1,1-4,0V558.498A7.9139,7.9139,0,0,1,2.74121,550.85693ZM4,643.83057V670H0V642.16943L16.22949,626h11.278a7.90723,7.90723,0,1,1,0,4H17.88184ZM27.24121,607a7.90208,7.90208,0,0,1,15.54822-2H85.41467a7.90723,7.90723,0,1,1,0,4H42.78943a7.90208,7.90208,0,0,1-15.54822-2ZM142,670h-4V659H112.90234l-7.06152-7H42.78943a7.90723,7.90723,0,1,1,0-4H107.4873l7.06152,7H138V643.88037L121.97949,628H72.78943a7.90723,7.90723,0,1,1,0-4H123.626L142,642.21338Zm17.127,0h-4V643.82861l-56.042-56.043H42.78943a7.90749,7.90749,0,1,1,.00012-4h57.95166L159.127,642.17139Zm18.0957,0h-4V643.82861L98.78125,569.38672H72.78955a7.90747,7.90747,0,1,1-.00012-4H100.4375l76.78516,76.78467Zm16.833,0h-4V643.82861L99.085,552.85693H42.78943a7.90749,7.90749,0,1,1,.00012-4h57.95166l93.31445,93.31445Zm17,0h-4V643.82861L99.085,535.85693H72.78943a7.90749,7.90749,0,1,1,.00012-4h27.95166L211.05566,642.17139Zm16,0h-4V642.82715L100.45605,520H42.89441a7.9134,7.9134,0,1,1-.21631-4h59.43616l.58691.58691L227.05566,641.17285Zm-4.73926-46.09131a7.89944,7.89944,0,0,1-6.59851-12.25415L157,553.02979V524h21.50745a7.90723,7.90723,0,1,1,0,4H161v23.37061l57.69873,57.6073a7.90436,7.90436,0,1,1,3.61768,14.93079Z"/><circle class="cls-1" cx="72.23315" cy="471.37952" r="3.90759"/><circle class="cls-1" cx="186.14844" cy="526" r="3.90723"/><path class="cls-1" d="M35.14844,646.09277A3.90726,3.90726,0,1,0,39,650.55042v-1.10089A3.90123,3.90123,0,0,0,35.14844,646.09277Z"/><circle class="cls-1" cx="213.1145" cy="212.94812" r="3.90759"/><circle class="cls-1" cx="84.67163" cy="345.14319" r="3.90759"/><circle class="cls-1" cx="10.64844" cy="266.14319" r="3.90735"/><circle class="cls-1" cx="231.05566" cy="270.69763" r="3.90735"/><path class="cls-2" d="M102.11426,516H42.6781a7.89567,7.89567,0,0,1,.21631,4h57.56165L223.05566,642.82715V670h4V641.17285L102.70117,516.58691Z"/><path class="cls-2" d="M42.6781,516a7.89567,7.89567,0,1,0,.37756,2.40723A7.91931,7.91931,0,0,0,42.6781,516Zm-7.52966,6.31494a3.90747,3.90747,0,1,1,3.90723-3.90771A3.912,3.912,0,0,1,35.14844,522.31494Z"/><circle class="cls-2" cx="28.05566" cy="303.90735" r="3.90735"/><path class="cls-2" d="M26,298v-1.71948a7.908,7.908,0,1,0,4-.02869V298Zm5.96289,5.90723A3.90723,3.90723,0,1,1,28.05566,300,3.912,3.912,0,0,1,31.96289,303.90723Z"/><path class="cls-2" d="M14,220v2.60364a7.90642,7.90642,0,1,0-4-.02869V220Zm-5.85156-5.05176a3.90723,3.90723,0,1,1,3.90723,3.90723A3.912,3.912,0,0,1,8.14844,214.94824Z"/><circle class="cls-2" cx="12.05566" cy="147.49939" r="3.90735"/><path class="cls-2" d="M12.05566,155.40674a7.88939,7.88939,0,0,0,7.14819-11.26587L18.04,145.32178l-2.84961-2.80762,1.4353-1.4563a7.90343,7.90343,0,1,0-4.57007,14.34888Zm3.90723-7.90723a3.90723,3.90723,0,1,1-3.90723-3.90771A3.91185,3.91185,0,0,1,15.96289,147.49951Z"/><path class="cls-2" d="M9.86523,113.3335V112.367a7.90995,7.90995,0,1,0,4-.09814v1.06464Zm6.09766,6.62549a3.90723,3.90723,0,1,1-3.90723-3.90723A3.912,3.912,0,0,1,15.96289,119.959Z"/><circle class="cls-2" cx="12.05566" cy="45.07336" r="3.90735"/><path class="cls-2" d="M9.86523,50.3335h4v2.43036a7.89711,7.89711,0,0,0,.19043-15.33167V39.166h-4V37.43219a7.89776,7.89776,0,0,0-.19043,15.23346Zm6.09766-5.26025A3.90723,3.90723,0,1,1,12.05566,41.166,3.912,3.912,0,0,1,15.96289,45.07324Z"/><path class="cls-2" d="M14.05566,27.90723v1.73383a7.8955,7.8955,0,0,0,0-15.2821v1.73383h-4V14.35895a7.8955,7.8955,0,0,0,0,15.2821V27.90723ZM8.14844,22a3.90723,3.90723,0,1,1,3.90723,3.90723A3.91185,3.91185,0,0,1,8.14844,22Z"/><path class="cls-2" d="M35,96v1.72278a7.90654,7.90654,0,1,0-4-.02875V96Zm-5.85156-5.93311a3.90723,3.90723,0,1,1,3.90723,3.90771A3.91185,3.91185,0,0,1,29.14844,90.06689Z"/><path class="cls-2" d="M59.65308,92.37921a3.87059,3.87059,0,0,1-.93335-2.50421A3.90771,3.90771,0,1,1,62.627,93.78223a3.87015,3.87015,0,0,1-2.50415-.93341l.9563.95636-2.71753,2.71759a7.9014,7.9014,0,1,0-2.71484-2.94147L58.251,90.97705Z"/><path class="cls-2" d="M57,69H54.92383a7.9037,7.9037,0,1,0,.12415-4H57Zm5.627-5.6665a3.90747,3.90747,0,1,1-3.90723,3.90723A3.91206,3.91206,0,0,1,62.627,63.3335Z"/><circle class="cls-2" cx="62.6272" cy="44.45227" r="3.90759"/><path class="cls-2" d="M67.86621,47.03809l1.51147,1.51147A7.91046,7.91046,0,1,0,66.50684,51.335l-1.46875-1.46881ZM62.627,48.35986a3.90747,3.90747,0,1,1,3.9082-3.90771A3.912,3.912,0,0,1,62.627,48.35986Z"/><path class="cls-2" d="M31,52.07928V49h4v3.108a7.90654,7.90654,0,1,0-4-.02875Zm2.05566-11.53436a3.90747,3.90747,0,1,1-3.90723,3.90723A3.91185,3.91185,0,0,1,33.05566,40.54492Z"/><path class="cls-2" d="M56.71973,24H54.986a7.90148,7.90148,0,1,0,14.10217-6.54413l-1.512,1.5119L64.748,16.13965l1.27136-1.27142A7.87558,7.87558,0,0,0,54.986,20h1.73376ZM62.627,18.09277A3.90723,3.90723,0,1,1,58.71973,22,3.91206,3.91206,0,0,1,62.627,18.09277Z"/><circle class="cls-2" cx="33.05566" cy="22" r="3.90723"/><path class="cls-2" d="M33.05566,29.90723A7.914,7.914,0,0,0,40.69666,24H38.96289V20h1.73376A7.87364,7.87364,0,0,0,39.333,17.21106l-1.75684,1.75671L34.748,16.13965l1.41089-1.41089a7.9066,7.9066,0,1,0-3.10327,15.17847ZM36.96289,22a3.90723,3.90723,0,1,1-3.90723-3.90723A3.91185,3.91185,0,0,1,36.96289,22Z"/><path class="cls-2" d="M36.47363,343.36865l-1.61719,1.615a7.94311,7.94311,0,1,0-2.94458-2.71185l1.7356-1.73322Zm2.082-9.27588A3.90723,3.90723,0,1,1,34.64844,338,3.91185,3.91185,0,0,1,38.55566,334.09277Z"/><circle class="cls-2" cx="108.31543" cy="502" r="3.90723"/><path class="cls-2" d="M110.6416,506.41406l2.82813-2.82812,1.92175,1.92175a7.89632,7.89632,0,1,0-2.63,3.02631Zm-2.32617-.50684A3.90723,3.90723,0,1,1,112.22266,502,3.91185,3.91185,0,0,1,108.31543,505.90723Z"/><path class="cls-2" d="M74.06836,466.34619l1.92236-1.92242a7.96154,7.96154,0,1,0,2.91907,2.73724l-2.01331,2.01331Zm-1.835,8.94092a3.90747,3.90747,0,1,1,3.90723-3.90771A3.91216,3.91216,0,0,1,72.2334,475.28711Z"/><path class="cls-2" d="M83,341v-3.58252a7.90191,7.90191,0,1,0,4,.16907V341Zm5.5791,4.14307a3.90771,3.90771,0,1,1-3.90723-3.90723A3.912,3.912,0,0,1,88.5791,345.14307Z"/><path class="cls-2" d="M64,297v-1.71948a7.908,7.908,0,1,0,4-.02869V297Zm5.96289,5.90723A3.90723,3.90723,0,1,1,66.05566,299,3.912,3.912,0,0,1,69.96289,302.90723Z"/><circle class="cls-2" cx="84.67163" cy="214.94812" r="3.90759"/><path class="cls-2" d="M83,219h4v3.50476a7.913,7.913,0,1,0-4,.16907Zm1.67188-.14453a3.90747,3.90747,0,1,1,3.90723-3.90723A3.91206,3.91206,0,0,1,84.67188,218.85547Z"/><path class="cls-2" d="M86.42871,178.71924l1.81665-1.81586a7.90124,7.90124,0,1,0,3,2.6571l-1.98853,1.98785Zm-1.75684,9.13623a3.90747,3.90747,0,1,1,3.90723-3.90723A3.91206,3.91206,0,0,1,84.67188,187.85547Z"/><path class="cls-2" d="M166.251,95.3335v-1.456a7.90821,7.90821,0,1,0,4,0v1.456Zm5.9082,6.18506a3.90771,3.90771,0,1,1-3.9082-3.90723A3.91216,3.91216,0,0,1,172.15918,101.51855Z"/><circle class="cls-2" cx="168.25122" cy="57.88818" r="3.90747"/><path class="cls-2" d="M166.251,62.3335h4v3.19574a7.90723,7.90723,0,1,0-4,0Zm2-.53809a3.90723,3.90723,0,1,1,3.9082-3.90723A3.91185,3.91185,0,0,1,168.251,61.79541Z"/><path class="cls-2" d="M62.72949,178.334l1.28125-1.27917a7.95542,7.95542,0,1,0,2.87769,2.77948L65.55566,181.165Zm-2.58105,9.52148a3.90747,3.90747,0,1,1,3.90723-3.90723A3.91185,3.91185,0,0,1,60.14844,187.85547Z"/><path class="cls-2" d="M37.72949,178.33447l1.36792-1.36584a7.94659,7.94659,0,1,0,2.94031,2.716l-1.48206,1.47992Zm-2.34082,9.521a3.90747,3.90747,0,1,1,3.90723-3.90723A3.91185,3.91185,0,0,1,35.38867,187.85547Z"/><path class="cls-2" d="M11.86523,191.85547a7.89569,7.89569,0,0,0,6.458-12.45612l-1.76758,1.7652-2.82617-2.83008,1.52295-1.521a7.90326,7.90326,0,1,0-3.38721,15.042Zm0-11.81494A3.90747,3.90747,0,1,1,7.958,183.94824,3.91216,3.91216,0,0,1,11.86523,180.04053Z"/><path class="cls-2" d="M43,489v-3.23358a7.90791,7.90791,0,1,0,4-.02875V489Zm5.96289,4.39355a3.90723,3.90723,0,1,1-3.90723-3.90771A3.91185,3.91185,0,0,1,48.96289,493.39355Z"/><path class="cls-2" d="M45.05566,440.90723A7.90214,7.90214,0,0,0,47,425.3446V429H43v-3.62671a7.90234,7.90234,0,0,0,2.05566,15.53394Zm0-11.81445A3.90723,3.90723,0,1,1,41.14844,433,3.91185,3.91185,0,0,1,45.05566,429.09277Z"/><circle class="cls-2" cx="45.05566" cy="386.42676" r="3.90723"/><path class="cls-2" d="M47,381H43v-2.2a7.908,7.908,0,1,0,4-.02869Zm-1.94434,1.51953a3.90723,3.90723,0,1,1-3.90723,3.90723A3.91185,3.91185,0,0,1,45.05566,382.51953Z"/><path class="cls-2" d="M47,270v3.6554a7.90642,7.90642,0,1,0-4-.02869V270Zm-5.85156-4a3.90723,3.90723,0,1,1,3.90723,3.90723A3.91185,3.91185,0,0,1,41.14844,266Z"/><circle class="cls-2" cx="46.05566" cy="214.94812" r="3.90735"/><path class="cls-2" d="M44,220h4v2.60364a7.90642,7.90642,0,1,0-4-.02869Zm2.05566-1.14453a3.90747,3.90747,0,1,1,3.90723-3.90723A3.91185,3.91185,0,0,1,46.05566,218.85547Z"/><circle class="cls-2" cx="85.28711" cy="369.58398" r="3.90723"/><path class="cls-2" d="M80.58594,371.58594l2.82813,2.82813-2.03491,2.035a7.948,7.948,0,1,0-2.85962-2.79675Zm.79395-2.002a3.90723,3.90723,0,1,1,3.90723,3.90723A3.91185,3.91185,0,0,1,81.37988,369.584Z"/><path class="cls-2" d="M233,277v1.35315a7.90642,7.90642,0,1,0-4-.02869V277Zm-5.85156-6.30225a3.90723,3.90723,0,1,1,3.90723,3.90723A3.912,3.912,0,0,1,227.14844,270.69775Z"/><path class="cls-2" d="M229,112.053V110h4v2.08167a7.90642,7.90642,0,1,0-4-.02869Zm2.05566-11.53442a3.90747,3.90747,0,1,1-3.90723,3.90771A3.912,3.912,0,0,1,231.05566,100.51855Z"/><path class="cls-2" d="M229,74v-.29657a7.90791,7.90791,0,1,0,4-.02875V74Zm5.96289,7.33057a3.90723,3.90723,0,1,1-3.90723-3.90771A3.91185,3.91185,0,0,1,234.96289,81.33057Z"/><path class="cls-2" d="M215,219v1.61877a7.90558,7.90558,0,1,0-4-.0589V219Zm-5.793-6.05176a3.90771,3.90771,0,1,1,3.90723,3.90723A3.912,3.912,0,0,1,209.207,212.94824Z"/><circle class="cls-2" cx="213.1145" cy="184.49939" r="3.90759"/><path class="cls-2" d="M217.083,178.82129l.70215-.68817a7.918,7.918,0,1,0,2.5321,3.11981l-.43347.4248Zm-3.96875,9.58545a3.90747,3.90747,0,1,1,3.9082-3.90723A3.91185,3.91185,0,0,1,213.11426,188.40674Z"/><path class="cls-2" d="M177.05566,207.04053A7.90262,7.90262,0,0,0,175,222.575V220h4v2.60364a7.90241,7.90241,0,0,0-1.94434-15.56311Zm0,11.81494a3.90747,3.90747,0,1,1,3.90723-3.90723A3.91185,3.91185,0,0,1,177.05566,218.85547Z"/><path class="cls-2" d="M209.54,156.2876l-1.7959,1.796a7.94574,7.94574,0,1,0-2.665-2.99133l1.63281-1.63275Zm2.57422-8.6958a3.90747,3.90747,0,1,1-3.90723,3.90771A3.91216,3.91216,0,0,1,212.11426,147.5918Z"/><path class="cls-2" d="M212.52271,39a3.90723,3.90723,0,1,1,3.06592,0H216v4.06311a7.90654,7.90654,0,1,0-4-.02875V39Z"/><path class="cls-2" d="M185,43.03436V39h.52271a3.90723,3.90723,0,1,1,3.06592,0H189v4.06311a7.90654,7.90654,0,1,0-4-.02875Z"/><path class="cls-2" d="M203,67v1.74817a7.90642,7.90642,0,1,0-4-.02869V67Zm-5.85156-5.90723A3.90723,3.90723,0,1,1,201.05566,65,3.912,3.912,0,0,1,197.14844,61.09277Z"/><path class="cls-2" d="M198,275v1.40326a7.9035,7.9035,0,1,0-4-.12891V275Zm-5.65723-6.30225A3.90771,3.90771,0,1,1,196.25,272.605,3.912,3.912,0,0,1,192.34277,268.69775Z"/><path class="cls-2" d="M164.06055,332.86328l2.04883-2.04071a7.95915,7.95915,0,1,0,2.6145,3.041l-1.84106,1.83374Zm-2.43262,8.374a3.90723,3.90723,0,1,1,3.90723-3.90723A3.91185,3.91185,0,0,1,161.62793,341.2373Z"/><path class="cls-2" d="M162.53516,267.69775A3.90724,3.90724,0,1,0,157,271.2384V269h4v1.78064A3.88859,3.88859,0,0,0,162.53516,267.69775Z"/><path class="cls-2" d="M157,271.2384a3.91734,3.91734,0,1,1,4-.45776v4.45978a7.90816,7.90816,0,1,0-4,.19427Z"/><path class="cls-2" d="M143,350v-2.57635a7.90791,7.90791,0,1,0,4-.02875V350Zm5.96289,5.05078a3.90723,3.90723,0,1,1-3.90723-3.90771A3.91185,3.91185,0,0,1,148.96289,355.05078Z"/><path class="cls-2" d="M133.6416,529.41406l-2.0144-2.0144a7.96253,7.96253,0,1,0,3.02612-2.63007l1.81641,1.81635Zm8.42676,2.43164a3.90723,3.90723,0,1,1-3.90723-3.90723A3.91185,3.91185,0,0,1,142.06836,531.8457Z"/><path class="cls-2" d="M156.81934,504.168l2.37549-2.37567a7.92609,7.92609,0,1,0,2.967,2.68927l-2.5144,2.51453Zm-1.27344,8.54a3.90747,3.90747,0,1,1,3.9082-3.90771A3.912,3.912,0,0,1,155.5459,512.708Z"/><path class="cls-2" d="M136.11133,481.71631l-2.09863-2.09851a7.90123,7.90123,0,1,0,2.65784-2.99847l2.26892,2.26886Zm8.85156,1.478a3.90723,3.90723,0,1,1-3.90723-3.90723A3.912,3.912,0,0,1,144.96289,483.19434Z"/><path class="cls-2" d="M182,528h-3.49255a7.90723,7.90723,0,1,0,0-4H182Zm4.14844-5.90723A3.90723,3.90723,0,1,1,182.24121,526,3.91185,3.91185,0,0,1,186.14844,522.09277Z"/><path class="cls-2" d="M238.77783,353.05029a7.87961,7.87961,0,0,0,2.99426,10.9223v-6.09406a3.75444,3.75444,0,0,1,0-1.6557v-2.43927l-1.13049,1.13049Z"/><path class="cls-2" d="M241.77209,350.38818v-.2597c-.0553.03058-.10706.06635-.1615.09821Z"/><circle class="cls-2" cx="222.31641" cy="616.0011" r="3.90735"/><path class="cls-2" d="M222.31641,608.09375a7.8499,7.8499,0,0,0-3.61768.88416l.83252.83118-2.82617,2.83105-.98718-.9856a7.90268,7.90268,0,1,0,6.59851-3.56079Zm0,11.81494a3.90747,3.90747,0,1,1,3.90723-3.90771A3.912,3.912,0,0,1,222.31641,619.90869Z"/><path class="cls-2" d="M184.78125,551.46729l2.26123,2.19305a7.92879,7.92879,0,1,0-2.83875,2.81909l-2.20764-2.14105ZM176.334,549.647a3.90723,3.90723,0,1,1,3.90723,3.90771A3.91185,3.91185,0,0,1,176.334,549.647Z"/><circle class="cls-2" cx="214.96313" cy="543.73962" r="3.90759"/><path class="cls-2" d="M216.55859,548.08057l2.82813-2.82812,2.42432,2.42438a7.945,7.945,0,1,0-2.80823,2.848Zm-1.5957-.43359a3.90747,3.90747,0,1,1,3.9082-3.90723A3.91185,3.91185,0,0,1,214.96289,547.647Z"/><path class="cls-2" d="M41.05566,548.85693h1.73389a7.90747,7.90747,0,1,0-.00012,4H41.05566Zm-5.90723,5.90723a3.90747,3.90747,0,1,1,3.90723-3.90723A3.91185,3.91185,0,0,1,35.14844,554.76416Z"/><path class="cls-2" d="M41.05566,583.78564h1.73389a7.90747,7.90747,0,1,0-.00012,4H41.05566Zm-5.90723,5.90723a3.90747,3.90747,0,1,1,3.90723-3.90723A3.91185,3.91185,0,0,1,35.14844,589.69287Z"/><path class="cls-2" d="M35.14844,614.90723A7.914,7.914,0,0,0,42.78943,609H42v-4h.78943a7.90325,7.90325,0,1,0-7.641,9.90723Zm0-11.81445A3.90723,3.90723,0,1,1,31.24121,607,3.91185,3.91185,0,0,1,35.14844,603.09277Z"/><path class="cls-2" d="M31,630H27.50745a7.90723,7.90723,0,1,0,0-4H31Zm4.14844-5.90723A3.90723,3.90723,0,1,1,31.24121,628,3.91185,3.91185,0,0,1,35.14844,624.09277Z"/><path class="cls-2" d="M39,650.55042a3.90723,3.90723,0,1,1,0-1.10089V648h3.78943a7.90723,7.90723,0,1,0,0,4H39Z"/><path class="cls-2" d="M87,609H85.41467a7.90723,7.90723,0,1,0,0-4H87Zm6.05566-5.90723A3.90723,3.90723,0,1,1,89.14844,607,3.91185,3.91185,0,0,1,93.05566,603.09277Z"/><path class="cls-2" d="M8.64844,579.87793v-1.73376a7.90723,7.90723,0,1,0,4,0v1.73376Zm5.90723,5.90771a3.90723,3.90723,0,1,1-3.90723-3.90771A3.91185,3.91185,0,0,1,14.55566,585.78564Z"/><circle class="cls-2" cx="10.64844" cy="550.85681" r="3.90735"/><path class="cls-2" d="M12.64844,556.76416V558.498a7.89578,7.89578,0,0,0,0-15.28253v1.73376h-4v-1.73376a7.89578,7.89578,0,0,0,0,15.28253v-1.73383Zm-5.90723-5.90723a3.90723,3.90723,0,1,1,3.90723,3.90723A3.912,3.912,0,0,1,6.74121,550.85693Z"/><path class="cls-2" d="M12.64844,524.31494v1.73376a7.90723,7.90723,0,1,0-4,0v-1.73376Zm-5.90723-5.90771a3.90723,3.90723,0,1,1,3.90723,3.90771A3.91185,3.91185,0,0,1,6.74121,518.40723Z"/><path class="cls-2" d="M10.64844,501.30078a7.8991,7.8991,0,0,0,6.50293-12.395l-1.54785,1.5415-2.82227-2.834,1.32544-1.32013a7.90319,7.90319,0,1,0-3.45825,15.00763Zm0-11.81494a3.90747,3.90747,0,1,1-3.90723,3.90771A3.912,3.912,0,0,1,10.64844,489.48584Z"/><circle class="cls-2" cx="10.64844" cy="433.14319" r="3.90735"/><path class="cls-2" d="M12.64844,439.05078v1.73376a7.89578,7.89578,0,0,0,0-15.28253v1.73383h-4V425.502a7.89578,7.89578,0,0,0,0,15.28253v-1.73376Zm1.90723-5.90771a3.90723,3.90723,0,1,1-3.90723-3.90723A3.912,3.912,0,0,1,14.55566,433.14307Z"/><path class="cls-2" d="M8.64844,457.36084V455.627a7.90723,7.90723,0,1,0,4,0v1.73383Zm5.90723,5.90723a3.90723,3.90723,0,1,1-3.90723-3.90723A3.912,3.912,0,0,1,14.55566,463.26807Z"/><path class="cls-2" d="M12.64844,271.05078v2.73376a7.90723,7.90723,0,1,0-4,0v-2.73376Zm-5.90723-4.90771a3.90723,3.90723,0,1,1,3.90723,3.90771A3.91185,3.91185,0,0,1,6.74121,266.14307Z"/><circle class="cls-2" cx="65.14844" cy="533.85681" r="3.90735"/><path class="cls-2" d="M71.05566,531.85693h1.73389a7.90747,7.90747,0,1,0-.00012,4H71.05566Zm-5.90723,5.90723a3.90747,3.90747,0,1,1,3.90723-3.90723A3.91185,3.91185,0,0,1,65.14844,537.76416Z"/><circle class="cls-2" cx="65.14844" cy="567.38684" r="3.90735"/><path class="cls-2" d="M71.05566,565.38672h1.73376a7.90749,7.90749,0,1,0,.00012,4H71.05566Zm-5.90723,5.90771a3.90747,3.90747,0,1,1,3.90723-3.90771A3.912,3.912,0,0,1,65.14844,571.29443Z"/><circle class="cls-2" cx="65.14844" cy="626" r="3.90723"/><path class="cls-2" d="M71,624h1.78943a7.90723,7.90723,0,1,0,0,4H71Zm-5.85156,5.90723A3.90723,3.90723,0,1,1,69.05566,626,3.91185,3.91185,0,0,1,65.14844,629.90723Z"/><polygon class="cls-2" points="72.79 531.857 71.056 531.857 71.056 535.857 72.789 535.857 99.085 535.857 207.056 643.829 207.056 670 211.056 670 211.056 642.171 100.741 531.857 72.79 531.857"/><polygon class="cls-2" points="42.79 548.857 41.056 548.857 41.056 552.857 42.789 552.857 99.085 552.857 190.056 643.829 190.056 670 194.056 670 194.056 642.171 100.741 548.857 42.79 548.857"/><polygon class="cls-2" points="72.789 565.387 71.056 565.387 71.056 569.387 72.79 569.387 98.781 569.387 173.223 643.829 173.223 670 177.223 670 177.223 642.171 100.438 565.387 72.789 565.387"/><polygon class="cls-2" points="42.79 583.786 41.056 583.786 41.056 587.786 42.789 587.786 99.085 587.786 155.127 643.829 155.127 670 159.127 670 159.127 642.171 100.741 583.786 42.79 583.786"/><polygon class="cls-2" points="12.648 544.949 12.648 543.215 12.648 526.049 12.648 524.315 8.648 524.315 8.648 526.049 8.648 543.215 8.648 544.949 12.648 544.949"/><polygon class="cls-2" points="8.648 579.878 12.648 579.878 12.648 578.144 12.648 558.498 12.648 556.764 8.648 556.764 8.648 558.498 8.648 578.144 8.648 579.878"/><polygon class="cls-2" points="219.531 609.809 218.699 608.978 161 551.371 161 528 178.507 528 182 528 182 524 178.507 524 157 524 157 553.03 215.718 611.655 216.705 612.64 219.531 609.809"/><polygon class="cls-2" points="122.194 515.139 123.608 513.725 115.391 505.508 113.47 503.586 110.642 506.414 112.761 508.534 131.627 527.4 133.642 529.414 136.47 526.586 134.653 524.77 126.437 516.553 125.022 517.967 122.194 515.139"/><polygon class="cls-2" points="233.331 384.78 230.503 387.608 229.089 386.194 223.383 391.9 224.912 393.443 222.07 396.258 220.554 394.729 216.033 399.25 217.515 400.728 214.69 403.561 213.204 402.079 208.27 407.013 209.697 408.446 206.863 411.27 205.441 409.842 196.25 419.033 197.664 420.447 194.836 423.275 193.422 421.861 188.604 426.68 190.018 428.094 187.189 430.922 185.775 429.508 181.241 434.042 182.655 435.457 179.827 438.285 178.413 436.87 174.111 441.172 175.525 442.586 172.697 445.414 171.283 444 156.283 459 241.772 544.489 241.772 538.832 161.939 459 241.772 379.168 241.772 373.511 231.917 383.366 233.331 384.78"/><polygon class="cls-2" points="175.525 442.586 174.111 441.172 158.619 425.679 128.362 455.937 166.706 494.281 159.195 501.792 156.819 504.168 159.647 506.996 162.162 504.482 172.362 494.281 134.019 455.937 158.619 431.336 171.283 444 172.697 445.414 175.525 442.586"/><polygon class="cls-2" points="182.655 435.457 181.241 434.042 158.678 411.479 112.275 457.881 134.013 479.618 136.111 481.716 138.939 478.888 136.671 476.619 117.932 457.881 158.678 417.136 178.413 436.87 179.827 438.285 182.655 435.457"/><polygon class="cls-2" points="190.018 428.094 188.604 426.68 158.909 396.984 95.228 460.667 135.947 501.386 123.608 513.725 122.194 515.139 125.022 517.967 126.437 516.553 141.604 501.386 100.884 460.667 158.909 402.642 185.775 429.508 187.189 430.922 190.018 428.094"/><polygon class="cls-2" points="197.664 420.447 196.25 419.033 158.815 381.598 75.991 464.424 74.068 466.346 76.896 469.174 78.91 467.161 158.815 387.255 193.422 421.861 194.836 423.275 197.664 420.447"/><polygon class="cls-2" points="231.785 340.4 207.54 364.646 229.089 386.194 230.503 387.608 233.331 384.78 231.917 383.366 213.196 364.646 231.785 346.058 238.778 353.05 240.642 354.914 241.772 353.784 241.772 350.388 241.611 350.227 231.785 340.4"/><polygon class="cls-2" points="209.697 408.446 208.27 407.013 183.21 381.857 163.081 361.763 198 326.751 198 276.403 198 275 194 275 194 276.274 194 325.098 157.425 361.769 180.38 384.684 205.441 409.842 206.863 411.27 209.697 408.446"/><polygon class="cls-2" points="217.515 400.728 216.033 399.25 194.593 377.873 179.329 362.517 215 327.922 215 220.619 215 219 211 219 211 220.56 211 326.23 173.638 362.465 191.762 380.699 213.204 402.079 214.69 403.561 217.515 400.728"/><polygon class="cls-2" points="224.912 393.443 223.383 391.9 202.092 370.415 195.963 364.277 233 327.093 233 278.353 233 277 229 277 229 278.324 229 325.441 190.314 364.28 199.256 373.236 220.554 394.729 222.07 396.258 224.912 393.443"/><polygon class="cls-2" points="241.772 501.716 241.772 416.284 199.056 459 241.772 501.716"/><polygon class="cls-2" points="200.797 567 187.042 553.66 184.781 551.467 181.996 554.338 184.204 556.479 199.176 571 214.224 571 241.772 598.732 241.772 593.057 215.888 567 200.797 567"/><polygon class="cls-2" points="219.387 545.252 216.559 548.081 219.003 550.525 241.772 573.294 241.772 567.638 221.811 547.677 219.387 545.252"/><rect class="cls-2" x="126.82443" y="389.90341" width="14.94477" height="5.28123" transform="translate(-238.23591 209.93567) rotate(-45)"/><rect class="cls-2" x="112.29966" y="404.42816" width="14.94486" height="5.28123" transform="translate(-252.75899 203.9163) rotate(-44.99953)"/><rect class="cls-2" x="97.80698" y="418.9208" width="14.94488" height="5.2812" transform="translate(-267.2533 197.91627) rotate(-45)"/><rect class="cls-2" x="83.29843" y="433.42947" width="14.94477" height="5.28123" transform="translate(-281.76196 191.90663) rotate(-45)"/><polygon class="cls-2" points="72.789 624 71 624 71 628 72.789 628 121.979 628 138 643.88 138 655 138 659 138 670 142 670 142 642.213 123.626 624 72.789 624"/><polygon class="cls-2" points="42 609 42.789 609 85.415 609 87 609 87 605 85.415 605 42.789 605 42 605 42 609"/><polygon class="cls-2" points="114.549 655 107.487 648 42.789 648 39 648 39 649.45 39 650.55 39 652 42.789 652 105.841 652 112.902 659 138 659 138 655 114.549 655"/><polygon class="cls-2" points="31 630 31 626 27.507 626 16.229 626 0 642.169 0 670 4 670 4 643.831 17.882 630 27.507 630 31 630"/><polygon class="cls-2" points="64 437 64 436.116 43 457.173 43 485.766 43 489 47 489 47 485.738 47 458.827 133 372.593 133 212.83 216 130.007 216 43.063 216 39 215.589 39 212.523 39 212 39 212 43.034 212 128.348 129 211.17 129 370.939 68 432.105 68 437 64 437"/><polygon class="cls-2" points="103 378 103 377.154 64 416.172 64 436.116 64 437 68 437 68 432.105 68 417.828 120 365.804 120 205.829 203 122.937 203 68.748 203 67 199 67 199 68.719 199 121.279 116 204.171 116 364.148 107 373.152 107 378 103 378"/><polygon class="cls-2" points="188.589 39 185.523 39 185 39 185 43.034 185 114.548 103 196.169 103 377.154 103 378 107 378 107 373.152 107 197.831 189 116.21 189 43.063 189 39 188.589 39"/><polygon class="cls-2" points="209.54 156.288 206.712 153.459 205.079 155.092 143 217.171 143 347.424 143 350 147 350 147 347.395 147 316.257 146.499 316.749 143.696 313.895 147 310.65 147 218.829 207.744 158.084 209.54 156.288"/><polygon class="cls-2" points="175 220 175 222.575 175 321.967 166.109 330.823 164.061 332.863 166.883 335.697 168.724 333.864 179 323.628 179 222.604 179 220 175 220"/><polygon class="cls-2" points="146.499 316.749 147 316.257 161 302.509 161 275.24 161 270.781 161 269 157 269 157 271.238 157 275.435 157 300.831 147 310.65 143.696 313.895 146.499 316.749"/><polygon class="cls-2" points="47 429 47 425.345 47 410.829 81.379 376.449 83.414 374.414 80.586 371.586 78.52 373.652 43 409.171 43 425.373 43 429 47 429"/><polygon class="cls-2" points="83 341 87 341 87 337.587 87 222.505 87 219 83 219 83 222.674 83 337.417 83 341"/><polygon class="cls-2" points="43 367.164 43 378.8 43 381 47 381 47 378.771 47 368.836 66 350.086 66 325.194 47 305.444 47 273.655 47 270 43 270 43 273.627 43 307.056 62 326.806 62 348.414 43 367.164"/><polygon class="cls-2" points="48 220 44 220 44 222.575 44 233.314 64 253.814 64 295.281 64 297 68 297 68 295.252 68 252.186 48 231.686 48 222.604 48 220"/><polygon class="cls-2" points="15.604 490.447 17.151 488.906 27 479.098 27 352.829 34.856 344.984 36.474 343.369 33.647 340.539 31.912 342.272 23 351.171 23 477.436 14.107 486.293 12.781 487.613 15.604 490.447"/><polygon class="cls-2" points="12.648 427.236 12.648 425.502 12.648 273.785 12.648 271.051 8.648 271.051 8.648 273.785 8.648 425.502 8.648 427.236 12.648 427.236"/><polygon class="cls-2" points="8.648 457.361 12.648 457.361 12.648 455.627 12.648 440.785 12.648 439.051 8.648 439.051 8.648 440.785 8.648 455.627 8.648 457.361"/><polygon class="cls-2" points="26 298 30 298 30 296.252 30 248.167 14 232.295 14 222.604 14 220 10 220 10 222.575 10 233.961 26 249.833 26 296.281 26 298"/><polygon class="cls-2" points="148 117.171 88.245 176.903 86.429 178.719 89.257 181.548 91.245 179.56 152 118.829 152 37.98 179 10.826 179 0 175 0 175 9.175 148 36.33 148 117.171"/><polygon class="cls-2" points="130 111.17 64.011 177.055 62.729 178.334 65.556 181.165 66.888 179.834 134 112.83 134 32.315 156 9.815 156 0 152 0 152 8.185 130 30.685 130 111.17"/><polygon class="cls-2" points="37.729 178.334 40.556 181.165 42.038 179.685 116 105.829 116 26.311 132 9.811 132 0 128 0 128 8.189 112 24.689 112 104.171 39.097 176.969 37.729 178.334"/><polygon class="cls-2" points="16.556 181.165 18.323 179.399 98 99.829 98 20.3 108 9.8 108 0 104 0 104 8.2 94 18.7 94 98.171 82 110.155 82 115 78 115 78 114.15 15.252 176.813 13.729 178.334 16.556 181.165"/><polygon class="cls-2" points="166.251 95.333 170.251 95.333 170.251 93.878 170.251 65.529 170.251 62.333 166.251 62.333 166.251 65.529 166.251 93.878 166.251 95.333"/><circle class="cls-2" cx="200.51758" cy="14" r="3.90723"/><path class="cls-2" d="M204.96289,16V12h3.19568a7.90723,7.90723,0,1,0,0,4Zm-4.44531,1.90723A3.90723,3.90723,0,1,1,204.4248,14,3.91185,3.91185,0,0,1,200.51758,17.90723Z"/><polygon class="cls-2" points="204.963 12 204.963 16 208.159 16 241.772 16 241.772 12 208.159 12 204.963 12"/><polygon class="cls-2" points="229 110 229 112.053 229 167.142 217.785 178.133 217.083 178.821 219.884 181.678 220.317 181.253 233 168.823 233 112.082 233 110 229 110"/><polygon class="cls-2" points="229 73.703 229 74 233 74 233 73.675 233 45.829 241.772 37.056 241.772 31.399 229 44.171 229 73.703"/><polygon class="cls-2" points="15.19 142.514 18.04 145.322 19.204 144.141 35 128.112 35 119.884 34.47 120.414 31.642 117.586 35 114.228 35 97.723 35 96 31 96 31 97.694 31 126.473 16.626 141.058 15.19 142.514"/><polygon class="cls-2" points="34.47 120.414 35 119.884 58.362 96.523 61.079 93.805 60.123 92.849 59.653 92.379 58.251 90.977 55.647 93.581 35 114.228 31.642 117.586 34.47 120.414"/><polygon class="cls-2" points="82 115 82 110.155 82 61.171 69.378 48.55 67.866 47.038 65.038 49.866 66.507 51.335 78 62.829 78 114.15 78 115 82 115"/><polygon class="cls-2" points="31 49 31 52.079 31 69 54.924 69 57 69 57 65 55.048 65 35 65 35 52.108 35 49 31 49"/><polygon class="cls-2" points="38.963 24 40.697 24 54.986 24 56.72 24 56.72 20 54.986 20 40.697 20 38.963 20 38.963 24"/><polygon class="cls-2" points="9.865 113.333 13.865 113.333 13.865 112.269 13.865 52.764 13.865 50.333 9.865 50.333 9.865 52.666 9.865 112.367 9.865 113.333"/><polygon class="cls-2" points="14.056 39.166 14.056 37.432 14.056 29.641 14.056 27.907 10.056 27.907 10.056 29.641 10.056 37.432 10.056 39.166 14.056 39.166"/><polygon class="cls-2" points="67.576 18.968 69.088 17.456 77 9.544 77 0 73 0 73 7.887 66.019 14.868 64.748 16.14 67.576 18.968"/><polygon class="cls-2" points="37.576 18.968 39.333 17.211 47 9.544 47 0 43 0 43 7.887 36.159 14.729 34.748 16.14 37.576 18.968"/><polygon class="cls-2" points="14.056 16.093 14.056 14.359 14.056 0 10.056 0 10.056 14.359 10.056 16.093 14.056 16.093"/></g></g></svg>