<svg xmlns="http://www.w3.org/2000/svg" width="519.06384" height="148.68213" viewBox="0 0 519.06384 148.68213"><defs><style>.cls-1{fill:#fff;}</style></defs><title>usacs-logo</title><g id="Layer_2" data-name="Layer 2"><g id="Layer_1-2" data-name="Layer 1"><path class="cls-1" d="M93.26835,119.06751a52.21159,52.21159,0,0,1-15.78048-2.22075,30.57266,30.57266,0,0,1-11.92274-6.83834,30.172,30.172,0,0,1-7.53972-11.68917,47.7513,47.7513,0,0,1-2.63008-16.65695V35.724H78.53977V81.1945q0,8.885,4.05842,13.1504,4.06024,4.26856,10.90373,4.2664,6.84366,0,10.90207-4.091,4.06024-4.09064,4.06008-12.7414V35.724H131.6085V81.07788a47.995,47.995,0,0,1-2.747,17.12442,29.67149,29.67149,0,0,1-19.7545,18.64446A52.79077,52.79077,0,0,1,93.26835,119.06751Z"/><path class="cls-1" d="M177.19566,118.95056a63.50247,63.50247,0,0,1-20.86521-3.4102,50.56566,50.56566,0,0,1-17.47528-10.23325l12.62445-15.112q12.27343,9.81894,26.53436,9.81894a13.52175,13.52175,0,0,0,6.955-1.45757,4.59881,4.59881,0,0,0,2.39618-4.14414v-.23191a4.40609,4.40609,0,0,0-.58443-2.27557,5.96534,5.96534,0,0,0-2.16261-1.925,22.34017,22.34017,0,0,0-4.20793-1.8081q-2.62991-.87714-6.838-1.81009-6.54812-1.51505-12.157-3.32415a37.17066,37.17066,0,0,1-9.76013-4.66842,19.91992,19.91992,0,0,1-8.94247-17.67795v-.23191a25.17868,25.17868,0,0,1,2.16261-10.502,23.28568,23.28568,0,0,1,6.31206-8.28462,29.71179,29.71179,0,0,1,9.99437-5.42628,42.15163,42.15163,0,0,1,13.20854-1.925,58.86726,58.86726,0,0,1,18.76108,2.7653,47.32475,47.32475,0,0,1,14.90367,8.17331L196.71659,61.32305a46.041,46.041,0,0,0-11.51407-6.01968,34.77525,34.77525,0,0,0-11.39679-2.04565q-4.09314,0-6.13663,1.51771a4.51148,4.51148,0,0,0-2.04565,3.73314v.2339a4.58658,4.58658,0,0,0,.6429,2.449,5.82639,5.82639,0,0,0,2.22075,1.927,24.38305,24.38305,0,0,0,4.32521,1.74962q2.745.87664,6.955,1.8081a100.0923,100.0923,0,0,1,12.68259,3.558,37.99593,37.99593,0,0,1,9.64351,4.96047,19.86313,19.86313,0,0,1,6.07849,7.05928,21.53179,21.53179,0,0,1,2.10413,9.85881v.2339a25.191,25.191,0,0,1-2.39651,11.20143,24.0557,24.0557,0,0,1-6.72106,8.34309,30.42891,30.42891,0,0,1-10.40337,5.25119A47.484,47.484,0,0,1,177.19566,118.95056Z"/><path class="cls-1" d="M249.55042,35.13954H271.409l34.83327,82.40827H281.9297l-5.96187-14.61129H244.40721l-5.84458,14.61129H214.71682Zm19.87145,50.26322L260.3043,62.14138l-9.23418,23.26138Z"/><path class="cls-1" d="M353.58374,119.18446a43.09385,43.09385,0,0,1-16.48152-3.15636,40.23136,40.23136,0,0,1-13.3843-8.82519,42.51634,42.51634,0,0,1-12.33174-30.33329v-.2339a42.6833,42.6833,0,0,1,12.27326-30.21634A41.06743,41.06743,0,0,1,337.277,37.36029a44.58271,44.58271,0,0,1,17.2417-3.273A49.41678,49.41678,0,0,1,365.974,35.315a39.18143,39.18143,0,0,1,9.40994,3.50655,37.68613,37.68613,0,0,1,7.71481,5.43559,44.80864,44.80864,0,0,1,6.13663,6.89648L372.16906,64.36213a29.51,29.51,0,0,0-7.71481-7.01343,19.15074,19.15074,0,0,0-10.16946-2.5716,18.15714,18.15714,0,0,0-7.89024,1.69513,18.88733,18.88733,0,0,0-6.13663,4.61726,21.59349,21.59349,0,0,0-4.03283,6.89648,24.18288,24.18288,0,0,0-1.46123,8.41619v.23357a25.00958,25.00958,0,0,0,1.46123,8.59161,21.43445,21.43445,0,0,0,4.03283,6.955,18.83152,18.83152,0,0,0,6.13663,4.61726,18.12871,18.12871,0,0,0,7.89024,1.69513,22.43186,22.43186,0,0,0,5.78644-.70138,17.62053,17.62053,0,0,0,4.79235-2.04565,25.9652,25.9652,0,0,0,4.09131-3.156,47.43367,47.43367,0,0,0,3.79893-4.03283l17.06628,12.15664a60.99681,60.99681,0,0,1-6.37053,7.36429,36.65127,36.65127,0,0,1-7.83176,5.84458,40.9206,40.9206,0,0,1-9.81927,3.85741A48.959,48.959,0,0,1,353.58374,119.18446Z"/><path class="cls-1" d="M431.66613,118.95056a63.49707,63.49707,0,0,1-20.86454-3.4102A50.56406,50.56406,0,0,1,393.326,105.30711l12.62411-15.112q12.27393,9.81894,26.5347,9.81894a13.52123,13.52123,0,0,0,6.95463-1.45757,4.59816,4.59816,0,0,0,2.39684-4.14414v-.23191a4.40949,4.40949,0,0,0-.58476-2.27557,5.9667,5.9667,0,0,0-2.16227-1.925,22.35408,22.35408,0,0,0-4.20826-1.8081q-2.63041-.87714-6.83834-1.81009-6.54762-1.51505-12.15631-3.32415a37.18543,37.18543,0,0,1-9.7608-4.66842,19.91873,19.91873,0,0,1-8.94214-17.67795v-.23191a25.17364,25.17364,0,0,1,2.16294-10.502,23.28186,23.28186,0,0,1,6.31206-8.28462,29.70375,29.70375,0,0,1,9.994-5.42628,42.15231,42.15231,0,0,1,13.20887-1.925,58.868,58.868,0,0,1,18.76075,2.7653,47.33,47.33,0,0,1,14.904,8.17331l-11.339,16.06322a46.02772,46.02772,0,0,0-11.51374-6.01968,34.77525,34.77525,0,0,0-11.39679-2.04565q-4.09264,0-6.13663,1.51771a4.51267,4.51267,0,0,0-2.046,3.73314v.2339a4.58675,4.58675,0,0,0,.64323,2.449,5.82639,5.82639,0,0,0,2.22075,1.927,24.37249,24.37249,0,0,0,4.32521,1.74962q2.745.87664,6.95463,1.8081a100.10384,100.10384,0,0,1,12.68326,3.558,38.0047,38.0047,0,0,1,9.64318,4.96047,19.85225,19.85225,0,0,1,6.07815,7.05928,21.53179,21.53179,0,0,1,2.10446,9.85881v.2339a25.19549,25.19549,0,0,1-2.39618,11.20143,24.05664,24.05664,0,0,1-6.72139,8.34309,30.43193,30.43193,0,0,1-10.40337,5.25119A47.48472,47.48472,0,0,1,431.66613,118.95056Z"/><path class="cls-1" d="M334.80143,31.38865c.52791-.21882,1.06224-.42477,1.59916-.62472a11.89938,11.89938,0,0,0-15.13581,9.04356A48.146,48.146,0,0,1,334.80143,31.38865Z"/><path class="cls-1" d="M371.85414,23.46631l-.76742,6.57331a45.53,45.53,0,0,1,4.85772,1.85882l.9709-8.31763a11.90162,11.90162,0,1,0-5.06121-.1145Zm2.79241-18.42654a6.86042,6.86042,0,1,1-6.86064,6.86064A6.86859,6.86859,0,0,1,374.64656,5.03977Z"/><path class="cls-1" d="M284.99835,50.68585a6.81907,6.81907,0,0,1,1.35322,3.201l3.16508,7.48814a11.816,11.816,0,0,0,1.95231-6.51177c0-.01994-.00129-.03945-.0015-.05939l21.45975-5.30168a48.23973,48.23973,0,0,1,5.00417-6.428l-27.55876,6.80853a11.93661,11.93661,0,0,0-8.54427-6.69671Z"/><path class="cls-1" d="M420.72878,28.44346a6.85848,6.85848,0,1,1,13.36533-.41233q2.57306.16886,5.02347.51032a11.90034,11.90034,0,1,0-23.32672.929A44.80926,44.80926,0,0,1,420.72878,28.44346Z"/><path class="cls-1" d="M367.80908,84.39487l2.33012-2.767.96511-8.26735-.041.03173-3.96744-5.02379c-.13937-.17658-.28175-.3449-.42327-.5159l-2.36057,20.222c.072-.06583.14624-.1279.21764-.195A41.22435,41.22435,0,0,0,367.80908,84.39487Z"/><path class="cls-1" d="M402.0267,84.8087l.75069-.89864q-.15953-.10743-.31713-.21624a28.63315,28.63315,0,0,1-3.61815-2.95055Z"/><path class="cls-1" d="M392.96717,77.60306a11.84945,11.84945,0,0,0,2.8175-.34533,27.37448,27.37448,0,0,1-1.838-2.83465c-.33771-.59984-.64605-1.22231-.93123-1.86225,0,0-.03195.00247-.04824.00247a6.85676,6.85676,0,0,1-2.22055-13.34518q.02251-.55546.05961-1.106l-9.73732,7.53628c0,.01823-.00172.036-.00172.05425A11.91346,11.91346,0,0,0,392.96717,77.60306Z"/><path class="cls-1" d="M85.00426,65.37642a6.86064,6.86064,0,1,1,0,10.64968v5.16842c0,.20038.00343.39572.00708.59073a11.78983,11.78983,0,0,0,1.44392.46519l-.70845,4.8143a7.16059,7.16059,0,0,0,1.53526,2.82479,6.56674,6.56674,0,0,0,2.87947,1.79471l1.36715-9.291a11.89151,11.89151,0,0,0,5.44824-20.79376l5.02283-7.04332V45.87584l-9.52247,13.353a11.796,11.796,0,0,0-7.473.39325Z"/><path class="cls-1" d="M154.22086,121.65085c-.13723-.04739-.27253-.09853-.40912-.14688a6.83887,6.83887,0,0,1-10.40481-4.86416,56.58989,56.58989,0,0,1-4.88-3.25975c-.012.06079-.02895.11965-.0401.18076l-14.8204,2.79777a38.20058,38.20058,0,0,1-12.62472,6.65618,59.46575,59.46575,0,0,1-17.77341,2.5171,62.90576,62.90576,0,0,1-12.992-1.2906l-.167,1.13451a11.92734,11.92734,0,1,0,5.33889,3.32654L138.668,118.65538a11.89508,11.89508,0,0,0,20.74058,4.55078Q156.7773,122.52993,154.22086,121.65085ZM76.72179,143.64237a6.86042,6.86042,0,1,1,6.86021-6.86021A6.86822,6.86822,0,0,1,76.72179,143.64237Z"/><path class="cls-1" d="M48.93092,60.55847l-25.306-6.16033a11.89772,11.89772,0,1,0-.23844,5.1295L48.93092,65.746ZM11.9004,63.28141a6.86042,6.86042,0,1,1,6.86021-6.86021A6.86822,6.86822,0,0,1,11.9004,63.28141Z"/><path class="cls-1" d="M130.61689,29.25955a11.9031,11.9031,0,1,0-19.02371,0ZM121.10236,15.26a6.86064,6.86064,0,1,1-3.79569,12.57069L117.157,27.724a6.8545,6.8545,0,0,1,3.94536-12.464Z"/><path class="cls-1" d="M227.3959,124.01217a6.85025,6.85025,0,0,1-10.5607,0h-5.7836a11.88823,11.88823,0,0,0,22.118,0Z"/><path class="cls-1" d="M367.41347,124.04112c-.31434.08116-.63726.15331-.95761.22836a6.86425,6.86425,0,1,1-8.40619,1.22478c-1.45228.09885-2.93886.1546-4.466.1546-.5129,0-1.02343-.00976-1.53269-.02434a11.77452,11.77452,0,0,0-.40933,1.11446l-3.62973-1.38613a48.78165,48.78165,0,0,1-13.35718-3.34155,47.8761,47.8761,0,0,1-10.09647-5.61442l-13.1389-5.01725A11.89,11.89,0,0,0,304.01177,95.667l8.1849,19.36389,1.02858,2.43358,38.0354,14.52417a11.89873,11.89873,0,1,0,20.88338-9.41107Q369.85884,123.40675,367.41347,124.04112Z"/><path class="cls-1" d="M507.16344,79.50284a11.85544,11.85544,0,0,0-8.23808,3.32482L464.123,54.20709l-2.91485,4.12912L496.0995,87.0299a11.89818,11.89818,0,1,0,11.06394-7.52706Zm0,18.761a6.86064,6.86064,0,1,1,6.86064-6.86064A6.86822,6.86822,0,0,1,507.16344,98.26388Z"/><path class="cls-1" d="M156.58271,31.06005a6.85377,6.85377,0,0,1,12.49971-2.95323c1.72009-.16092,3.48735-.25,5.30779-.25.05939,0,.11686.00289.17625.003a11.88655,11.88655,0,0,0-22.96756,5.64712A37.54365,37.54365,0,0,1,156.58271,31.06005Z"/><path class="cls-1" d="M454.1286,120.50777a39.5582,39.5582,0,0,1-5.6751,2.38641,6.86763,6.86763,0,1,1-7.25453,1.77337,57.43316,57.43316,0,0,1-7.3924.71156l.84182,1.07479a11.90161,11.90161,0,1,0,19.48021-5.94613Z"/><path class="cls-1" d="M208.92476,37.847c1.09334.76012,2.1663,1.55145,3.2041,2.3938l4.69262,3.809-.50539.716,13.87244,3.26682-4.67546,27.37028,8.58008-20.29866L235.1035,49.19l1.35472.31906,1.99069-4.70924-2.49523-.58762,3.09046-18.09161A11.90585,11.90585,0,1,0,227.032,21.08816L212.84353,38.7699Zm27.9593-30.28738a6.86064,6.86064,0,1,1-6.86064,6.86064A6.86859,6.86859,0,0,1,236.88406,7.55965Zm-6.19143,17.01972a11.83547,11.83547,0,0,0,3.26693,1.37669L231.03871,43.0548l-12.76023-3.00491Z"/><path class="cls-1" d="M175.42566,93.45311l.00214-.00257q-1.46343-.38-3.25621-.778l-.0283-.00633-.0283-.00654q-1.06557-.24653-2.1112-.50282l-.2854.3554A32.70724,32.70724,0,0,0,175.42566,93.45311Z"/><polygon class="cls-1" points="271.624 109.401 267.53 109.401 247.041 113.757 244.789 119.388 273.232 113.342 271.624 109.401"/></g></g></svg>