<svg xmlns="http://www.w3.org/2000/svg" width="106.29617" height="22.09715" viewBox="0 0 106.29617 22.09715"><defs><style>.cls-1{fill:#b22828;}</style></defs><title>Asset 1</title><g id="Layer_2" data-name="Layer 2"><g id="Layer_1-2" data-name="Layer 1"><path class="cls-1" d="M9.83447,22.06678a13.55777,13.55777,0,0,1-4.09771-.57666,7.93879,7.93879,0,0,1-3.096-1.77571A7.83474,7.83474,0,0,1,.683,16.67909,12.39957,12.39957,0,0,1,0,12.35379V.425H6.00991V12.23231a4.80188,4.80188,0,0,0,1.05385,3.41476,3.72309,3.72309,0,0,0,2.83137,1.10786,3.80791,3.80791,0,0,0,2.83094-1.0623,4.53464,4.53464,0,0,0,1.05428-3.30856V.425h6.00991V12.202a12.46285,12.46285,0,0,1-.71332,4.44669,8.00583,8.00583,0,0,1-2.0033,3.06569,8.0648,8.0648,0,0,1-3.12634,1.77571A13.70816,13.70816,0,0,1,9.83447,22.06678Z"/><path class="cls-1" d="M31.62785,22.03642a16.48967,16.48967,0,0,1-5.41806-.88553,13.13037,13.13037,0,0,1-4.5378-2.65727l3.27819-3.92413a10.813,10.813,0,0,0,6.89017,2.54968,3.51119,3.51119,0,0,0,1.806-.37849,1.19417,1.19417,0,0,0,.62221-1.07611v-.06022a1.14413,1.14413,0,0,0-.15176-.5909,1.549,1.549,0,0,0-.56156-.49988,5.80106,5.80106,0,0,0-1.09267-.46951q-.68291-.22777-1.77562-.47-1.70035-.39341-3.1568-.86318a9.65209,9.65209,0,0,1-2.53441-1.21225,5.48571,5.48571,0,0,1-1.69979-1.84818,5.52356,5.52356,0,0,1-.6223-2.74225V6.848a6.53814,6.53814,0,0,1,.56156-2.72706,6.04659,6.04659,0,0,1,1.63905-2.15126,7.71525,7.71525,0,0,1,2.59523-1.409A10.9455,10.9455,0,0,1,30.89935.06074,15.286,15.286,0,0,1,35.771.7788a12.2888,12.2888,0,0,1,3.87,2.12236L36.69685,7.0723A11.95544,11.95544,0,0,0,33.707,5.50917a9.03008,9.03008,0,0,0-2.9594-.53119,2.66183,2.66183,0,0,0-1.5935.3941,1.1715,1.1715,0,0,0-.53119.96938V6.4022a1.191,1.191,0,0,0,.16694.63593,1.51294,1.51294,0,0,0,.57666.50039,6.33154,6.33154,0,0,0,1.12313.45432q.7128.22764,1.806.46951a25.99094,25.99094,0,0,1,3.29328.92392A9.86639,9.86639,0,0,1,38.093,10.67436a5.15785,5.15785,0,0,1,1.5784,1.83308,5.59116,5.59116,0,0,1,.54638,2.56v.06074a6.54135,6.54135,0,0,1-.6223,2.90867,6.24654,6.24654,0,0,1-1.74525,2.16645,7.90147,7.90147,0,0,1-2.70144,1.36357A12.33015,12.33015,0,0,1,31.62785,22.03642Z"/><path class="cls-1" d="M50.41619.27323h5.676l9.04514,21.39893H58.82411L57.276,17.87805H49.08066L47.563,21.67216H41.371Zm5.16,13.05184L53.20865,7.28479l-2.39784,6.04028Z"/><path class="cls-1" d="M77.4305,22.09715a11.19017,11.19017,0,0,1-4.27975-.81961,10.44687,10.44687,0,0,1-3.4755-2.29163,11.04021,11.04021,0,0,1-3.20218-7.87664v-.06074a11.08356,11.08356,0,0,1,3.187-7.84627A10.664,10.664,0,0,1,73.19613.84989,11.57678,11.57678,0,0,1,77.67327,0a12.832,12.832,0,0,1,2.97459.31879,10.17423,10.17423,0,0,1,2.44348.91055,9.786,9.786,0,0,1,2.0033,1.41146,11.63545,11.63545,0,0,1,1.5935,1.79081l-4.4316,3.42986a7.66285,7.66285,0,0,0-2.0033-1.82118,4.97287,4.97287,0,0,0-2.6407-.66777,4.71486,4.71486,0,0,0-2.04886.44017,4.90447,4.90447,0,0,0-1.5935,1.199A5.60717,5.60717,0,0,0,72.923,8.80245a6.27956,6.27956,0,0,0-.37944,2.18543v.06065a6.49423,6.49423,0,0,0,.37944,2.231,5.56588,5.56588,0,0,0,1.0472,1.806,4.89,4.89,0,0,0,1.5935,1.199,4.70748,4.70748,0,0,0,2.04886.44017,5.82488,5.82488,0,0,0,1.50256-.18213,4.57552,4.57552,0,0,0,1.24443-.53119,6.74238,6.74238,0,0,0,1.06239-.81953,12.31709,12.31709,0,0,0,.98647-1.0472L86.84,17.30131a15.839,15.839,0,0,1-1.65423,1.91228,9.51722,9.51722,0,0,1-2.03367,1.51766,10.62584,10.62584,0,0,1-2.54977,1.00165A12.71318,12.71318,0,0,1,77.4305,22.09715Z"/><path class="cls-1" d="M97.70613,22.03642a16.48827,16.48827,0,0,1-5.41789-.88553,13.13,13.13,0,0,1-4.53789-2.65727l3.2781-3.92413a10.81354,10.81354,0,0,0,6.89026,2.54968,3.51105,3.51105,0,0,0,1.80591-.37849,1.194,1.194,0,0,0,.62239-1.07611v-.06022a1.145,1.145,0,0,0-.15184-.5909,1.54937,1.54937,0,0,0-.56148-.49988,5.80468,5.80468,0,0,0-1.09276-.46951q-.683-.22777-1.77571-.47-1.70022-.39341-3.15663-.86318A9.65593,9.65593,0,0,1,91.074,11.49863a5.48833,5.48833,0,0,1-1.69979-1.84818A5.52356,5.52356,0,0,1,88.752,6.9082V6.848a6.53683,6.53683,0,0,1,.56165-2.72706A6.04559,6.04559,0,0,1,90.9527,1.96966a7.71316,7.71316,0,0,1,2.59515-1.409A10.94568,10.94568,0,0,1,96.9778.06074a15.28625,15.28625,0,0,1,4.8716.71807,12.29017,12.29017,0,0,1,3.87012,2.12236L102.77512,7.0723a11.952,11.952,0,0,0-2.98977-1.56313A9.03008,9.03008,0,0,0,96.826,4.978a2.66183,2.66183,0,0,0-1.5935.3941,1.1718,1.1718,0,0,0-.53128.96938V6.4022a1.191,1.191,0,0,0,.167.63593,1.51294,1.51294,0,0,0,.57666.50039,6.3288,6.3288,0,0,0,1.12313.45432q.7128.22764,1.80591.46951a25.99393,25.99393,0,0,1,3.29346.92392,9.86867,9.86867,0,0,1,2.504,1.28808,5.155,5.155,0,0,1,1.57831,1.83308,5.59115,5.59115,0,0,1,.54646,2.56v.06074a6.54251,6.54251,0,0,1-.62221,2.90867,6.24678,6.24678,0,0,1-1.74534,2.16645,7.90225,7.90225,0,0,1-2.70144,1.36357A12.33034,12.33034,0,0,1,97.70613,22.03642Z"/></g></g></svg>